<?xml version="1.0" encoding="utf-8"?>
<!-- Generator: Adobe Illustrator 20.1.0, SVG Export Plug-In . SVG Version: 6.00 Build 0)  -->
<svg version="1.1" xmlns="http://www.w3.org/2000/svg" xmlns:xlink="http://www.w3.org/1999/xlink" x="0px" y="0px"
	 viewBox="0 0 60 60" style="enable-background:new 0 0 60 60;" xml:space="preserve">
<style type="text/css">
	.st0{display:none;}
	.st1{display:inline;fill:#31DB6A;stroke:#FFFFFF;stroke-width:4;stroke-miterlimit:10;}
	.st2{display:inline;}
	.st3{fill:url(#SVGID_1_);}
	.st4{fill:#00B7EF;}
	.st5{fill:none;stroke:#FFFFFF;stroke-width:3.7946;stroke-miterlimit:10;}
	.st6{display:inline;fill:#F7D00F;}
	.st7{fill:none;stroke:#000000;stroke-width:4;stroke-miterlimit:10;}
	.st8{fill:#FFFFFF;}
	.st9{display:inline;fill:#474747;}
</style>
<g id="レイヤー_4" class="st0">
	<rect x="-8.5" y="-7" class="st1" width="85.8" height="79.5"/>
</g>
<g id="レイヤー_1" class="st0">
	<g class="st2">
		<linearGradient id="SVGID_1_" gradientUnits="userSpaceOnUse" x1="1.046354e-06" y1="30" x2="60" y2="30">
			<stop  offset="0" style="stop-color:#D1191A"/>
			<stop  offset="1" style="stop-color:#DA1C16"/>
		</linearGradient>
		<path class="st3" d="M30,4c14.3,0,26,11.7,26,26S44.3,56,30,56S4,44.3,4,30S15.7,4,30,4 M30,0C13.4,0,0,13.4,0,30s13.4,30,30,30
			s30-13.4,30-30S46.6,0,30,0L30,0z"/>
	</g>
</g>
<g id="レイヤー_2" class="st0">
	<g class="st2">
		<path class="st4" d="M30,13.7l22.8,35.7H7.2L30,13.7 M30,6.4l-30,47h60L30,6.4L30,6.4z"/>
	</g>
</g>
<g id="レイヤー_3" class="st0">
	<g class="st2">
		<line class="st5" x1="1.5" y1="58.5" x2="58.6" y2="1.4"/>
		<line class="st5" x1="1.5" y1="1.4" x2="58.6" y2="58.5"/>
	</g>
</g>
<g id="レイヤー_5" class="st0">
	<path class="st6" d="M30.4,0c4.5,5.1,7.2,11.6,7.2,18.6c0,16.6-15,30.1-33.6,30.1c-1.4,0-2.7-0.1-4-0.2C6.1,55.5,15.7,60,26.4,60
		C45,60,60,46.5,60,29.9C60,14.5,47.1,1.8,30.4,0z"/>
</g>
<g id="レイヤー_6" class="st0">
	<g class="st2">
		<g>
			<g>
				<path d="M30,4c14.3,0,26,11.7,26,26S44.3,56,30,56S4,44.3,4,30S15.6,4,30,4 M30,0C13.4,0,0,13.4,0,30s13.4,30,30,30
					s30-13.4,30-30S46.5,0,30,0L30,0z"/>
			</g>
		</g>
		<g>
			<polyline class="st7" points="29.2,15 29.2,34.9 38.7,25.4 			"/>
		</g>
	</g>
</g>
<g id="レイヤー_7" class="st0">
	<g class="st2">
		<polygon class="st8" points="52,58 48,58 48,16.2 35.8,4 12.1,4 12.1,58 8.2,58 8.2,0 37.5,0 52,14.6 		"/>
		<polygon class="st8" points="51.4,16 36,16 36,0.6 		"/>
		<g>
			<rect x="0.1" y="56" class="st8" width="59.7" height="4"/>
			<polygon class="st8" points="18,30 30,22 42,30 			"/>
			<rect x="18" y="38" class="st8" width="23.9" height="4"/>
		</g>
	</g>
</g>
<g id="レイヤー_8" class="st0">
	<g class="st2">
		<path class="st8" d="M46,41.3H0V5.1h46V41.3z M5.6,35.8h34.9V10.7H5.6V35.8z"/>
		<polygon class="st8" points="60,55.3 16.7,55.3 16.7,49.7 54.4,49.7 54.4,21.8 60,21.8 		"/>
	</g>
</g>
<g id="レイヤー_9" class="st0">
	<path class="st9" d="M60,55.4L43.6,38.9c7.2-9.5,6.5-23.2-2.1-31.8C32-2.4,16.6-2.4,7.1,7.1c-9.5,9.5-9.5,24.9,0,34.3
		c4.7,4.7,11,7.1,17.2,7.1c5.2,0,10.4-1.7,14.7-5L55.4,60L60,55.4z M11.7,36.8c-6.9-6.9-6.9-18.2,0-25.1c3.5-3.5,8-5.2,12.5-5.2
		c4.5,0,9.1,1.7,12.5,5.2c6.9,6.9,6.9,18.2,0,25.1C29.9,43.7,18.7,43.7,11.7,36.8z"/>
</g>
<g id="レイヤー_10">
	<g>
		<polygon class="st8" points="36.7,42 36.7,54 6.7,54 6.7,6 36.7,6 36.7,18 42.7,18 42.7,0 0.7,0 0.7,60 42.7,60 42.7,42 		"/>
		<polygon class="st8" points="59.3,30 49,19.7 49,24 26.2,24 26.2,36 49,36 49,40.3 		"/>
	</g>
</g>
</svg>
