<?xml version="1.0" encoding="utf-8"?>
<!-- Generator: Adobe Illustrator 20.1.0, SVG Export Plug-In . SVG Version: 6.00 Build 0)  -->
<svg version="1.1" xmlns="http://www.w3.org/2000/svg" xmlns:xlink="http://www.w3.org/1999/xlink" x="0px" y="0px"
	 viewBox="0 0 50 50" style="enable-background:new 0 0 50 50;" xml:space="preserve">
<style type="text/css">
	.st0{fill:#5087BE;}
	.st1{display:none;}
	.st2{display:inline;}
	.st3{fill:#EEEEEE;}
	.st4{display:inline;fill:#5087BE;}
	.st5{fill:#B71C25;}
</style>
<g id="レイヤー_1">
	<path class="st0" d="M25,5.6l20.8,41.9H4.2L25,5.6 M25,0L0.1,50h49.7L25,0L25,0z"/>
</g>
<g id="レイヤー_2" class="st1">
	<g class="st2">
		
			<rect x="23.7" y="-9.1" transform="matrix(0.7071 -0.7071 0.7071 0.7071 -10.3627 24.9945)" class="st3" width="2.5" height="68.2"/>
		
			<rect x="-9.1" y="23.8" transform="matrix(0.7071 -0.7071 0.7071 0.7071 -10.3627 24.9942)" class="st3" width="68.2" height="2.5"/>
	</g>
</g>
<g id="レイヤー_3" class="st1">
	<path class="st4" d="M25,2.5c12.4,0,22.5,10.1,22.5,22.5S37.4,47.5,25,47.5S2.5,37.4,2.5,25S12.6,2.5,25,2.5 M25,0
		C11.2,0,0,11.2,0,25c0,13.8,11.2,25,25,25s25-11.2,25-25C50,11.2,38.8,0,25,0L25,0z"/>
</g>
<g id="レイヤー_4" class="st1">
	<g class="st2">
		<g>
			<path class="st5" d="M33.6,22.3c-2.2,2.2-4.9,3.6-8,3.6c-3.2,0-6.2-1.5-8.4-4C10.9,25.3,6.5,32.8,6.5,41.5c0,1.2,0.1,2.3,0.3,3.4
				c4.9,3.1,11.3,5,18.2,5c6.9,0,13.3-1.9,18.2-5c0.2-1.1,0.3-2.3,0.3-3.4C43.4,33.2,39.4,25.9,33.6,22.3z"/>
		</g>
		<g>
			<ellipse class="st5" cx="25.6" cy="10.6" rx="8.6" ry="10.6"/>
		</g>
	</g>
</g>
</svg>
