<?xml version="1.0" encoding="utf-8"?>
<!-- Generator: Adobe Illustrator 21.1.0, SVG Export Plug-In . SVG Version: 6.00 Build 0)  -->
<svg version="1.1" id="レイヤー_1" xmlns="http://www.w3.org/2000/svg" xmlns:xlink="http://www.w3.org/1999/xlink" x="0px"
	 y="0px" viewBox="0 0 120 120" style="enable-background:new 0 0 120 120;" xml:space="preserve">
<style type="text/css">
	.st0{fill:url(#XMLID_2_);}
	.st1{fill:url(#XMLID_3_);}
	.st2{fill:url(#XMLID_4_);}
	.st3{fill:url(#XMLID_5_);}
	.st4{fill:url(#XMLID_6_);}
	.st5{fill:url(#XMLID_7_);}
	.st6{fill:url(#XMLID_10_);}
	.st7{fill:url(#XMLID_14_);}
	.st8{fill:url(#XMLID_15_);}
	.st9{fill:url(#XMLID_16_);}
	.st10{fill:url(#XMLID_22_);}
	.st11{fill:url(#XMLID_23_);}
	.st12{fill:url(#XMLID_24_);}
	.st13{fill:url(#XMLID_25_);}
	.st14{fill:url(#XMLID_26_);}
	.st15{fill:url(#XMLID_27_);}
	.st16{fill:url(#XMLID_28_);}
	.st17{fill:url(#XMLID_29_);}
	.st18{fill:url(#XMLID_31_);}
	.st19{fill:url(#XMLID_32_);}
	.st20{fill:url(#XMLID_33_);}
	.st21{fill:url(#XMLID_39_);}
	.st22{fill:url(#XMLID_42_);}
	.st23{fill:url(#XMLID_43_);}
	.st24{fill:url(#XMLID_44_);}
	.st25{fill:url(#XMLID_45_);}
	.st26{fill:url(#XMLID_46_);}
	.st27{fill:url(#XMLID_47_);}
	.st28{fill:url(#XMLID_48_);}
	.st29{fill:url(#XMLID_49_);}
	.st30{fill:url(#XMLID_50_);}
	.st31{fill:url(#XMLID_51_);}
	.st32{fill:url(#XMLID_52_);}
	.st33{fill:url(#XMLID_53_);}
	.st34{fill:url(#XMLID_54_);}
	.st35{fill:url(#XMLID_55_);}
	.st36{fill:#FFFFFF;}
</style>
<g id="XMLID_406_">
	
		<linearGradient id="XMLID_2_" gradientUnits="userSpaceOnUse" x1="-535.1176" y1="-360.9688" x2="-534.8151" y2="-360.9688" gradientTransform="matrix(67.6231 383.5098 383.5098 -67.6231 174667.5312 180819.75)">
		<stop  offset="0" style="stop-color:#FFFFFF"/>
		<stop  offset="0.1892" style="stop-color:#FFFFFF"/>
		<stop  offset="0.3572" style="stop-color:#FFFFFF"/>
		<stop  offset="0.5707" style="stop-color:#FFFFFF"/>
		<stop  offset="0.6711" style="stop-color:#FFFFFF"/>
		<stop  offset="0.9357" style="stop-color:#FFFFFF"/>
		<stop  offset="0.9775" style="stop-color:#FFFFFF"/>
		<stop  offset="0.9988" style="stop-color:#FFFFFF"/>
		<stop  offset="1" style="stop-color:#FFFFFF"/>
	</linearGradient>
	<path id="XMLID_193_" class="st0" d="M119.2,83.7c-0.2,0-0.7,0-1.4,0.1l-2.3,0.2c0,0.6,0.3,1,0.7,1.2c0.3,0.2,0.7,0.2,1.2,0.2
		c0.2,0,0.4,0,0.6,0c1.2-0.1,1.8-0.5,1.7-1.3c0-0.2-0.1-0.4-0.3-0.4C119.3,83.7,119.2,83.7,119.2,83.7 M3.5,76.1
		c-0.5,0-0.9,0-1.2,0.1c-0.6,0.1-1,0.4-1,0.9c-0.1,0.5,0.2,0.9,1,1.4c0.7,0.4,1.8,0.8,3.1,1c1,0.2,1.8,0.3,2.5,0.3
		c0.8,0,1.4-0.1,1.9-0.3c0.4-0.1,0.7-0.4,0.8-0.8c0.1-0.5-0.1-0.9-0.7-1.1c-0.8-0.5-2-0.8-3.5-1.1C5.3,76.2,4.3,76.1,3.5,76.1
		 M115.1,68.3c-0.8,0-1.8,0.2-3,0.6c-1.9,0.6-3.2,1.3-4,2.1c-0.3,0.3-0.4,0.7-0.3,1.1c0.1,0.5,0.5,0.7,1.1,0.7c0,0,0.1,0,0.1,0
		c0.9,0,2.1-0.2,3.5-0.7c1.8-0.6,3-1.1,3.7-1.7c0.5-0.4,0.6-0.8,0.5-1.3c-0.1-0.5-0.7-0.7-1.5-0.8C115.2,68.3,115.1,68.3,115.1,68.3
		 M45.5,61.9c-1.8,1.3-3.3,2.9-4.6,4.5C42.9,65.3,44.6,63.8,45.5,61.9 M52.2,58.1c-1.9,0.8-3.7,1.7-5.3,2.8c-0.8,3.6-3.9,6.4-7.6,8
		c-0.4,0.8-0.8,1.6-1.1,2.5c-0.7,2.1-0.8,4.7-0.2,7.2c1.5-1.7,2.8-3.6,4-5.3C45.2,68.1,48.5,62.5,52.2,58.1 M10.1,54.4
		c-0.5,0-0.8,0.2-1,0.5c-0.2,0.4-0.1,1,0.5,1.6c0.6,0.7,1.4,1.3,2.6,2c1.7,1,3.1,1.5,4.2,1.5c0,0,0,0,0,0c0.4,0,0.8-0.2,1-0.5
		c0.2-0.4,0.1-0.9-0.3-1.3c-0.6-0.7-1.6-1.4-2.9-2.2c-1.6-0.9-2.9-1.4-3.8-1.6C10.3,54.4,10.2,54.4,10.1,54.4 M22.1,39.3
		c-0.2,0-0.5,0.1-0.7,0.3c-0.4,0.3-0.4,0.9-0.1,1.7c0.3,0.8,0.9,1.7,1.8,2.7c1.3,1.5,2.5,2.4,3.5,2.8c0.2,0.1,0.3,0.1,0.5,0.1
		c0.2,0,0.5-0.1,0.7-0.3c0.4-0.3,0.4-0.8,0.2-1.3c-0.4-0.9-1.1-1.9-2.1-3c-1.2-1.4-2.3-2.3-3.1-2.7C22.6,39.4,22.3,39.3,22.1,39.3
		 M92,35.7C92,35.7,92,35.7,92,35.7c-0.2,0-0.3,0.2-0.5,0.4L87.4,42c-0.4,0.5-0.5,0.8-0.5,0.9c0,0.1,0.1,0.3,0.4,0.5
		c0.3,0.2,0.6,0.3,1,0.3c1,0,2.2-0.9,3.5-2.8c0.9-1.3,1.4-2.3,1.5-3.1c0.1-0.8-0.1-1.4-0.8-1.8C92.3,35.8,92.1,35.7,92,35.7
		 M30.8,33.1c-0.1,0-0.2,0-0.4,0.1c-0.3,0.2-0.4,0.3-0.3,0.5c0.1,0.2,0.6,0.6,1.4,1.2c-0.2-1-0.3-1.6-0.4-1.7
		C31,33.1,30.9,33.1,30.8,33.1 M84.4,31.2c-0.2,0-0.4,0.1-0.5,0.4l-1.6,3.3c0.3,0.1,0.5,0.2,0.6,0.2c0.1,0,0.2,0,0.2,0
		c0.1,0,0.3,0,0.4-0.1c0.4-0.2,0.8-0.7,1.2-1.5c0.6-1.2,0.6-2,0-2.3C84.6,31.2,84.5,31.2,84.4,31.2 M77,28.1c-0.4,0-0.8,0.3-1.2,0.8
		c-0.5,0.7-1,1.7-1.4,3c-0.6,1.9-0.8,3.4-0.6,4.4c0.1,0.5,0.3,0.7,0.7,0.9c0.1,0,0.2,0,0.3,0c0.3,0,0.6-0.2,0.9-0.6
		c0.6-0.8,1.1-1.9,1.5-3.3c0.6-1.8,0.8-3.1,0.7-4.1c0-0.6-0.3-1-0.8-1.1C77.2,28.1,77.1,28.1,77,28.1 M45.2,27.3c-0.1,0-0.2,0-0.3,0
		c-0.2,0.1-0.4,0.2-0.4,0.4c0,0.1,0.1,0.6,0.3,1.5l0.5,2.2c0.6-0.1,0.9-0.4,1.1-0.8c0.2-0.4,0.1-1-0.1-1.8
		C46.2,27.8,45.8,27.3,45.2,27.3 M53.3,94.4c5.2,0,10.4-0.8,15.1-2.8c1,4.4,2.5,8.5,4.2,12.2c-0.3,0.2-0.5,0.3-0.8,0.4l-0.1,0
		c-0.2-0.1-0.5-0.3-0.7-0.5c-0.4-0.4-0.9-0.6-1.4-0.6c-0.3,0-0.6,0.1-0.8,0.3c-0.6,0.6,0,1.3,0,1.4c0,0,0,0-0.1,0
		c-0.2,0-0.6-0.1-1-0.8c-0.4-0.8-0.7-1.3-1.3-1.3c-0.1,0-0.2,0-0.3,0.1c-0.6,0.2-0.7,0.9-0.6,1.3c0,0.1,0,0.1-0.1,0.1c0,0,0,0-0.1,0
		c-0.2-0.2-0.5-0.5-0.6-1.1c-0.1-0.9-0.3-1.5-1-1.5c-0.1,0-0.2,0-0.3,0c-0.8,0.2-1,0.9-0.8,1.6c0,0.1,0,0.1-0.1,0.1c0,0,0,0,0,0
		c-0.2-0.1-0.5-0.3-0.5-1c0.1-1,0.7-1.6-0.2-2c-0.2-0.1-0.4-0.1-0.5-0.1c-0.5,0-0.8,0.5-0.9,0.9c0,0,0,0.1-0.1,0.1
		c0,0-0.1,0-0.1-0.1c-0.1-0.5-0.2-0.9-0.2-1.4c0,0,0-0.1,0.1-0.1c3.1-1,2.5-4.8-0.2-4.8c-0.3,0-0.6,0-1,0.1
		c-2.7,0.8-2.9,3.9-1.8,6.1c0,0.1,0,0.2-0.1,0.2c0,0,0,0,0,0c-0.1,0-0.2,0-0.3,0c-0.7,0-1.4,0.3-1.5,1.2c-0.1,1.3,1.3,0.9,2.4,1.1
		c1,0.2,2.4,0.8,3.8,1.3c1.7,0.7,3.6,1,5.5,1c2.1,0,4.2-0.4,6.2-1c4.2,9,9.1,15.2,9.1,15.2h-8.5c-3-5.6-7.3-10.9-14-10.9
		c-6.8,0-11,5.3-14,10.9l-8.5,0c0-0.1,9-11.3,13.1-25.7C51.2,94.3,52.2,94.4,53.3,94.4 M2.7,88.2C2.6,88.2,2.6,88.2,2.7,88.2
		c-0.1,0-0.4,0-0.8-0.1C1,88,0.3,87.9,0,87.9l0-0.2l0.1-0.8c0,0,0-0.3,0.1-0.8c0-0.5,0.1-1.1,0.2-1.8c0-0.4,0.1-0.8,0.1-1.1
		c0-0.3,0-0.6,0.1-0.9c0-0.2,0-0.4,0-0.5c0.3,0,0.7,0,1.1,0c0.4,0,0.8,0,1.2,0c0.1,0,0.2,0,0.2,0c0,0,0.1,0,0.1,0
		c0.1,0,0.1,0,0.1,0.1C3.1,81.9,3,82,2.6,82c-0.7,0.1-1.2,0.2-1.5,0.4c-0.3,0.2-0.4,0.6-0.5,1.1c0,0.2,0,0.4,0,0.5l8.5,0.6
		c0,0,0,0,0.1,0c0.2,0,0.3,0,0.4-0.1c0.1-0.1,0.1-0.3,0.2-0.8c0-0.1,0.1-0.1,0.1-0.1c0,0,0,0,0,0c0.1,0,0.1,0.1,0.1,0.2
		c0,0,0,0.1,0,0.2c0,0.1,0,0.2,0,0.3l-0.1,1.1l-0.1,1.9c0,0.1,0,0.1-0.1,0.1c0,0,0,0,0,0c-0.1,0-0.1,0-0.1-0.1c0,0,0-0.1,0-0.4
		c0-0.4-0.1-0.6-0.3-0.7c-0.1,0-1.1-0.1-2.8-0.2l-5.9-0.4c0,0.1,0,0.2,0,0.3c0,0.6,0.1,1,0.3,1.3c0.3,0.3,0.7,0.5,1.4,0.6
		c0.4,0.1,0.6,0.2,0.6,0.2C2.8,88.2,2.7,88.2,2.7,88.2 M110.7,82.8c0.1,0,0.3,0,0.5,0l7.2-0.7c0.5,0,0.8-0.1,0.9-0.1
		c0.1,0,0.2-0.1,0.2-0.2c0-0.1,0.1-0.3,0-0.5c0-0.2,0-0.2,0.1-0.3c0,0,0,0,0,0c0.1,0,0.1,0,0.1,0.1c0,0.1,0,0.2,0.1,0.5l0,0.2
		c0,0.1,0,0.3,0,0.4l0,0.4c0,0,0,0.1,0,0.2c0,0.1,0,0.3,0,0.4l0.1,0.6c0.1,1,0.1,1.7-0.1,2.1c-0.1,0.3-0.4,0.6-0.7,0.8
		c-0.3,0.2-0.7,0.3-1,0.4c-0.1,0-0.2,0-0.3,0c-0.8,0-1.4-0.3-1.8-0.9c-0.2-0.3-0.4-0.8-0.5-1.4l-0.1,0c0,0.8-0.2,1.4-0.6,1.8
		c-0.4,0.4-1.2,0.7-2.2,0.8c-0.8,0.1-1.3,0.3-1.5,0.4c-0.2,0.1-0.3,0.3-0.3,0.4c0,0.1,0,0.2,0.1,0.2c0,0,0,0,0,0c0,0,0.1,0,0.1-0.1
		c0.1-0.1,0.1-0.1,0.3-0.2c0,0,0,0,0.1,0c0.2,0,0.3,0.1,0.3,0.3c0,0.2-0.1,0.3-0.4,0.4c0,0-0.1,0-0.1,0c-0.4,0-0.7-0.2-0.7-0.7
		c-0.1-0.7,0.2-1.2,0.7-1.7c0.4-0.3,0.8-0.6,1.3-0.7l1.1-0.2c0.7-0.1,1.2-0.3,1.5-0.5c0.3-0.2,0.4-0.5,0.3-1l-3.2,0.3
		c-0.7,0.1-1.1,0.1-1.2,0.1c-0.2,0-0.3,0.1-0.3,0.2c-0.1,0.1-0.1,0.3,0,0.6c0,0.2,0,0.3-0.1,0.3c0,0,0,0,0,0c-0.1,0-0.1,0-0.1-0.1
		l-0.1-1.1l0-0.2c0-0.1,0-0.3,0-0.4l-0.1-0.8c0-0.1,0-0.2,0-0.2c0-0.1,0-0.1,0-0.2l0-0.5c0-0.1,0-0.2,0.1-0.2c0,0,0,0,0,0
		c0.1,0,0.1,0.1,0.2,0.4c0,0.2,0.1,0.4,0.3,0.4C110.6,82.8,110.6,82.8,110.7,82.8 M66.6,89.2c-3.3-2-5.4-5.9-2.4-10
		c0.5-0.7,1.1-1.4,1.8-2l0,0.2c0,0.3,0.3,0.5,0.5,0.5c0,0,0,0,0,0l2.6,0c0,0,0,0,0,0c0.3,0,0.6,0.3,0.6,0.6l-0.7,7.8
		c0,0.3-0.3,0.5-0.6,0.5h-0.3c-0.3,0-0.6,0.3-0.6,0.6c0.1,0.3,0.1,0.7,0.2,1C67.3,88.7,67,88.9,66.6,89.2 M6.6,81.5
		c-0.4,0-0.8,0-1.2-0.1c-1.4-0.2-2.5-0.8-3.3-1.6C1.2,78.9,0.9,78,1,77c0.2-1,0.8-1.7,1.8-2.2c0.7-0.3,1.5-0.5,2.3-0.5
		c0.4,0,0.9,0,1.3,0.1c1.4,0.2,2.5,0.8,3.3,1.6c0.8,0.8,1.2,1.7,1,2.7c-0.2,1-0.8,1.7-1.9,2.2C8.2,81.3,7.4,81.5,6.6,81.5
		 M51.3,93.9c-0.3,0-0.7,0-1,0c0.4-1.3,0.7-2.7,1-4c4.2-2.3,7.7-5.5,10.5-9.6c1.4-2.1,2.7-4.3,3.9-6.5l0.2,1.9c-2,2-3.3,4.5-3.6,7.8
		c-0.2,3.1,1.1,5.3,3.2,6.6C61.2,92.7,56.3,93.9,51.3,93.9 M111.7,80.7c-1.4,0-2.2-0.6-2.5-1.9c-0.2-0.8,0-1.5,0.6-2.1
		c0.4-0.4,1.2-0.8,2.5-1l5.3-1c0.3-0.1,0.5-0.1,0.5-0.2c0.1-0.1,0.1-0.3,0-0.7c0-0.1,0-0.1,0.1-0.1c0,0,0,0,0,0
		c0.1,0,0.1,0.1,0.1,0.2l0,0.1c0,0.1,0,0.1,0,0.2l0.1,0.7c0.1,0.6,0.2,1.1,0.3,1.4c0.1,0.3,0.1,0.5,0.1,0.5s0,0,0,0l0,0c0,0,0,0,0,0
		l0,0.2c0,0.1,0,0.2-0.1,0.2c0,0,0,0,0,0c-0.1,0-0.1-0.1-0.2-0.3c-0.1-0.3-0.2-0.5-0.3-0.5c0,0,0,0,0,0c-0.1,0-0.2,0-0.3,0l-5.1,1
		c-0.7,0.1-1.2,0.2-1.4,0.3c-0.6,0.2-1,0.4-1.2,0.6c-0.3,0.3-0.4,0.7-0.3,1.1c0.1,0.5,0.4,0.8,0.8,1c0.2,0.1,0.5,0.1,0.9,0.1
		c0.5,0,1.1-0.1,1.8-0.2l4.5-0.9c0.1,0,0.2,0,0.3-0.1c0.1,0,0.2,0,0.2,0c0.2,0,0.4-0.1,0.4-0.2c0-0.1,0-0.2,0-0.4
		c0-0.3,0-0.4,0.1-0.4c0,0,0,0,0,0c0.1,0,0.1,0,0.1,0.1c0,0.1,0,0.3,0.1,0.5c0,0.2,0.1,0.4,0.1,0.5c0,0,0,0.1,0.1,0.2
		c0,0.1,0,0.2,0.1,0.3l0.1,0.3c0,0.2,0,0.3-0.1,0.4c0,0,0,0,0,0c-0.1,0-0.1-0.1-0.2-0.3c-0.1-0.3-0.2-0.5-0.3-0.5c0,0,0,0-0.1,0
		c0,0-0.1,0-0.2,0l-5.8,1.1C112.4,80.7,112,80.7,111.7,80.7 M111.3,74.2c-0.6,0-1.1-0.1-1.6-0.2c-1.1-0.4-1.8-1-2.1-1.9
		c-0.3-0.9-0.1-1.9,0.6-2.8c0.7-1,1.7-1.6,3.1-2.1c0.7-0.2,1.4-0.3,2.1-0.3c0.6,0,1.1,0.1,1.6,0.3c1.1,0.4,1.8,1,2.1,2
		c0.3,0.9,0.1,1.9-0.6,2.8c-0.7,0.9-1.7,1.6-3.1,2C112.6,74.1,111.9,74.2,111.3,74.2 M54.1,67.8c-0.6-0.7-1.1-1.1-1.1-1.3
		c0-0.1,0.1-0.1,0.2-0.1c0.2,0,0.6,0.1,1,0.3L54.1,67.8 M3.5,68.2C3.5,68.2,3.5,68.2,3.5,68.2c-0.1,0-0.1-0.1-0.1-0.3l0.1-0.5
		c0,0,0,0,0-0.1c0-0.1,0-0.1,0-0.2L4,66.1C4,66,4,66,4.1,66c0,0,0,0,0,0c0.1,0,0.1,0.1,0.1,0.2c-0.1,0.3-0.1,0.4-0.1,0.5
		c0,0.1,0.1,0.3,0.2,0.4C5,68.1,5.8,69,6.6,70c0.2-0.1,0.9-0.2,2-0.5c0.7-0.2,1.8-0.5,3.2-0.8c0.6-0.2,1-0.3,1.1-0.3
		c0.1-0.1,0.2-0.2,0.3-0.4c0.1-0.2,0.1-0.3,0.2-0.3c0,0,0,0,0,0c0.1,0,0.1,0.2,0,0.4c-0.1,0.2-0.2,0.5-0.3,1
		c-0.1,0.3-0.2,0.5-0.2,0.6l-0.2,0.6l-0.1,0.5c0,0.1-0.1,0.2-0.2,0.2c0,0,0,0,0,0c-0.1,0-0.1,0-0.1-0.1c0,0,0-0.2,0.1-0.4
		c0-0.1,0-0.2-0.1-0.2c0,0,0,0,0,0c-0.1,0-0.5,0.1-1.2,0.3l-3.2,0.7c-0.1,0.1-0.3,0.1-0.3,0.1l3.4,1c0.3,0.1,0.5,0.1,0.7,0.1
		c0,0,0.1,0,0.1,0c0.1,0,0.2-0.2,0.3-0.5c0.1-0.1,0.1-0.2,0.2-0.2c0,0,0,0,0,0c0.1,0,0.1,0.1,0.1,0.2L12,72.7
		c-0.1,0.4-0.3,0.9-0.4,1.3c0,0.1-0.1,0.2-0.1,0.3c0,0.1-0.1,0.3-0.1,0.5l0,0.1c0,0.1-0.1,0.1-0.1,0.1c0,0,0,0,0,0
		c-0.1,0-0.1-0.2,0-0.4c0.1-0.2,0.1-0.4,0-0.5c-0.1-0.1-0.2-0.2-0.6-0.3l-7.7-2.3c-0.1,0-0.1,0-0.2,0c0,0-0.1,0-0.1,0
		c-0.1,0.1-0.1,0.2-0.2,0.4c-0.1,0.2-0.1,0.3-0.2,0.3c0,0,0,0,0,0c-0.1,0-0.1-0.1-0.1-0.2L2.6,71c0,0,0-0.1,0-0.1
		c0-0.1,0-0.1,0.1-0.2L2.8,70l0.1-0.4c0-0.1,0-0.2,0.1-0.3c0-0.1,0.1-0.1,0.1-0.1c0,0,0,0,0,0c0.1,0,0.1,0.1,0,0.3
		c-0.1,0.3-0.1,0.5,0,0.5c0,0.1,0.2,0.1,0.5,0.2l3.5,1C7,71,6.3,70.1,5.1,68.6c-0.6-0.7-0.9-1.1-1.1-1.1c0,0,0,0,0,0
		c0,0-0.1,0-0.1,0.1c0,0.1-0.1,0.2-0.2,0.5C3.6,68.1,3.6,68.2,3.5,68.2 M110.4,60c-0.1,0-0.1,0-0.1,0c0-0.1,0-0.1,0.1-0.2
		c0.1,0,0.3-0.1,0.7-0.3c0.9-0.3,1.4-0.5,1.7-0.7l0.1,0.1l0.3,0.7c0,0,0.1,0.3,0.3,0.7c0.2,0.4,0.4,1,0.7,1.7c0.2,0.4,0.3,0.7,0.5,1
		c0.1,0.3,0.3,0.6,0.4,0.8c0.1,0.2,0.2,0.4,0.2,0.5c-0.5,0.3-1.2,0.6-2,1.1c-0.1,0.1-0.2,0.1-0.3,0.1c0,0,0,0-0.1,0c0,0-0.1,0-0.1,0
		c0-0.1,0.1-0.2,0.4-0.4c0.6-0.4,1-0.8,1.1-1.1c0.1-0.3,0.1-0.7-0.1-1.2c-0.1-0.2-0.2-0.3-0.2-0.5l-7.7,3.5
		c-0.2,0.1-0.3,0.2-0.3,0.3c0,0.1,0,0.4,0.2,0.8c0,0.1,0,0.1-0.1,0.2c0,0,0,0-0.1,0c-0.1,0-0.1,0-0.1-0.1c0,0,0-0.1-0.1-0.2
		c0-0.1-0.1-0.2-0.1-0.3l-0.4-1l-0.8-1.7c0-0.1,0-0.2,0-0.2c0,0,0,0,0.1,0c0,0,0,0,0,0c0,0,0.1,0.1,0.2,0.3c0.2,0.3,0.3,0.5,0.5,0.5
		c0,0,0.1,0,0.1,0c0.1,0,1-0.4,2.6-1.1l5.4-2.4c0-0.1-0.1-0.2-0.1-0.3c-0.2-0.5-0.5-0.9-0.9-1c-0.1,0-0.3-0.1-0.5-0.1
		c-0.3,0-0.6,0.1-1.1,0.2C110.6,60,110.5,60,110.4,60 M6.3,60.5C6.3,60.5,6.3,60.5,6.3,60.5c-0.1,0-0.1-0.1-0.1-0.3L6.4,60
		c0.1-0.2,0.2-0.5,0.4-0.9l0.2-0.4c0.1-0.1,0.1-0.2,0.2-0.2c0,0,0,0,0,0c0.1,0,0.1,0.1,0,0.2c-0.1,0.4-0.2,0.7-0.1,0.8
		c0,0.1,0.5,0.6,1.6,1.6c0.2,0.2,0.6,0.5,1,0.9c0.5,0.5,0.8,0.8,1,0.9c0.2,0.1,0.5,0.3,1,0.5l2.6,1.1c0.1,0,0.1,0,0.2,0
		c0.1,0,0.1,0,0.2-0.1c0.1-0.1,0.2-0.3,0.3-0.5c0.1-0.1,0.1-0.2,0.2-0.2c0,0,0,0,0,0c0.1,0,0.1,0.1,0,0.2c0,0,0,0.1-0.1,0.2
		c-0.1,0.2-0.2,0.4-0.3,0.6l-0.4,0.8c0,0,0,0.1-0.1,0.3c-0.1,0.2-0.1,0.4-0.2,0.5L13.9,67c0,0.1-0.1,0.1-0.1,0.1c0,0,0,0,0,0
		c-0.1,0-0.1-0.1,0-0.2c0.2-0.5,0.2-0.8,0.2-0.9c0-0.1-0.2-0.2-0.4-0.2l-3-1.3c-0.7-0.1-1.7-0.1-3-0.1c0,0,0,0,0,0
		c-0.3,0-0.7,0-1.1,0c-0.4,0-0.8,0-1.2,0c-0.2,0-0.3,0.2-0.4,0.4l0,0.1c0,0,0,0.1,0,0.1c0,0.1-0.1,0.2-0.2,0.2c0,0,0,0-0.1,0
		c-0.1,0-0.1-0.1,0-0.3l0,0l0,0c0,0,0,0,0,0c0,0,0,0,0.1-0.1c0-0.1,0.1-0.2,0.2-0.4L5,63.3c0,0,0.1-0.1,0.1-0.2
		c0-0.1,0.1-0.3,0.1-0.5L5.5,62c0-0.1,0.1-0.1,0.1-0.2c0-0.1,0-0.1,0-0.1s0,0,0,0c0-0.1,0.1-0.2,0.2-0.2c0,0,0,0,0,0
		c0.1,0,0.1,0,0.1,0.1c0,0,0,0.2-0.1,0.4c-0.1,0.4-0.1,0.6,0.1,0.7c0.1,0.1,0.3,0.1,0.4,0.1c0.2,0,0.6,0,1.5,0.1c0.7,0,1.5,0,2.5,0
		c-0.4-0.4-1-1-2-1.9c-0.7-0.6-1.1-1-1.3-1c-0.1,0-0.1,0-0.2,0c-0.1,0-0.2,0.1-0.3,0.2C6.5,60.4,6.4,60.5,6.3,60.5 M40.6,59.8
		c-0.4,0-0.7-0.2-0.9-0.7C39.1,58,40.2,57,41.4,57c0.1,0,0.2,0,0.4,0c1.3,0.2,3,1.3,2.5,2.3c0,0,0,0-0.1,0c-0.1,0-0.3-0.1-0.6-0.2
		c-0.3-0.1-0.6-0.2-0.9-0.2c-0.2,0-0.4,0-0.6,0.2C41.7,59.4,41.1,59.8,40.6,59.8 M50.9,86.7c-0.3,0-0.5-0.2-0.6-0.5L50.1,84
		c5.2-2.6,7.8-7.4,6.9-13.3c-0.3-2.2-1.8-3.4-2.9-4l0.4-5c1-1.8,2.2-3.6,3.5-5.3c1.4-0.3,2.9-0.4,4.3-0.4c0.6,0,1.2,0,1.8,0.1
		L65,66.5c-2.7,3.1-4.9,6.6-6.9,10c-1.9,3.1-4,7.1-6.7,10.3c0.2,0.1,0.3,0.3,0.3,0.6c-0.1,0.8-0.3,1.7-0.4,2.5c-2.4,1.3-5,2.3-7.8,3
		V93c2.3,0.5,4.6,0.8,6.9,0.9c0,0.1-0.1,0.3-0.1,0.4c-2.8-0.2-5.5-0.5-8.1-1c-0.9,0.1-4.4,0.8-7.3,0.8c-2.2,0-4-0.4-4-1.7
		c0-0.7,1-1,2.5-1c3.1,0,8,1.2,8.9,1.3c3.9-0.6,6.9-2.9,9.3-5.9c-0.1,0-0.2-0.1-0.3-0.1H50.9 M14.5,61.2c-1,0-2-0.3-3-0.9
		c-1.2-0.7-2.1-1.6-2.6-2.6c-0.5-1.1-0.5-2,0-2.9c0.5-0.9,1.3-1.3,2.5-1.4c0.2,0,0.3,0,0.5,0c1,0,2.1,0.3,3.1,0.9
		c1.2,0.7,2.1,1.6,2.6,2.6c0.5,1.1,0.5,2,0,2.9c-0.5,0.8-1.3,1.3-2.5,1.4C14.9,61.2,14.7,61.2,14.5,61.2 M80.5,55.4
		C80.5,55.4,80.5,55.4,80.5,55.4c0.2,0,0.9-0.7,1.4-1.4c0.5-0.7,1-1.6,1.9-1.6c0.1,0,0.2,0,0.3,0c1.3,0.3,0.5,1.9,0.4,2
		c-0.1,0.1-0.1,0.2,0,0.2c0.1,0,0.2,0,0.4-0.1c0.2-0.1,0.9-0.3,1.6-0.3c0.7,0,1.5,0.2,1.9,0.9c0.5,1.1-0.1,1.7-1.1,1.7
		c-0.3,0-0.7-0.1-1.1-0.2c-0.6-0.3-1.5-0.4-2.5-0.4c-0.9,0-1.7,0.1-2.4,0.3c-1.9,0.7-3.4,1.9-5.5,3.5c3,2.5,4.8,5.8,5.6,9.2
		c3.5-0.6,6.9-0.8,9.6-1c0.5,0,1,0,1.4,0c3.7,0,7.4,0.8,9.8,2.3c1.5,1,2.1,2.2,2.6,3.1c0.7,1.1,1.4,3.1,0.2,5.6
		c-1.6,3.6-3.5,5.8-5.7,5.9c-0.1,0-0.1,0-0.2,0c-2.1,0-2.6-1.7-1.5-2.4c1.3-0.8,3.3-0.3,4.1-0.6c0.8-0.3,2.2-1.3,2.9-3.7
		c0.2-0.7,0.6-2.2-0.5-3.9c-0.6-1-1.8-1.3-2.7-1.3c-0.7,0-1.2,0.1-1.5,0.3c-4.9,2.7-6.8,9.6-9.3,13.9c-3.5,6.1-7.4,12.4-13.9,15.9
		c-1.1,0.6-2.3,1.1-3.6,1.5c-0.2-0.3-0.3-0.7-0.5-1c3.7-2.1,6.4-6.1,8.5-9.5c5.8-9.4,12.4-20.3,17.4-21.8c0,0,0.3-0.2,0-0.3
		c-2.6-0.7-4.9-0.9-7.4-0.9c-2.8,0-5.7,0.3-9.3,0.8c0.4,5.6-1.9,11.3-6.4,15.3c-1.5,1.3-3.2,2.5-4.9,3.4c0.4,0.1,0.8,0.1,1.1,0.1
		c0.2,0,0.5,0,0.7,0c5.8-0.6,7-3.6,7-4.2c0-0.6-1.2-0.2-1-1.6c0.1-0.6,0.5-0.9,0.9-0.9c0.6,0,1.3,0.5,1.3,1.3c0,1,0,1.5-0.1,1.8
		c0,0.1,0,0.1,0.1,0.1c0,0,0,0,0.1,0c0.3-0.3,0.9-0.9,1.3-2c0.6-1.7,0.3-2.1,0.2-2.2c0,0,0,0,0,0c0,0-0.1,0-0.2,0
		c-0.1,0-0.2,0-0.4,0c-0.4,0-0.8-0.1-1-0.7c-0.3-0.8,0.5-1.4,1.3-1.4c0.2,0,0.4,0.1,0.6,0.2c0.8,0.5,1.3,1.3,1,4c0,0,0,0.2,0.1,0.2
		c0.1,0,0.2-0.2,0.5-0.8c0.6-1.4,1.2-2.3,0.9-4.2c0-0.1-0.1-0.1-0.1-0.1c0,0,0,0,0,0c-0.2,0.1-0.5,0.1-0.8,0.1
		c-0.3,0-0.6-0.1-0.7-0.4c-0.5-1.4,0.2-1.8,0.9-1.8c0.1,0,0.1,0,0.2,0c0.6,0.1,1.5,0.6,1.7,1.6c0,0.1,0.1,0.1,0.1,0.1
		c0,0,0.1,0,0.1-0.1c0.2-0.4,0.4-1.4,0-3c0,0-0.1-0.1-0.1-0.1c-0.3,0-1.4-0.1-1.4-0.9c0-0.6,0.4-1.2,1-1.2c0.3,0,0.6,0.1,0.9,0.5
		c1,1,0.8,5.8-0.2,8.4c-1.9,5-8.5,7.9-14.3,7.9c-1,0-2-0.1-2.9-0.3c-0.2,0.1-0.4,0.2-0.6,0.3c-0.3-1.1-0.5-2.1-0.7-3.2
		c4.9-4,8.3-9.7,9.3-15.7c-4,0.7-8.2,2.1-11.1,4.6l-0.1-1.6c2.9-2.8,7.1-4.5,11.5-5.6c0-0.5,0-0.9,0-1.4c0-2.6-0.9-5.6-2.8-7.7
		c-3.8,3.8-6.4,8.3-8.9,12.7L65,66.5c2.4-2.7,5.1-5.2,8.5-6.9c-2.7-2.2-5.9-3.3-9.3-3.6l0-0.3c3.8,0.3,7.4,1.4,10.5,3.2
		c0.2-0.1,0.4-0.2,0.6-0.3c0.7-0.5,1.1-1.1,1.6-2.8c0.4-1.4,1.3-2.2,2.2-2.2c0.2,0,0.4,0,0.6,0.1C80.5,54.3,80.3,55.4,80.5,55.4
		 M58.5,55.8c1.5-1.9,3.3-3.5,5.2-4.4l0.4,4.4c-0.9-0.1-1.9-0.1-2.8-0.1C60.4,55.7,59.5,55.7,58.5,55.8 M100.2,55.8
		c0.1,0,0.3-0.1,0.5-0.3l6.8-4.3c0.1-0.1,0.2-0.1,0.2-0.2c0-0.1-0.1-0.2-0.2-0.4c-0.1-0.2-0.1-0.3-0.1-0.3c0,0,0,0,0.1,0
		c0,0,0.1,0,0.1,0.1l0.7,1.1c0,0,0,0,0.1,0.1c0,0.1,0.1,0.1,0.1,0.2l0.4,0.5l0.2,0.4c0,0.1,0.1,0.1,0.1,0.2c0,0.1,0,0.1,0,0.2
		c0,0,0,0,0,0c-0.1,0-0.1-0.1-0.2-0.2c-0.2-0.2-0.3-0.4-0.4-0.4c0,0,0,0,0,0c-0.1,0-0.2,0.1-0.4,0.2l-3.1,2c0.3,0.1,1.4,0.1,3.4,0.2
		c0.2,0,0.4,0,0.5,0c0.6,0,0.9,0,1-0.1c0.1,0,0.1-0.1,0-0.1c0-0.1-0.1-0.2-0.3-0.5c-0.1-0.1,0-0.2,0-0.2c0,0,0,0,0.1,0
		c0.1,0,0.1,0.1,0.2,0.2l0.3,0.4c0,0,0,0,0.1,0.1c0,0.1,0.1,0.1,0.1,0.1l0.6,0.9c0.1,0.1,0,0.2,0,0.2c0,0-0.1,0-0.1,0
		c0,0-0.1,0-0.1-0.1c-0.1-0.2-0.3-0.4-0.4-0.4c-0.1-0.1-0.2-0.1-0.5-0.1c-1.1-0.1-2.3-0.1-3.7-0.2c-0.1,0.2-0.4,0.8-0.9,1.8
		c-0.3,0.7-0.8,1.7-1.4,3c-0.3,0.6-0.5,0.9-0.5,1.1c0,0.1,0,0.3,0.1,0.5c0.1,0.2,0.2,0.3,0.1,0.4c0,0,0,0,0,0
		c-0.1,0-0.2-0.1-0.3-0.3c-0.1-0.2-0.3-0.5-0.5-0.9c-0.2-0.3-0.3-0.5-0.4-0.6l-0.3-0.5l-0.3-0.4c-0.1-0.1-0.1-0.2,0-0.3
		c0,0,0.1,0,0.1,0c0,0,0,0,0,0c0,0,0.1,0.1,0.2,0.3c0,0.1,0.1,0.1,0.1,0.1c0,0,0,0,0.1,0c0,0,0.2-0.4,0.6-1.1l1.5-2.9
		c0.1-0.1,0.1-0.3,0.1-0.3l-3,1.9c-0.4,0.2-0.5,0.4-0.6,0.5c0,0.1,0,0.3,0.2,0.5c0.1,0.2,0.1,0.3,0,0.3c0,0,0,0-0.1,0
		c-0.1,0-0.1,0-0.1-0.1l-0.4-0.6c-0.2-0.4-0.5-0.8-0.8-1.2c0-0.1-0.1-0.2-0.2-0.3c-0.1-0.1-0.2-0.3-0.3-0.4l-0.1-0.1
		c-0.1-0.1-0.1-0.2,0-0.2c0,0,0,0,0,0c0.1,0,0.2,0.1,0.3,0.2C99.9,55.7,100,55.8,100.2,55.8C100.1,55.8,100.1,55.8,100.2,55.8
		 M55.2,54.9l0.4-5c2.2,0.1,4.4,0.2,6.9,0.5v0.1C59.8,51.3,57.4,52.8,55.2,54.9 M63.8,51.4L63.4,47c1.7,0.1,3.4,0.1,5.1,0.2
		c2.1,0.1,14-0.3,14.9,2c0.4,1.1,0,1.5-0.7,1.5c-1,0-2.6-0.8-3.2-1.3c0,0,0.9,2-0.9,2c-0.1,0-0.3,0-0.4,0c-1.2-0.2-1.1-1.6-5.1-1.6
		c-0.2,0-0.4,0-0.6,0c-2.5,0.1-4,0.3-7,1.1C64.9,50.9,64.3,51.1,63.8,51.4 M20.9,63.9c-0.8,0-1.7-0.3-1.5-0.9
		c0.3-0.7,1.5,0.1,2.5-2.1c0.8-1.6,1.2-2.7,1.6-3.4c5-8.6,23.3-10.3,32.2-10.6l-0.2,3c-0.6,0-1.3,0-1.9,0c-3.6,0-7,0.3-11.1,0.7
		C36.6,51.3,28.5,53,24.8,58c-0.1,0.1-0.1,0.2-0.2,0.3c-0.3,1.2-0.2,2.7,0.4,3.1c0.5,0.3,0.9,0.4,1.2,0.4c0.1,0,0.3,0,0.4-0.1
		c0,0,0.1,0,0.1,0c0.3,0,0.4,0.6-0.1,1c-0.4,0.3-1,0.6-1.6,0.6c-0.3,0-0.6-0.1-0.9-0.3c-0.1-0.1-0.2-0.2-0.3-0.2
		c-0.2,0-0.2,0.2-0.2,0.5c1,3.3,5.2,5.4,8.9,5.4c0.3,0,0.5,0,0.7,0c1.1-0.1,2.2-0.3,3.2-0.5c2.2-3.7,5.7-6.6,9.7-8.7
		c0-1.4-0.3-2.7-1.4-2.7c-0.1,0-0.2,0-0.3,0c-0.2,0-0.4,0-0.5,0c-1.7,0-2-1.4-1.5-2c0.3-0.5,0.8-0.8,1.6-0.8c0.4,0,0.9,0.1,1.5,0.4
		c1.7,0.7,1.8,1.9,1.8,1.9c0.3-0.3,0.7-0.4,1-0.4c0.6,0,1,0.4,1,0.9c0,0.9-1,0.6-1.5,0.8c-0.3,0.1-0.5,0.6-0.6,1.4
		c2-1,4.1-1.7,6.3-2.2c0.5-0.6,1.1-1.2,1.7-1.7l-0.6,6.7c-1,1.7-1.9,3.4-2.7,4.7c-3.3,5.6-7,11.4-12.8,15c1.2,2,3.1,3.5,6,3.5
		c0.4,0,0.9,0,1.4-0.1c1.4-0.2,2.6-0.7,3.6-1.3l-0.5-5c0-0.3,0.2-0.6,0.6-0.6c0,0,0,0,0,0l2.6,0c0,0,0,0,0,0c0.3,0,0.5-0.2,0.5-0.5
		l0.8-9.6c0.7,0.8,1.4,1.9,1.5,3.3c0.4,3.6-1.1,9.6-5.5,12.3l0,0.5c-1.2,0.6-2.5,1.1-4,1.4c-1.1,0.3-2.1,0.4-3,0.4
		c-2.9,0-5.2-1.2-6.8-3c-2.8,1.2-6.7,2.1-10.4,2.1c-4,0-7.7-1-9.9-3.8c-1.6-2.1-1.8-6,1.4-6.9c0.3-0.1,0.6-0.1,0.9-0.1
		c2.8,0,3.4,4,0,5c0,0.3,0.1,0.6,0.1,0.9c0.2,0.4,0.3,0.5,0.4,0.5c0.1,0,0.2-0.2,0.3-0.4c0.2-0.3,0.5-0.7,1.1-0.7
		c0.2,0,0.4,0.1,0.6,0.2c0.8,0.5,0.6,2.3,0.8,2.6c0,0,0,0,0,0c0.1,0,0.1-0.3,0.2-0.5c0.1-0.3,0.2-0.5,0.6-0.5c0.1,0,0.2,0,0.3,0.1
		c1.1,0.4,0.9,1.7,1.2,2.1c0,0,0.1,0.1,0.1,0.1c0.1,0,0.1-0.2,0.2-0.4c0.1-0.2,0.2-0.4,0.5-0.4c0.1,0,0.2,0,0.3,0.1
		c0.8,0.3,1,1.7,3.2,1.7c0.9-0.1,1.8-0.3,2.6-0.6c1.6-0.5,3.1-1.4,4.5-2.4c-1.2-2.3-1.6-5.1-0.9-7.9c0.3-1.1,0.7-2.1,1.1-3.1
		c-1.1,0.2-2.3,0.3-3.4,0.3c-4.9,0-9.3-2.2-9.6-7.4c-0.1,0.1-0.3,0.7-0.9,0.9C21.3,63.9,21.1,63.9,20.9,63.9 M99.1,55.1
		C99.1,55.1,99.1,55.1,99.1,55.1c-0.1,0,0-0.1,0-0.2c0.2-0.3,0.2-0.6,0.2-0.8c-0.8,0-1.4-0.3-1.8-0.8c-0.6-0.7-0.8-1.7-0.6-2.8
		c0.2-1.2,0.9-2.3,2.1-3.2c1.1-0.9,2.2-1.4,3.4-1.5c0.1,0,0.2,0,0.3,0c1,0,1.8,0.4,2.4,1.1c0.3,0.4,0.5,0.8,0.5,1.3
		c0,0.3,0.1,0.4,0.1,0.5c0.1,0.1,0.2,0.2,0.4,0.2c0,0,0,0,0.1,0c0.1,0,0.1,0,0.2,0c0.1,0,0.1,0,0.1,0c0,0,0,0.1,0,0.1
		c0,0-0.1,0-0.1,0.1c-0.3,0.2-0.6,0.4-0.9,0.7c0,0-0.2,0.2-0.4,0.4c-0.2,0.2-0.4,0.3-0.5,0.4l-0.2,0.2c-0.1,0.1-0.2,0.1-0.2,0.1
		c0,0,0,0-0.1,0c0,0,0.1-0.2,0.3-0.5c1.1-1.3,1.4-2.3,0.8-3c-0.2-0.3-0.6-0.4-1-0.4c-0.4,0-0.9,0.1-1.4,0.4
		c-0.8,0.4-1.6,0.9-2.5,1.7c-1.3,1.1-2.1,2.1-2.4,3.1c-0.1,0.5-0.1,0.9,0.2,1.3c0.3,0.4,0.7,0.6,1.2,0.6c0.6,0,1.3-0.2,2.1-0.7
		c0.2-0.1,0.3-0.2,0.4-0.2c0,0,0,0,0.1,0c0,0.1,0,0.1-0.1,0.2l-0.2,0.1c0,0-0.3,0.2-0.7,0.5c-0.3,0.2-0.6,0.4-0.8,0.6
		c-0.2,0.2-0.4,0.3-0.5,0.5c0,0-0.1,0.1-0.2,0.2C99.2,55.1,99.1,55.1,99.1,55.1 M15.8,49.5c0,0-0.1,0-0.1-0.1
		c-0.1,0-0.2-0.2-0.6-0.5c-0.7-0.6-1.1-1.1-1.4-1.3l0.1-0.1l0.5-0.6c0,0,0.2-0.2,0.5-0.6c0.3-0.4,0.7-0.8,1.2-1.4
		c0.3-0.3,0.5-0.6,0.7-0.9c0.2-0.3,0.4-0.5,0.6-0.7c0.2-0.2,0.3-0.3,0.3-0.4c0.5,0.4,1.1,0.8,1.9,1.4c0.1,0.1,0.2,0.1,0.2,0.2
		c0.1,0,0.1,0.1,0,0.1c0,0,0,0-0.1,0c-0.1,0-0.3-0.1-0.5-0.2c-0.6-0.3-1.1-0.5-1.4-0.5c0,0,0,0,0,0c-0.3,0-0.7,0.2-1,0.6
		c-0.1,0.1-0.2,0.3-0.3,0.4l6.5,5.5c0.2,0.1,0.3,0.2,0.4,0.2c0,0,0,0,0.1,0c0.1,0,0.3-0.2,0.6-0.5c0,0,0.1,0,0.1,0c0,0,0.1,0,0.1,0
		c0.1,0.1,0.1,0.1,0,0.2c0,0-0.1,0.1-0.1,0.1c-0.1,0.1-0.1,0.1-0.2,0.2l-0.8,0.8L22,52.9c0,0-0.1,0.1-0.1,0.1c0,0,0,0-0.1,0
		c0,0-0.1-0.1,0-0.1c0,0,0.1-0.1,0.2-0.3c0.2-0.3,0.3-0.6,0.1-0.7c-0.1-0.1-0.8-0.7-2.1-1.9l-4.5-3.8c-0.1,0.1-0.1,0.1-0.2,0.2
		c-0.4,0.4-0.5,0.9-0.5,1.2c0,0.4,0.3,0.8,0.8,1.3C15.8,49.2,15.9,49.4,15.8,49.5C15.8,49.4,15.8,49.5,15.8,49.5 M91.4,46.2
		c0.1,0,0.2,0,0.2-0.1c0.1-0.1,0.2-0.2,0.3-0.3l4.8-5.2c0.4-0.4,0.6-0.6,0.6-0.7c0.1-0.1,0.1-0.2,0.1-0.3c0-0.1-0.1-0.2-0.2-0.3
		c-0.2-0.2-0.2-0.3-0.2-0.3c0,0,0,0,0.1,0c0.1,0,0.1,0,0.2,0.1c0.1,0.1,0.4,0.3,0.6,0.6c1,0.9,1.8,1.6,2.4,2.2l0.5,0.5
		c0.1,0.1,0.3,0.2,0.5,0.4l-1,1.2c-0.3,0.4-0.5,0.6-0.6,0.7c0,0-0.1,0.1-0.1,0.1c0,0,0,0-0.1,0c-0.1,0,0-0.2,0.1-0.4
		c0.4-0.5,0.6-1,0.5-1.4c0-0.4-0.3-0.9-0.8-1.3c-0.1-0.1-0.4-0.4-0.8-0.7l-2.8,3c0.6,0.6,1,0.8,1.3,0.9c0,0,0,0,0.1,0
		c0.3,0,0.6-0.2,1.1-0.6c0.2-0.2,0.4-0.3,0.4-0.3c0,0,0,0,0,0c0,0,0,0.1-0.1,0.3c-0.1,0.1-0.4,0.4-0.7,0.7c-0.1,0.1-0.3,0.3-0.5,0.5
		c-0.5,0.6-1,1-1.2,1.3c0,0-0.1,0.1-0.1,0.2c0,0.1-0.1,0.1-0.1,0.1c0,0,0,0-0.1,0c0,0,0-0.1,0-0.1c0,0,0.1-0.2,0.3-0.4
		c0.4-0.5,0.6-0.9,0.6-1.1c0-0.2-0.1-0.5-0.5-0.8l-0.5-0.5l-3.2,3.4l0.5,0.5c0.6,0.5,1,0.8,1.1,0.9c0.2,0.1,0.4,0.2,0.7,0.2
		c0.3,0,0.5-0.1,0.7-0.2c0.2-0.1,0.5-0.3,1-0.7c0.1-0.1,0.1-0.1,0.2-0.1c0,0,0,0,0,0c0,0,0,0.1-0.1,0.2c0,0-0.3,0.3-0.9,0.9
		c-0.3,0.3-0.5,0.6-0.7,0.7C95,50.1,95,50.2,95,50.2c0,0,0,0,0,0c-1.3-1.4-2.5-2.6-3.6-3.5l-0.7-0.6c-0.1-0.1-0.1-0.2-0.1-0.2
		c0,0,0,0,0.1,0c0,0,0,0,0,0c0,0,0.1,0.1,0.3,0.2C91.1,46.2,91.3,46.2,91.4,46.2 M26,47.5c-0.3,0-0.6,0-1-0.1
		c-1.2-0.3-2.2-0.9-3.1-2c-0.9-1.1-1.5-2.2-1.6-3.3c-0.1-1.2,0.2-2.1,1-2.8c0.5-0.5,1.1-0.7,1.8-0.7c0.3,0,0.6,0,0.9,0.1
		c1.1,0.3,2.2,0.9,3.1,2c0.9,1,1.5,2.1,1.6,3.3c0.1,1.2-0.2,2.1-0.9,2.7C27.4,47.3,26.8,47.5,26,47.5 M85.3,41.8c0.1,0,0.1,0,0.1,0
		c0.1,0,0.2-0.3,0.5-0.7l4.1-5.8c0.2-0.3,0.4-0.6,0.4-0.7c0-0.2-0.1-0.3-0.3-0.5C90,34.1,89.9,34,90,33.9c0,0,0.1-0.1,0.1-0.1
		c0,0,0.1,0,0.1,0l0.2,0.1c0.4,0.3,0.7,0.5,1,0.7c0.5,0.3,0.8,0.6,1.1,0.8c1.1,0.8,1.7,1.6,1.9,2.6c0.2,1.2-0.1,2.5-1,3.8
		c-0.6,0.9-1.3,1.5-2,1.9c-0.6,0.3-1.2,0.5-1.9,0.5c-0.2,0-0.4,0-0.6,0c-0.6-0.1-1.3-0.4-2.1-1c0,0-0.1-0.1-0.2-0.1
		c-0.1-0.1-0.3-0.2-0.5-0.4l-0.3-0.2c0,0-0.2-0.1-0.6-0.4l-0.6-0.4c-0.1-0.1-0.1-0.1-0.1-0.2c0,0,0,0,0.1,0c0.1,0,0.1,0,0.2,0.1
		C85,41.8,85.2,41.8,85.3,41.8 M32.4,32C32.3,32,32.3,32,32.4,32c-0.1-0.1-0.1-0.2,0-0.2l0.7-0.4c0.3-0.2,0.6-0.3,0.7-0.4l0.1,0
		c0,0,0,0,0.1,0c0,0,0.1,0,0.1,0.1c0,0.1,0,0.1-0.1,0.2c-0.3,0.2-0.4,0.3-0.5,0.4c0,0.1,0,0.4,0.1,0.8c0.1,0.2,0.1,0.5,0.3,1
		c0.1,0.4,0.3,0.9,0.5,1.7c0.1,0.4,0.2,0.9,0.4,1.6l0.5,1.9c0.4,1.3,0.6,2.1,0.7,2.3c0,0.1,0,0.2,0,0.2c0,0,0,0,0,0
		c0,0-0.1,0-0.1-0.1c-0.1-0.1-0.3-0.3-0.7-0.7c-0.5-0.5-1.2-1.2-2.1-1.9l-0.9-0.8c0.4,2.1,0.8,3.7,1.1,4.9c0,0.1,0,0.2,0,0.2
		c0,0,0,0,0,0c0,0-0.2-0.2-0.6-0.5L29.2,39c-0.9-0.8-1.9-1.7-3.1-2.8c-0.1-0.1-0.2-0.1-0.3-0.1c0,0,0,0-0.1,0
		c-0.1,0-0.2,0.1-0.3,0.2c-0.1,0.1-0.2,0.1-0.2,0.1c0,0-0.1,0-0.1,0c0-0.1,0-0.1,0.1-0.2l0,0c0,0,0.1-0.1,0.3-0.2
		c0.2-0.1,0.4-0.2,0.6-0.3l0.4-0.2l0.9-0.6c0,0,0.1-0.1,0.2-0.1c0.1,0,0.1-0.1,0.1-0.1c0,0,0.1,0,0.1,0c0,0,0.1,0,0.1,0.1
		c0,0.1,0,0.2-0.2,0.3c-0.1,0.1-0.1,0.1-0.1,0.2l0.1,0.1c0.4,0.4,1.1,1,1.9,1.8l2.9,2.6l-0.5-2.3c-0.3-0.3-0.9-0.8-1.7-1.6
		c-0.1-0.1-0.3-0.3-0.6-0.5c-0.1-0.1-0.2-0.2-0.3-0.3c-0.3-0.3-0.5-0.5-0.7-0.5c0,0,0,0-0.1,0c-0.1,0-0.2,0.1-0.4,0.2c0,0,0,0-0.1,0
		c0,0-0.1,0-0.1-0.1c0-0.1,0-0.1,0.1-0.2l0,0l0,0c0,0,0,0,0,0s0,0,0.1-0.1c0.1-0.1,0.2-0.1,0.4-0.3l3.2-2c0.1,0,0.1-0.1,0.1-0.1
		c0,0,0.1,0,0.1,0.1c0,0.1,0,0.1-0.1,0.2c-0.4,0.3-0.6,0.5-0.6,0.7c0,0.3,0.2,1,0.4,2.2c0.6,0.6,1.7,1.5,3.1,2.8
		c-0.1-0.4-0.2-0.8-0.3-1.3c-0.1-0.4-0.3-1.1-0.5-2c-0.2-0.6-0.3-1.1-0.4-1.5c-0.2-0.7-0.3-1.1-0.4-1.2c-0.1-0.1-0.2-0.2-0.3-0.2
		c0,0-0.1,0-0.1,0c-0.1,0-0.2,0.1-0.3,0.2C32.4,32,32.4,32,32.4,32 M78.6,38.5C78.6,38.5,78.6,38.5,78.6,38.5c0.2,0,0.3-0.2,0.4-0.5
		l3.1-6.5c0.3-0.5,0.4-0.9,0.4-1c0-0.1-0.1-0.3-0.4-0.4c-0.2-0.1-0.2-0.2-0.2-0.2c0,0,0.1-0.1,0.1-0.1c0.1,0,0.1,0,0.2,0.1l2.8,1.3
		c0.7,0.3,1.1,0.7,1.4,1.1c0.3,0.6,0.3,1.3,0,2c-0.3,0.7-0.8,1.2-1.5,1.4c-0.3,0.1-0.5,0.2-0.8,0.2c-0.4,0-0.8-0.1-1.2-0.3
		c-0.2-0.1-0.4-0.2-0.7-0.4l-1.5,3.2c-0.2,0.5-0.3,0.7-0.3,0.9c0,0.1,0.2,0.2,0.5,0.4c0.2,0.1,0.3,0.2,0.2,0.2c0,0-0.1,0.1-0.1,0.1
		c0,0-0.1,0-0.1,0l-0.1-0.1c0,0-0.2-0.1-0.5-0.2c-0.3-0.1-0.6-0.3-0.8-0.4l-1.2-0.5c-0.2-0.1-0.3-0.2-0.4-0.2l0-0.1
		c0,0,0-0.1,0.1-0.1c0,0,0.1,0,0.1,0C78.3,38.4,78.5,38.5,78.6,38.5 M35.1,30.7c-0.1,0-0.1,0-0.1-0.1c0-0.1,0-0.2,0.2-0.2
		c0.2-0.1,0.4-0.2,0.8-0.3c1.2-0.5,2.2-0.9,3-1.2l0.7-0.3c0.1-0.1,0.3-0.1,0.5-0.3l0.7,1.4c0.2,0.4,0.3,0.7,0.4,0.8
		c0,0.1,0,0.1-0.1,0.2c0,0,0,0,0,0c-0.1,0-0.1-0.1-0.2-0.3c-0.3-0.6-0.7-0.9-1.1-1.1c-0.2-0.1-0.3-0.1-0.5-0.1c-0.3,0-0.7,0.1-1,0.2
		c-0.2,0.1-0.5,0.2-1,0.4l1.5,3.8c0.7-0.3,1.2-0.5,1.3-0.8c0.1-0.2,0.1-0.6,0-1.3c-0.1-0.3-0.1-0.5,0-0.5c0,0,0,0,0,0
		c0.1,0,0.1,0.1,0.2,0.2c0.1,0.2,0.2,0.5,0.3,1c0.1,0.2,0.1,0.4,0.3,0.7c0.3,0.7,0.5,1.3,0.7,1.7c0,0,0.1,0.1,0.1,0.2
		c0,0.1,0,0.2,0,0.2c0,0,0,0,0,0c0,0,0,0-0.1,0c0,0-0.1-0.2-0.2-0.4c-0.3-0.6-0.6-0.9-0.7-1c-0.1,0-0.2-0.1-0.3-0.1
		c-0.2,0-0.4,0.1-0.7,0.2L39,33.9l1.7,4.4l0.7-0.3c0.7-0.3,1.2-0.5,1.3-0.6c0.2-0.1,0.3-0.3,0.5-0.5c0.1-0.2,0.1-0.5,0.1-0.7
		c0-0.2-0.1-0.6-0.2-1.2c0-0.1,0-0.2,0-0.2c0,0,0,0,0,0c0,0,0.1,0.1,0.1,0.2c0,0,0.2,0.4,0.5,1.2c0.2,0.4,0.3,0.7,0.3,0.9
		c0.1,0.2,0.1,0.3,0.1,0.3v0c0,0,0,0,0,0s0,0,0,0c-1.8,0.6-3.4,1.2-4.7,1.8l-0.9,0.3c-0.1,0-0.1,0-0.1,0c0,0-0.1,0-0.1-0.1
		c0,0,0-0.1,0-0.1c0,0,0.1-0.1,0.3-0.2c0.3-0.2,0.4-0.3,0.4-0.6c0-0.1-0.1-0.2-0.1-0.4l-2.6-6.6c-0.2-0.5-0.3-0.8-0.3-0.9
		c-0.1-0.1-0.1-0.2-0.2-0.2c0,0,0,0-0.1,0c-0.1,0-0.2,0-0.3,0.1C35.3,30.6,35.2,30.7,35.1,30.7 M75.1,37.6c-0.3,0-0.6,0-0.8-0.1
		c-0.9-0.3-1.6-1-1.9-2.1c-0.4-1.1-0.3-2.4,0.1-3.7c0.4-1.3,1.1-2.4,2-3.1c0.7-0.5,1.3-0.7,2-0.7c0.3,0,0.6,0,0.9,0.1
		c0.9,0.3,1.6,1,1.9,2.1c0.3,1.1,0.3,2.3-0.1,3.7c-0.4,1.3-1.1,2.4-2,3.1C76.5,37.3,75.8,37.6,75.1,37.6 M42.1,28
		c-0.1,0-0.1,0-0.1-0.1c0-0.1,0-0.1,0.1-0.1c0.1,0,0.2-0.1,0.5-0.1l0.2,0c0.1,0,0.3-0.1,0.4-0.1l0.3-0.1c0,0,0.1,0,0.2-0.1
		c0.1,0,0.3-0.1,0.4-0.1l0.6-0.2c0.7-0.2,1.2-0.2,1.6-0.2c0.2,0,0.3,0,0.5,0.1c0.3,0.1,0.6,0.3,0.8,0.5c0.2,0.3,0.4,0.6,0.5,1
		c0.2,0.9,0,1.6-0.6,2.2c-0.3,0.3-0.7,0.5-1.3,0.7l0,0.1c0.2,0,0.4,0,0.6,0c0.5,0,1,0.1,1.3,0.4c0.5,0.4,0.8,1.1,1.2,2.1
		c0.3,0.8,0.5,1.3,0.6,1.5c0.1,0.1,0.3,0.2,0.4,0.2c0,0,0,0,0.1,0c0.1,0,0.2-0.1,0.1-0.1c0,0-0.1-0.1-0.2-0.1
		c-0.1,0-0.2-0.1-0.2-0.2c-0.1-0.2,0-0.4,0.2-0.4c0,0,0.1,0,0.1,0c0.2,0,0.3,0.1,0.3,0.4c0.1,0.5-0.1,0.8-0.6,0.9
		C50,36,49.9,36,49.7,36c-0.4,0-0.9-0.2-1.2-0.5c-0.4-0.3-0.7-0.7-0.8-1.2l-0.4-1.1c-0.2-0.7-0.5-1.2-0.7-1.4
		c-0.2-0.2-0.4-0.2-0.6-0.2c-0.1,0-0.2,0-0.4,0.1l0.8,3.1c0.2,0.7,0.3,1.1,0.3,1.2c0,0.2,0.1,0.2,0.2,0.3c0,0,0.1,0,0.1,0
		c0.1,0,0.3,0,0.4-0.1c0.1,0,0.1,0,0.1,0c0.1,0,0.1,0,0.1,0.1c0,0.1,0,0.1-0.1,0.1l-1,0.3l-0.2,0c-0.1,0-0.2,0.1-0.4,0.1L45.2,37
		c-0.1,0-0.2,0-0.2,0.1c-0.1,0-0.1,0-0.1,0l-0.5,0.1c0,0-0.1,0-0.1,0c-0.1,0-0.1,0-0.1-0.1c0-0.1,0.1-0.2,0.4-0.2
		c0.2-0.1,0.4-0.2,0.4-0.3c0-0.1,0-0.3-0.1-0.6l-1.7-7c-0.1-0.5-0.2-0.7-0.2-0.8c0-0.1-0.1-0.1-0.2-0.2c0,0-0.1,0-0.1,0
		c-0.1,0-0.2,0-0.4,0.1C42.2,28,42.1,28,42.1,28 M65.9,28.4C65.9,28.4,65.9,28.4,65.9,28.4c-0.1,0-0.1-0.1-0.1-0.2
		c0-0.1,0.1-0.3,0.2-0.7c0.2-0.9,0.3-1.5,0.4-1.8l0.2,0l0.8,0.1c0,0,0.3,0.1,0.7,0.1c0.5,0.1,1.1,0.2,1.8,0.3
		c0.4,0.1,0.8,0.1,1.1,0.2c0.3,0,0.6,0.1,0.9,0.1c0.2,0,0.4,0.1,0.5,0.1c-0.1,0.6-0.2,1.4-0.2,2.3c0,0.2,0,0.3,0,0.3
		c0,0.1,0,0.1-0.1,0.1c0,0,0,0,0,0c-0.1,0-0.1-0.2-0.1-0.6c0-0.7-0.1-1.2-0.3-1.5c-0.2-0.3-0.5-0.5-1-0.6c-0.2,0-0.4-0.1-0.5-0.1
		L68.7,35c0,0.2,0,0.4,0.1,0.5c0.1,0.1,0.3,0.2,0.7,0.3c0.1,0,0.1,0.1,0.1,0.1c0,0.1-0.1,0.1-0.1,0.1c0,0,0,0-0.1,0c0,0-0.1,0-0.2,0
		c-0.1,0-0.2,0-0.3-0.1l-1.1-0.2l-1.8-0.2c-0.1,0-0.1-0.1-0.1-0.1c0-0.1,0-0.1,0.1-0.1c0,0,0,0,0,0c0,0,0.2,0,0.3,0
		c0.1,0,0.1,0,0.2,0c0.3,0,0.4-0.1,0.5-0.3c0-0.1,0.2-1,0.5-2.8l1-5.8c-0.1,0-0.2,0-0.3,0c-0.2,0-0.3,0-0.5,0
		c-0.3,0-0.6,0.1-0.8,0.2c-0.3,0.2-0.6,0.7-0.8,1.3C66.1,28.2,66,28.4,65.9,28.4 M59.4,4.4h0.4c0,0,0.1,0.1,0.1,0.2
		C59.9,6,60,15.2,60,15.3c0,0.2,0.2,0.2,0.2,0.2l0.3,0.1c0,0,0.1,0.1,0.1,0.2c0,0.1,0.4,17.4,0.4,17.4c0,0.2,0.1,0.4,0.3,0.4
		l1.5,0.6c0.2,0.1,0.3,0.3,0.3,0.4V45l0.2,2c-1.4,0-2.8-0.1-4.2-0.1c-0.8,0-1.6,0-2.4,0c-0.3,0-0.7,0-1.1,0L56,45V34.7
		c0-0.2,0.1-0.4,0.3-0.4l1.5-0.6c0.2-0.1,0.3-0.2,0.3-0.4c0,0,0.4-17.3,0.4-17.4c0-0.1,0.1-0.2,0.1-0.2l0.4-0.1c0,0,0.1-0.1,0.1-0.2
		c0-0.1,0.1-9.3,0.1-10.7C59.3,4.5,59.4,4.4,59.4,4.4"/>
	<g id="XMLID_196_">
		
			<linearGradient id="XMLID_3_" gradientUnits="userSpaceOnUse" x1="-535.1617" y1="-361.1081" x2="-534.754" y2="-361.1081" gradientTransform="matrix(67.6231 383.5098 383.5098 -67.6231 174667.5312 180819.75)">
			<stop  offset="0" style="stop-color:#EEB268"/>
			<stop  offset="0.1892" style="stop-color:#F3DEAC"/>
			<stop  offset="0.3572" style="stop-color:#EEB268"/>
			<stop  offset="0.5707" style="stop-color:#F4E4B6"/>
			<stop  offset="0.6711" style="stop-color:#F2E0B1"/>
			<stop  offset="0.9357" style="stop-color:#EEB268"/>
			<stop  offset="0.9775" style="stop-color:#F1D8A3"/>
			<stop  offset="0.9838" style="stop-color:#F1D69F"/>
			<stop  offset="0.9894" style="stop-color:#F0CF95"/>
			<stop  offset="0.9947" style="stop-color:#EFC382"/>
			<stop  offset="0.9998" style="stop-color:#EEB369"/>
			<stop  offset="1" style="stop-color:#EEB268"/>
		</linearGradient>
		<path id="XMLID_197_" class="st1" d="M0.4,81.8c0,0.1,0,0.3,0,0.5c0,0.3,0,0.6-0.1,0.9c0,0.3,0,0.7-0.1,1.1
			c-0.1,0.7-0.1,1.4-0.2,1.8c0,0.5-0.1,0.7-0.1,0.8L0,87.7l0,0.2c0.3,0,1,0.1,1.9,0.2c0.4,0.1,0.7,0.1,0.8,0.1c0,0,0,0,0,0
			c0.1,0,0.1,0,0.1-0.1c0-0.1-0.2-0.2-0.6-0.2c-0.7-0.1-1.2-0.3-1.4-0.6C0.5,87,0.4,86.6,0.5,86c0-0.1,0-0.2,0-0.3l5.9,0.4
			c1.8,0.1,2.7,0.2,2.8,0.2c0.2,0,0.3,0.3,0.3,0.7c0,0.2,0,0.3,0,0.4c0,0,0,0,0.1,0.1c0,0,0,0,0,0c0.1,0,0.1,0,0.1-0.1l0.1-1.9
			l0.1-1.1c0-0.1,0-0.2,0-0.3c0-0.1,0-0.1,0-0.2c0-0.1,0-0.2-0.1-0.2c0,0,0,0,0,0c-0.1,0-0.1,0-0.1,0.1c-0.1,0.4-0.2,0.7-0.2,0.8
			c-0.1,0.1-0.2,0.1-0.4,0.1c0,0,0,0-0.1,0l-8.5-0.6c0-0.1,0-0.3,0-0.5c0-0.5,0.2-0.9,0.5-1.1c0.3-0.2,0.8-0.4,1.5-0.4
			c0.4,0,0.5-0.1,0.6-0.2c0-0.1,0-0.1-0.1-0.1c0,0,0,0-0.1,0c0,0-0.1,0-0.2,0c-0.4,0-0.8,0-1.2,0C1.1,81.8,0.8,81.8,0.4,81.8"/>
		
			<linearGradient id="XMLID_4_" gradientUnits="userSpaceOnUse" x1="-535.1617" y1="-361.1022" x2="-534.754" y2="-361.1022" gradientTransform="matrix(67.6231 383.5098 383.5098 -67.6231 174667.5312 180819.75)">
			<stop  offset="0" style="stop-color:#EEB268"/>
			<stop  offset="0.1892" style="stop-color:#F3DEAC"/>
			<stop  offset="0.3572" style="stop-color:#EEB268"/>
			<stop  offset="0.5707" style="stop-color:#F4E4B6"/>
			<stop  offset="0.6711" style="stop-color:#F2E0B1"/>
			<stop  offset="0.9357" style="stop-color:#EEB268"/>
			<stop  offset="0.9775" style="stop-color:#F1D8A3"/>
			<stop  offset="0.9838" style="stop-color:#F1D69F"/>
			<stop  offset="0.9894" style="stop-color:#F0CF95"/>
			<stop  offset="0.9947" style="stop-color:#EFC382"/>
			<stop  offset="0.9998" style="stop-color:#EEB369"/>
			<stop  offset="1" style="stop-color:#EEB268"/>
		</linearGradient>
		<path id="XMLID_200_" class="st2" d="M7.9,79.7c-0.7,0-1.6-0.1-2.5-0.3c-1.3-0.2-2.4-0.6-3.1-1c-0.7-0.4-1.1-0.9-1-1.4
			c0.1-0.5,0.4-0.8,1-0.9c0.3-0.1,0.7-0.1,1.2-0.1c0.8,0,1.8,0.1,2.9,0.3c1.5,0.3,2.7,0.6,3.5,1.1c0.5,0.3,0.8,0.7,0.7,1.1
			c-0.1,0.4-0.3,0.7-0.8,0.8C9.3,79.6,8.7,79.7,7.9,79.7 M5.2,74.4c-0.9,0-1.6,0.2-2.3,0.5C1.8,75.3,1.2,76.1,1,77
			c-0.2,1,0.1,1.9,1,2.8c0.8,0.8,1.9,1.4,3.3,1.6c0.4,0.1,0.8,0.1,1.2,0.1c0.9,0,1.7-0.2,2.4-0.5c1.1-0.5,1.7-1.2,1.9-2.2
			c0.2-1-0.2-1.9-1-2.7c-0.8-0.8-1.9-1.4-3.3-1.6C6.1,74.4,5.6,74.4,5.2,74.4"/>
		
			<linearGradient id="XMLID_5_" gradientUnits="userSpaceOnUse" x1="-535.1617" y1="-361.094" x2="-534.754" y2="-361.094" gradientTransform="matrix(67.6231 383.5098 383.5098 -67.6231 174667.5312 180819.75)">
			<stop  offset="0" style="stop-color:#EEB268"/>
			<stop  offset="0.1892" style="stop-color:#F3DEAC"/>
			<stop  offset="0.3572" style="stop-color:#EEB268"/>
			<stop  offset="0.5707" style="stop-color:#F4E4B6"/>
			<stop  offset="0.6711" style="stop-color:#F2E0B1"/>
			<stop  offset="0.9357" style="stop-color:#EEB268"/>
			<stop  offset="0.9775" style="stop-color:#F1D8A3"/>
			<stop  offset="0.9838" style="stop-color:#F1D69F"/>
			<stop  offset="0.9894" style="stop-color:#F0CF95"/>
			<stop  offset="0.9947" style="stop-color:#EFC382"/>
			<stop  offset="0.9998" style="stop-color:#EEB369"/>
			<stop  offset="1" style="stop-color:#EEB268"/>
		</linearGradient>
		<path id="XMLID_201_" class="st3" d="M4.1,66C4,66,4,66,4,66.1l-0.3,1.1c0,0,0,0.1,0,0.2c0,0,0,0.1,0,0.1l-0.1,0.5
			c-0.1,0.2,0,0.3,0,0.3c0,0,0,0,0,0c0.1,0,0.1,0,0.1-0.1c0.1-0.3,0.1-0.5,0.2-0.5c0,0,0.1-0.1,0.1-0.1c0,0,0,0,0,0
			c0.2,0.1,0.6,0.4,1.1,1.1C6.3,70.1,7,71,7.2,71.3l-3.5-1c-0.3-0.1-0.4-0.2-0.5-0.2c0-0.1,0-0.2,0-0.5c0-0.2,0-0.3,0-0.3
			c0,0,0,0,0,0c-0.1,0-0.1,0-0.1,0.1c0,0.1-0.1,0.2-0.1,0.3L2.8,70l-0.2,0.7c0,0.1,0,0.1-0.1,0.2c0,0.1,0,0.1,0,0.1l-0.4,1.3
			c0,0.1,0,0.2,0.1,0.2c0,0,0,0,0,0c0.1,0,0.1-0.1,0.2-0.3c0.1-0.2,0.1-0.4,0.2-0.4c0,0,0.1,0,0.1,0c0,0,0.1,0,0.2,0l7.7,2.3
			c0.3,0.1,0.5,0.2,0.6,0.3c0.1,0.1,0.1,0.2,0,0.5c-0.1,0.2-0.1,0.4,0,0.4c0,0,0,0,0,0c0.1,0,0.1,0,0.1-0.1l0-0.1
			c0-0.2,0.1-0.3,0.1-0.5c0-0.1,0.1-0.2,0.1-0.3c0.1-0.5,0.3-0.9,0.4-1.3l0.2-0.7c0-0.1,0-0.2-0.1-0.2c0,0,0,0,0,0
			c-0.1,0-0.1,0.1-0.2,0.2c-0.1,0.3-0.2,0.5-0.3,0.5c0,0,0,0-0.1,0c-0.1,0-0.3,0-0.7-0.1l-3.4-1c0.1,0,0.2-0.1,0.3-0.1l3.2-0.7
			c0.8-0.2,1.2-0.3,1.2-0.3c0,0,0,0,0,0c0.1,0,0.1,0.1,0.1,0.2c-0.1,0.2-0.1,0.3-0.1,0.4c0,0,0,0.1,0.1,0.1c0,0,0,0,0,0
			c0.1,0,0.1-0.1,0.2-0.2l0.1-0.5l0.2-0.6c0-0.1,0.1-0.3,0.2-0.6c0.1-0.4,0.2-0.7,0.3-1c0.1-0.3,0.1-0.4,0-0.4c0,0,0,0,0,0
			c-0.1,0-0.1,0.1-0.2,0.3c-0.1,0.2-0.1,0.3-0.3,0.4c-0.1,0.1-0.5,0.2-1.1,0.3c-1.4,0.4-2.4,0.6-3.2,0.8c-1.1,0.3-1.7,0.5-2,0.5
			c-0.8-1-1.6-2-2.3-2.9c-0.1-0.2-0.2-0.3-0.2-0.4c0-0.1,0-0.3,0.1-0.5C4.3,66.1,4.2,66,4.1,66C4.1,66,4.1,66,4.1,66"/>
		
			<linearGradient id="XMLID_6_" gradientUnits="userSpaceOnUse" x1="-535.1617" y1="-361.0866" x2="-534.754" y2="-361.0866" gradientTransform="matrix(67.6231 383.5098 383.5098 -67.6231 174667.5312 180819.75)">
			<stop  offset="0" style="stop-color:#EEB268"/>
			<stop  offset="0.1892" style="stop-color:#F3DEAC"/>
			<stop  offset="0.3572" style="stop-color:#EEB268"/>
			<stop  offset="0.5707" style="stop-color:#F4E4B6"/>
			<stop  offset="0.6711" style="stop-color:#F2E0B1"/>
			<stop  offset="0.9357" style="stop-color:#EEB268"/>
			<stop  offset="0.9775" style="stop-color:#F1D8A3"/>
			<stop  offset="0.9838" style="stop-color:#F1D69F"/>
			<stop  offset="0.9894" style="stop-color:#F0CF95"/>
			<stop  offset="0.9947" style="stop-color:#EFC382"/>
			<stop  offset="0.9998" style="stop-color:#EEB369"/>
			<stop  offset="1" style="stop-color:#EEB268"/>
		</linearGradient>
		<path id="XMLID_202_" class="st4" d="M7.1,58.5c-0.1,0-0.1,0.1-0.2,0.2l-0.2,0.4c-0.2,0.4-0.3,0.8-0.4,0.9l-0.1,0.3
			c-0.1,0.1,0,0.2,0,0.2c0,0,0,0,0,0c0.1,0,0.2-0.1,0.3-0.4c0.1-0.1,0.1-0.2,0.3-0.2c0,0,0.1,0,0.2,0c0.1,0.1,0.6,0.4,1.3,1
			c0.9,0.8,1.6,1.5,2,1.9c-0.9,0-1.8,0-2.5,0c-0.8,0-1.3,0-1.5-0.1c-0.2,0-0.3,0-0.4-0.1c-0.2-0.1-0.2-0.3-0.1-0.7
			c0.1-0.2,0.1-0.3,0.1-0.4c0,0,0-0.1-0.1-0.1c0,0,0,0,0,0c-0.1,0-0.1,0.1-0.2,0.2c0,0,0,0,0,0s0,0,0,0.1c0,0.1-0.1,0.1-0.1,0.2
			l-0.2,0.6c-0.1,0.2-0.1,0.3-0.1,0.5c0,0.1-0.1,0.2-0.1,0.2l-0.5,1.2c-0.1,0.2-0.1,0.3-0.2,0.4c0,0.1,0,0.1-0.1,0.1c0,0,0,0,0,0
			c-0.1,0.1,0,0.2,0,0.3c0,0,0,0,0.1,0c0.1,0,0.1-0.1,0.2-0.2c0,0,0-0.1,0-0.1l0-0.1c0.1-0.2,0.2-0.4,0.4-0.4c0.4,0,0.8,0,1.2,0
			c0.4,0,0.8,0,1.1,0c0,0,0,0,0,0c1.3,0,2.3,0,3,0.1l3,1.3c0.2,0.1,0.3,0.2,0.4,0.2c0.1,0.1,0,0.4-0.2,0.9c0,0.1,0,0.2,0,0.2
			c0,0,0,0,0,0c0.1,0,0.1,0,0.1-0.1l0.3-0.6c0.1-0.1,0.1-0.3,0.2-0.5c0.1-0.2,0.1-0.2,0.1-0.3l0.4-0.8c0.1-0.3,0.2-0.5,0.3-0.6
			c0.1-0.1,0.1-0.2,0.1-0.2c0.1-0.1,0-0.2,0-0.2c0,0,0,0,0,0c-0.1,0-0.1,0.1-0.2,0.2c-0.1,0.3-0.2,0.5-0.3,0.5c0,0-0.1,0.1-0.2,0.1
			c-0.1,0-0.1,0-0.2,0l-2.6-1.1c-0.5-0.2-0.8-0.4-1-0.5c-0.2-0.1-0.5-0.4-1-0.9c-0.4-0.4-0.8-0.7-1-0.9c-1.1-1-1.6-1.5-1.6-1.6
			c-0.1-0.1,0-0.4,0.1-0.8C7.2,58.6,7.2,58.5,7.1,58.5C7.2,58.5,7.1,58.5,7.1,58.5"/>
		
			<linearGradient id="XMLID_7_" gradientUnits="userSpaceOnUse" x1="-535.1617" y1="-361.0746" x2="-534.754" y2="-361.0746" gradientTransform="matrix(67.6231 383.5098 383.5098 -67.6231 174667.5312 180819.75)">
			<stop  offset="0" style="stop-color:#EEB268"/>
			<stop  offset="0.1892" style="stop-color:#F3DEAC"/>
			<stop  offset="0.3572" style="stop-color:#EEB268"/>
			<stop  offset="0.5707" style="stop-color:#F4E4B6"/>
			<stop  offset="0.6711" style="stop-color:#F2E0B1"/>
			<stop  offset="0.9357" style="stop-color:#EEB268"/>
			<stop  offset="0.9775" style="stop-color:#F1D8A3"/>
			<stop  offset="0.9838" style="stop-color:#F1D69F"/>
			<stop  offset="0.9894" style="stop-color:#F0CF95"/>
			<stop  offset="0.9947" style="stop-color:#EFC382"/>
			<stop  offset="0.9998" style="stop-color:#EEB369"/>
			<stop  offset="1" style="stop-color:#EEB268"/>
		</linearGradient>
		<path id="XMLID_207_" class="st5" d="M16.5,60C16.5,60,16.4,60,16.5,60c-1.1,0-2.6-0.5-4.3-1.5c-1.2-0.7-2-1.3-2.6-2
			c-0.6-0.7-0.7-1.2-0.5-1.6c0.2-0.4,0.5-0.5,1-0.5c0.1,0,0.2,0,0.3,0c0.9,0.1,2.2,0.7,3.8,1.6c1.3,0.7,2.3,1.5,2.9,2.2
			c0.4,0.5,0.5,0.9,0.3,1.3C17.2,59.8,16.9,60,16.5,60 M11.8,53.3c-0.2,0-0.3,0-0.5,0c-1.2,0.1-2,0.6-2.5,1.4
			c-0.5,0.9-0.5,1.9,0,2.9c0.5,1.1,1.3,1.9,2.6,2.6c1,0.6,2,0.9,3,0.9c0.2,0,0.4,0,0.5,0c1.2-0.1,2-0.6,2.5-1.4
			c0.5-0.9,0.5-1.8,0-2.9c-0.5-1.1-1.4-1.9-2.6-2.6C13.9,53.6,12.9,53.3,11.8,53.3"/>
		
			<linearGradient id="XMLID_10_" gradientUnits="userSpaceOnUse" x1="-535.1617" y1="-361.0562" x2="-534.754" y2="-361.0562" gradientTransform="matrix(67.6231 383.5098 383.5098 -67.6231 174667.5312 180819.75)">
			<stop  offset="0" style="stop-color:#EEB268"/>
			<stop  offset="0.1892" style="stop-color:#F3DEAC"/>
			<stop  offset="0.3572" style="stop-color:#EEB268"/>
			<stop  offset="0.5707" style="stop-color:#F4E4B6"/>
			<stop  offset="0.6711" style="stop-color:#F2E0B1"/>
			<stop  offset="0.9357" style="stop-color:#EEB268"/>
			<stop  offset="0.9775" style="stop-color:#F1D8A3"/>
			<stop  offset="0.9838" style="stop-color:#F1D69F"/>
			<stop  offset="0.9894" style="stop-color:#F0CF95"/>
			<stop  offset="0.9947" style="stop-color:#EFC382"/>
			<stop  offset="0.9998" style="stop-color:#EEB369"/>
			<stop  offset="1" style="stop-color:#EEB268"/>
		</linearGradient>
		<path id="XMLID_208_" class="st6" d="M17.7,42.9c-0.1,0.1-0.2,0.2-0.3,0.4c-0.2,0.2-0.4,0.4-0.6,0.7c-0.2,0.3-0.4,0.5-0.7,0.9
			c-0.5,0.6-0.9,1-1.2,1.4c-0.3,0.4-0.5,0.5-0.5,0.6l-0.5,0.6l-0.1,0.1c0.2,0.2,0.7,0.7,1.4,1.3c0.3,0.3,0.5,0.5,0.6,0.5
			c0.1,0,0.1,0.1,0.1,0.1c0,0,0,0,0.1,0c0.1-0.1-0.1-0.2-0.3-0.5c-0.5-0.5-0.7-1-0.8-1.3c0-0.4,0.1-0.8,0.5-1.2
			c0.1-0.1,0.1-0.2,0.2-0.2l4.5,3.8c1.3,1.1,2.1,1.8,2.1,1.9c0.2,0.2,0.1,0.4-0.1,0.7c-0.1,0.2-0.2,0.3-0.2,0.3c0,0,0,0.1,0,0.1
			c0,0,0,0,0.1,0c0,0,0.1,0,0.1-0.1l1.1-1.5l0.8-0.8c0-0.1,0.1-0.1,0.2-0.2c0.1-0.1,0.1-0.1,0.1-0.1c0.1-0.1,0.1-0.2,0-0.2
			c0,0-0.1,0-0.1,0c0,0-0.1,0-0.1,0c-0.3,0.3-0.5,0.4-0.6,0.5c0,0,0,0-0.1,0c-0.1,0-0.2-0.1-0.4-0.2l-6.5-5.5
			c0.1-0.1,0.2-0.2,0.3-0.4c0.3-0.4,0.7-0.6,1-0.6c0,0,0,0,0,0c0.3,0,0.8,0.2,1.4,0.5c0.2,0.1,0.4,0.2,0.5,0.2c0,0,0.1,0,0.1,0
			c0,0,0-0.1,0-0.1c0,0-0.1-0.1-0.2-0.2C18.8,43.7,18.2,43.3,17.7,42.9"/>
		
			<linearGradient id="XMLID_14_" gradientUnits="userSpaceOnUse" x1="-535.1617" y1="-361.0396" x2="-534.754" y2="-361.0396" gradientTransform="matrix(67.6231 383.5098 383.5098 -67.6231 174667.5312 180819.75)">
			<stop  offset="0" style="stop-color:#EEB268"/>
			<stop  offset="0.1892" style="stop-color:#F3DEAC"/>
			<stop  offset="0.3572" style="stop-color:#EEB268"/>
			<stop  offset="0.5707" style="stop-color:#F4E4B6"/>
			<stop  offset="0.6711" style="stop-color:#F2E0B1"/>
			<stop  offset="0.9357" style="stop-color:#EEB268"/>
			<stop  offset="0.9775" style="stop-color:#F1D8A3"/>
			<stop  offset="0.9838" style="stop-color:#F1D69F"/>
			<stop  offset="0.9894" style="stop-color:#F0CF95"/>
			<stop  offset="0.9947" style="stop-color:#EFC382"/>
			<stop  offset="0.9998" style="stop-color:#EEB369"/>
			<stop  offset="1" style="stop-color:#EEB268"/>
		</linearGradient>
		<path id="XMLID_212_" class="st7" d="M27.2,46.8c-0.1,0-0.3,0-0.5-0.1c-1-0.4-2.2-1.3-3.5-2.8c-0.9-1-1.5-1.9-1.8-2.7
			c-0.3-0.8-0.3-1.4,0.1-1.7c0.2-0.2,0.4-0.3,0.7-0.3c0.2,0,0.5,0.1,0.7,0.2c0.8,0.4,1.9,1.3,3.1,2.7c1,1.1,1.7,2.1,2.1,3
			c0.2,0.6,0.2,1-0.2,1.3C27.6,46.7,27.4,46.8,27.2,46.8 M23.2,38.7c-0.7,0-1.3,0.2-1.8,0.7c-0.8,0.7-1.1,1.6-1,2.8
			c0.1,1.2,0.6,2.3,1.6,3.3c0.9,1,2,1.7,3.1,2c0.3,0.1,0.7,0.1,1,0.1c0.7,0,1.3-0.2,1.8-0.7c0.7-0.7,1-1.6,0.9-2.7
			c-0.1-1.2-0.7-2.3-1.6-3.3c-0.9-1.1-2-1.7-3.1-2C23.8,38.7,23.5,38.7,23.2,38.7"/>
		
			<linearGradient id="XMLID_15_" gradientUnits="userSpaceOnUse" x1="-535.1617" y1="-361.0224" x2="-534.754" y2="-361.0224" gradientTransform="matrix(67.6231 383.5098 383.5098 -67.6231 174667.5312 180819.75)">
			<stop  offset="0" style="stop-color:#EEB268"/>
			<stop  offset="0.1892" style="stop-color:#F3DEAC"/>
			<stop  offset="0.3572" style="stop-color:#EEB268"/>
			<stop  offset="0.5707" style="stop-color:#F4E4B6"/>
			<stop  offset="0.6711" style="stop-color:#F2E0B1"/>
			<stop  offset="0.9357" style="stop-color:#EEB268"/>
			<stop  offset="0.9775" style="stop-color:#F1D8A3"/>
			<stop  offset="0.9838" style="stop-color:#F1D69F"/>
			<stop  offset="0.9894" style="stop-color:#F0CF95"/>
			<stop  offset="0.9947" style="stop-color:#EFC382"/>
			<stop  offset="0.9998" style="stop-color:#EEB369"/>
			<stop  offset="1" style="stop-color:#EEB268"/>
		</linearGradient>
		<path id="XMLID_215_" class="st8" d="M31.5,34.9c-0.8-0.6-1.2-1-1.4-1.2c-0.1-0.1,0-0.3,0.3-0.5c0.1-0.1,0.3-0.1,0.4-0.1
			c0.1,0,0.2,0.1,0.3,0.2C31.2,33.4,31.3,33.9,31.5,34.9 M34,30.8C33.9,30.8,33.9,30.8,34,30.8l-0.1,0.1c-0.2,0.1-0.4,0.3-0.7,0.4
			l-0.7,0.4c-0.1,0.1-0.1,0.1-0.1,0.2c0,0,0,0,0.1,0c0,0,0.1,0,0.1,0c0.2-0.1,0.3-0.2,0.3-0.2c0,0,0.1,0,0.1,0
			c0.1,0,0.2,0.1,0.3,0.2c0.1,0.2,0.2,0.6,0.4,1.2c0.1,0.4,0.2,0.9,0.4,1.5c0.3,0.9,0.4,1.6,0.5,2c0.1,0.5,0.2,0.9,0.3,1.3
			c-1.4-1.3-2.4-2.2-3.1-2.8c-0.3-1.2-0.4-1.9-0.4-2.2c-0.1-0.2,0.1-0.5,0.6-0.7c0.1-0.1,0.1-0.1,0.1-0.2C32,32,32,32,32,32
			c0,0-0.1,0-0.1,0.1l-3.2,2c-0.2,0.1-0.3,0.2-0.4,0.3c-0.1,0-0.1,0.1-0.1,0.1s0,0,0,0c-0.1,0.1-0.2,0.1-0.1,0.2
			c0,0,0.1,0.1,0.1,0.1c0,0,0,0,0.1,0c0.2-0.1,0.3-0.2,0.4-0.2c0,0,0.1,0,0.1,0c0.1,0,0.3,0.2,0.7,0.5c0.1,0.1,0.2,0.2,0.3,0.3
			c0.3,0.2,0.5,0.4,0.6,0.5c0.8,0.7,1.4,1.3,1.7,1.6l0.5,2.3l-2.9-2.6c-0.9-0.8-1.5-1.4-1.9-1.8l-0.1-0.1c0-0.1,0-0.1,0.1-0.2
			c0.2-0.1,0.3-0.2,0.2-0.3c0,0-0.1-0.1-0.1-0.1c0,0-0.1,0-0.1,0c0,0-0.1,0-0.1,0.1c-0.1,0-0.1,0.1-0.2,0.1l-0.9,0.6L26,35.6
			c-0.2,0.1-0.3,0.2-0.6,0.3c-0.2,0.1-0.3,0.2-0.3,0.2l0,0c-0.1,0.1-0.1,0.1-0.1,0.2c0,0,0,0,0.1,0c0.1,0,0.1,0,0.2-0.1
			c0.2-0.1,0.3-0.2,0.3-0.2c0,0,0,0,0.1,0c0.1,0,0.2,0,0.3,0.1c1.2,1.1,2.3,2,3.1,2.8l3.4,3.1c0.4,0.3,0.6,0.5,0.6,0.5c0,0,0,0,0,0
			c0,0,0-0.1,0-0.2c-0.3-1.2-0.7-2.8-1.1-4.9l0.9,0.8c0.9,0.7,1.6,1.4,2.1,1.9c0.4,0.4,0.6,0.6,0.7,0.7c0.1,0,0.1,0.1,0.1,0.1
			c0,0,0,0,0,0c0,0,0-0.1,0-0.2c-0.1-0.2-0.3-1-0.7-2.3l-0.5-1.9c-0.2-0.7-0.3-1.3-0.4-1.6c-0.2-0.7-0.4-1.3-0.5-1.7
			c-0.1-0.4-0.2-0.8-0.3-1c-0.1-0.4-0.1-0.6-0.1-0.8c0-0.1,0.2-0.3,0.5-0.4C34.1,31,34.1,30.9,34,30.8C34,30.8,34,30.8,34,30.8"/>
		
			<linearGradient id="XMLID_16_" gradientUnits="userSpaceOnUse" x1="-535.1617" y1="-360.9975" x2="-534.754" y2="-360.9975" gradientTransform="matrix(67.6231 383.5098 383.5098 -67.6231 174667.5312 180819.75)">
			<stop  offset="0" style="stop-color:#EEB268"/>
			<stop  offset="0.1892" style="stop-color:#F3DEAC"/>
			<stop  offset="0.3572" style="stop-color:#EEB268"/>
			<stop  offset="0.5707" style="stop-color:#F4E4B6"/>
			<stop  offset="0.6711" style="stop-color:#F2E0B1"/>
			<stop  offset="0.9357" style="stop-color:#EEB268"/>
			<stop  offset="0.9775" style="stop-color:#F1D8A3"/>
			<stop  offset="0.9838" style="stop-color:#F1D69F"/>
			<stop  offset="0.9894" style="stop-color:#F0CF95"/>
			<stop  offset="0.9947" style="stop-color:#EFC382"/>
			<stop  offset="0.9998" style="stop-color:#EEB369"/>
			<stop  offset="1" style="stop-color:#EEB268"/>
		</linearGradient>
		<path id="XMLID_220_" class="st9" d="M44.2,37.3L44.2,37.3C44.2,37.3,44.2,37.3,44.2,37.3C44.2,37.3,44.2,37.3,44.2,37.3
			 M40.3,28.3c-0.2,0.1-0.4,0.2-0.5,0.3L39,28.8c-0.8,0.3-1.8,0.7-3,1.2c-0.3,0.1-0.6,0.2-0.8,0.3c-0.2,0.1-0.3,0.2-0.2,0.2
			c0,0,0.1,0.1,0.1,0.1c0.1,0,0.1,0,0.3-0.1c0.1-0.1,0.2-0.1,0.3-0.1c0,0,0.1,0,0.1,0c0.1,0,0.2,0.1,0.2,0.2c0,0,0.1,0.3,0.3,0.9
			l2.6,6.6c0.1,0.1,0.1,0.3,0.1,0.4c0.1,0.2-0.1,0.4-0.4,0.6c-0.2,0.1-0.3,0.1-0.3,0.2c0,0,0,0.1,0,0.1c0,0,0,0.1,0.1,0.1
			c0,0,0.1,0,0.1,0l0.9-0.3c1.3-0.6,2.9-1.2,4.7-1.8c0,0,0-0.1-0.1-0.3c-0.1-0.2-0.2-0.5-0.3-0.9c-0.3-0.8-0.5-1.2-0.5-1.2
			c0-0.1-0.1-0.2-0.1-0.2c0,0,0,0,0,0c0,0-0.1,0.1,0,0.2c0.1,0.6,0.2,1,0.2,1.2c0,0.2,0,0.5-0.1,0.7c-0.1,0.2-0.3,0.4-0.5,0.5
			c-0.2,0.1-0.6,0.3-1.3,0.6l-0.7,0.3L39,33.9l0.7-0.3c0.3-0.1,0.5-0.2,0.7-0.2c0.1,0,0.2,0,0.3,0.1c0.2,0.1,0.4,0.5,0.7,1
			c0.1,0.2,0.2,0.4,0.2,0.4c0,0,0,0,0.1,0c0,0,0,0,0,0c0.1,0,0.1-0.1,0-0.2c0-0.1-0.1-0.1-0.1-0.2c-0.2-0.4-0.4-0.9-0.7-1.7
			c-0.1-0.3-0.2-0.5-0.3-0.7c-0.2-0.5-0.3-0.8-0.3-1c-0.1-0.1-0.1-0.2-0.2-0.2c0,0,0,0,0,0c-0.1,0-0.1,0.2,0,0.5
			c0.2,0.6,0.2,1,0,1.3c-0.1,0.2-0.6,0.5-1.3,0.8l-1.5-3.8c0.5-0.2,0.8-0.3,1-0.4c0.4-0.2,0.7-0.2,1-0.2c0.2,0,0.4,0,0.5,0.1
			c0.4,0.1,0.8,0.5,1.1,1.1c0.1,0.2,0.2,0.3,0.2,0.3c0,0,0,0,0,0c0.1,0,0.1-0.1,0.1-0.2c0-0.1-0.2-0.4-0.4-0.8L40.3,28.3"/>
		
			<linearGradient id="XMLID_22_" gradientUnits="userSpaceOnUse" x1="-535.1617" y1="-360.9792" x2="-534.754" y2="-360.9792" gradientTransform="matrix(67.6231 383.5098 383.5098 -67.6231 174667.5312 180819.75)">
			<stop  offset="0" style="stop-color:#EEB268"/>
			<stop  offset="0.1892" style="stop-color:#F3DEAC"/>
			<stop  offset="0.3572" style="stop-color:#EEB268"/>
			<stop  offset="0.5707" style="stop-color:#F4E4B6"/>
			<stop  offset="0.6711" style="stop-color:#F2E0B1"/>
			<stop  offset="0.9357" style="stop-color:#EEB268"/>
			<stop  offset="0.9775" style="stop-color:#F1D8A3"/>
			<stop  offset="0.9838" style="stop-color:#F1D69F"/>
			<stop  offset="0.9894" style="stop-color:#F0CF95"/>
			<stop  offset="0.9947" style="stop-color:#EFC382"/>
			<stop  offset="0.9998" style="stop-color:#EEB369"/>
			<stop  offset="1" style="stop-color:#EEB268"/>
		</linearGradient>
		<path id="XMLID_223_" class="st10" d="M45.4,31.5l-0.5-2.2c-0.2-0.9-0.3-1.4-0.3-1.5c0-0.2,0.1-0.3,0.4-0.4c0.1,0,0.2,0,0.3,0
			c0.6,0,1,0.5,1.2,1.5c0.2,0.8,0.2,1.4,0.1,1.8C46.3,31.1,46,31.4,45.4,31.5 M46.3,26.9c-0.4,0-0.9,0.1-1.6,0.2L44,27.3
			c-0.1,0-0.2,0.1-0.4,0.1c-0.1,0-0.2,0.1-0.2,0.1l-0.3,0.1c-0.1,0-0.2,0.1-0.4,0.1l-0.2,0c-0.3,0.1-0.4,0.1-0.5,0.1
			c-0.1,0-0.1,0.1-0.1,0.1C42,28,42,28,42.1,28c0,0,0.1,0,0.1,0c0.1,0,0.3-0.1,0.4-0.1c0.1,0,0.1,0,0.1,0c0.1,0,0.2,0.1,0.2,0.2
			c0,0.1,0.1,0.4,0.2,0.8l1.7,7c0.1,0.3,0.1,0.5,0.1,0.6c0,0.1-0.1,0.2-0.4,0.3c-0.3,0.1-0.4,0.2-0.4,0.2c0,0,0,0.1,0.1,0.1
			c0,0,0,0,0.1,0l0.5-0.1c0,0,0.1,0,0.1,0c0.1,0,0.2,0,0.2-0.1l0.8-0.2c0.1,0,0.2-0.1,0.4-0.1l0.2,0l1-0.3c0.1,0,0.1-0.1,0.1-0.1
			c0-0.1-0.1-0.1-0.1-0.1c0,0-0.1,0-0.1,0c-0.2,0-0.3,0.1-0.4,0.1c-0.1,0-0.1,0-0.1,0c-0.1,0-0.2-0.1-0.2-0.3c0-0.1-0.1-0.4-0.3-1.2
			l-0.8-3.1c0.1,0,0.3-0.1,0.4-0.1c0.2,0,0.5,0.1,0.6,0.2c0.3,0.2,0.5,0.7,0.7,1.4l0.4,1.1c0.2,0.5,0.4,0.8,0.8,1.2
			c0.4,0.3,0.8,0.5,1.2,0.5c0.2,0,0.3,0,0.5-0.1c0.5-0.1,0.7-0.4,0.6-0.9c-0.1-0.3-0.2-0.4-0.3-0.4c0,0-0.1,0-0.1,0
			c-0.2,0.1-0.3,0.2-0.2,0.4c0,0.1,0.1,0.2,0.2,0.2c0.1,0,0.1,0.1,0.2,0.1c0,0.1,0,0.1-0.1,0.1c0,0,0,0-0.1,0
			c-0.1,0-0.2-0.1-0.4-0.2c-0.2-0.2-0.4-0.7-0.6-1.5c-0.3-1-0.7-1.7-1.2-2.1c-0.3-0.3-0.8-0.4-1.3-0.4c-0.2,0-0.4,0-0.6,0l0-0.1
			c0.6-0.2,1-0.5,1.3-0.7c0.6-0.6,0.8-1.3,0.6-2.2c-0.1-0.4-0.3-0.7-0.5-1c-0.2-0.3-0.5-0.5-0.8-0.5C46.6,26.9,46.5,26.9,46.3,26.9"
			/>
		
			<linearGradient id="XMLID_23_" gradientUnits="userSpaceOnUse" x1="-535.1617" y1="-360.9213" x2="-534.754" y2="-360.9213" gradientTransform="matrix(67.6231 383.5098 383.5098 -67.6231 174667.5312 180819.75)">
			<stop  offset="0" style="stop-color:#EEB268"/>
			<stop  offset="0.1892" style="stop-color:#F3DEAC"/>
			<stop  offset="0.3572" style="stop-color:#EEB268"/>
			<stop  offset="0.5707" style="stop-color:#F4E4B6"/>
			<stop  offset="0.6711" style="stop-color:#F2E0B1"/>
			<stop  offset="0.9357" style="stop-color:#EEB268"/>
			<stop  offset="0.9775" style="stop-color:#F1D8A3"/>
			<stop  offset="0.9838" style="stop-color:#F1D69F"/>
			<stop  offset="0.9894" style="stop-color:#F0CF95"/>
			<stop  offset="0.9947" style="stop-color:#EFC382"/>
			<stop  offset="0.9998" style="stop-color:#EEB369"/>
			<stop  offset="1" style="stop-color:#EEB268"/>
		</linearGradient>
		<path id="XMLID_289_" class="st11" d="M66.4,25.7c-0.1,0.3-0.2,0.9-0.4,1.8c-0.1,0.4-0.2,0.7-0.2,0.7c0,0.1,0,0.2,0.1,0.2
			c0,0,0,0,0,0c0.1,0,0.2-0.2,0.3-0.6c0.2-0.7,0.4-1.1,0.8-1.3c0.2-0.2,0.5-0.2,0.8-0.2c0.1,0,0.3,0,0.5,0c0.1,0,0.2,0,0.3,0l-1,5.8
			c-0.3,1.7-0.5,2.7-0.5,2.8c-0.1,0.2-0.2,0.3-0.5,0.3c-0.1,0-0.1,0-0.2,0c-0.2,0-0.3,0-0.3,0c0,0,0,0,0,0c0,0-0.1,0-0.1,0.1
			c0,0.1,0,0.1,0.1,0.1l1.8,0.2l1.1,0.2c0.1,0,0.2,0,0.3,0.1c0.1,0,0.1,0,0.2,0c0,0,0,0,0.1,0c0.1,0,0.1,0,0.1-0.1
			c0-0.1,0-0.1-0.1-0.1c-0.4-0.1-0.6-0.2-0.7-0.3c-0.1-0.1-0.1-0.2-0.1-0.5l1.4-8.4c0.1,0,0.3,0.1,0.5,0.1c0.5,0.1,0.8,0.3,1,0.6
			c0.2,0.3,0.3,0.8,0.3,1.5c0,0.4,0,0.6,0.1,0.6c0,0,0,0,0,0c0,0,0.1,0,0.1-0.1c0,0,0-0.1,0-0.3c0.1-0.9,0.1-1.7,0.2-2.3
			c-0.1,0-0.3,0-0.5-0.1c-0.3,0-0.6-0.1-0.9-0.1c-0.3,0-0.7-0.1-1.1-0.2c-0.7-0.1-1.3-0.2-1.8-0.3c-0.5-0.1-0.7-0.1-0.7-0.1
			l-0.8-0.1L66.4,25.7"/>
		
			<linearGradient id="XMLID_24_" gradientUnits="userSpaceOnUse" x1="-535.1617" y1="-360.9053" x2="-534.754" y2="-360.9053" gradientTransform="matrix(67.6231 383.5098 383.5098 -67.6231 174667.5312 180819.75)">
			<stop  offset="0" style="stop-color:#EEB268"/>
			<stop  offset="0.1892" style="stop-color:#F3DEAC"/>
			<stop  offset="0.3572" style="stop-color:#EEB268"/>
			<stop  offset="0.5707" style="stop-color:#F4E4B6"/>
			<stop  offset="0.6711" style="stop-color:#F2E0B1"/>
			<stop  offset="0.9357" style="stop-color:#EEB268"/>
			<stop  offset="0.9775" style="stop-color:#F1D8A3"/>
			<stop  offset="0.9838" style="stop-color:#F1D69F"/>
			<stop  offset="0.9894" style="stop-color:#F0CF95"/>
			<stop  offset="0.9947" style="stop-color:#EFC382"/>
			<stop  offset="0.9998" style="stop-color:#EEB369"/>
			<stop  offset="1" style="stop-color:#EEB268"/>
		</linearGradient>
		<path id="XMLID_294_" class="st12" d="M74.8,37.3c-0.1,0-0.2,0-0.3,0c-0.4-0.1-0.6-0.4-0.7-0.9c-0.2-1.1,0-2.6,0.6-4.4
			c0.4-1.3,0.9-2.3,1.4-3c0.4-0.6,0.8-0.8,1.2-0.8c0.1,0,0.2,0,0.3,0c0.5,0.1,0.7,0.5,0.8,1.1c0.1,0.9-0.2,2.3-0.7,4.1
			c-0.5,1.5-1,2.6-1.5,3.3C75.4,37.1,75.1,37.3,74.8,37.3 M76.5,27.8c-0.7,0-1.3,0.2-2,0.7c-0.9,0.7-1.6,1.7-2,3.1
			c-0.4,1.3-0.4,2.5-0.1,3.7c0.4,1.1,1,1.9,1.9,2.1c0.3,0.1,0.6,0.1,0.8,0.1c0.7,0,1.3-0.3,2-0.8c0.9-0.7,1.6-1.7,2-3.1
			c0.4-1.3,0.5-2.6,0.1-3.7c-0.3-1.1-1-1.8-1.9-2.1C77.1,27.9,76.8,27.8,76.5,27.8"/>
		
			<linearGradient id="XMLID_25_" gradientUnits="userSpaceOnUse" x1="-535.1617" y1="-360.8905" x2="-534.754" y2="-360.8905" gradientTransform="matrix(67.6231 383.5098 383.5098 -67.6231 174667.5312 180819.75)">
			<stop  offset="0" style="stop-color:#EEB268"/>
			<stop  offset="0.1892" style="stop-color:#F3DEAC"/>
			<stop  offset="0.3572" style="stop-color:#EEB268"/>
			<stop  offset="0.5707" style="stop-color:#F4E4B6"/>
			<stop  offset="0.6711" style="stop-color:#F2E0B1"/>
			<stop  offset="0.9357" style="stop-color:#EEB268"/>
			<stop  offset="0.9775" style="stop-color:#F1D8A3"/>
			<stop  offset="0.9838" style="stop-color:#F1D69F"/>
			<stop  offset="0.9894" style="stop-color:#F0CF95"/>
			<stop  offset="0.9947" style="stop-color:#EFC382"/>
			<stop  offset="0.9998" style="stop-color:#EEB369"/>
			<stop  offset="1" style="stop-color:#EEB268"/>
		</linearGradient>
		<path id="XMLID_317_" class="st13" d="M83.1,35.2c-0.1,0-0.2,0-0.2,0c-0.1,0-0.3-0.1-0.6-0.2l1.6-3.3c0.1-0.3,0.3-0.4,0.5-0.4
			c0.1,0,0.2,0,0.3,0.1c0.6,0.3,0.6,1.1,0,2.3c-0.4,0.8-0.8,1.3-1.2,1.5C83.3,35.2,83.2,35.2,83.1,35.2 M82,29.8c0,0-0.1,0-0.1,0.1
			c0,0.1,0,0.1,0.2,0.2c0.3,0.1,0.4,0.3,0.4,0.4c0,0.1-0.2,0.5-0.4,1L79,38c-0.2,0.3-0.3,0.5-0.4,0.5c0,0,0,0-0.1,0
			c-0.1,0-0.3-0.1-0.6-0.2c0,0-0.1,0-0.1,0c0,0-0.1,0-0.1,0.1l0,0.1c0,0,0.1,0.1,0.4,0.2l1.2,0.5c0.3,0.1,0.6,0.3,0.8,0.4
			c0.3,0.1,0.4,0.2,0.5,0.2l0.1,0.1c0,0,0.1,0,0.1,0c0,0,0.1,0,0.1-0.1c0-0.1,0-0.2-0.2-0.2c-0.3-0.2-0.5-0.3-0.5-0.4
			c0-0.1,0.1-0.4,0.3-0.9l1.5-3.2c0.3,0.2,0.5,0.4,0.7,0.4c0.4,0.2,0.8,0.3,1.2,0.3c0.3,0,0.5-0.1,0.8-0.2c0.6-0.2,1.1-0.7,1.5-1.4
			c0.3-0.7,0.3-1.3,0-2c-0.2-0.4-0.7-0.8-1.4-1.1l-2.8-1.3C82.1,29.8,82,29.8,82,29.8"/>
		
			<linearGradient id="XMLID_26_" gradientUnits="userSpaceOnUse" x1="-535.1617" y1="-360.8741" x2="-534.754" y2="-360.8741" gradientTransform="matrix(67.6231 383.5098 383.5098 -67.6231 174667.5312 180819.75)">
			<stop  offset="0" style="stop-color:#EEB268"/>
			<stop  offset="0.1892" style="stop-color:#F3DEAC"/>
			<stop  offset="0.3572" style="stop-color:#EEB268"/>
			<stop  offset="0.5707" style="stop-color:#F4E4B6"/>
			<stop  offset="0.6711" style="stop-color:#F2E0B1"/>
			<stop  offset="0.9357" style="stop-color:#EEB268"/>
			<stop  offset="0.9775" style="stop-color:#F1D8A3"/>
			<stop  offset="0.9838" style="stop-color:#F1D69F"/>
			<stop  offset="0.9894" style="stop-color:#F0CF95"/>
			<stop  offset="0.9947" style="stop-color:#EFC382"/>
			<stop  offset="0.9998" style="stop-color:#EEB369"/>
			<stop  offset="1" style="stop-color:#EEB268"/>
		</linearGradient>
		<path id="XMLID_320_" class="st14" d="M88.2,43.7c-0.4,0-0.7-0.1-1-0.3c-0.2-0.2-0.4-0.3-0.4-0.5c0-0.1,0.2-0.4,0.5-0.9l4.1-5.8
			c0.2-0.3,0.4-0.4,0.5-0.4c0,0,0,0,0,0c0.1,0,0.3,0.1,0.5,0.2c0.6,0.4,0.9,1.1,0.8,1.8c-0.1,0.8-0.6,1.8-1.5,3.1
			C90.4,42.7,89.2,43.7,88.2,43.7 M90.1,33.8C90,33.8,90,33.9,90.1,33.8c-0.2,0.1-0.1,0.2,0,0.3c0.2,0.2,0.4,0.3,0.3,0.5
			c0,0.1-0.1,0.3-0.4,0.7l-4.1,5.8c-0.3,0.4-0.5,0.6-0.5,0.7c0,0-0.1,0-0.1,0c-0.1,0-0.3-0.1-0.4-0.2c-0.1-0.1-0.2-0.1-0.2-0.1
			c0,0-0.1,0-0.1,0c0,0.1,0,0.1,0.1,0.2l0.6,0.4c0.4,0.3,0.6,0.4,0.6,0.4l0.3,0.2c0.2,0.2,0.4,0.3,0.5,0.4c0.1,0.1,0.2,0.1,0.2,0.1
			c0.8,0.6,1.5,0.9,2.1,1c0.2,0,0.4,0,0.6,0c0.6,0,1.3-0.2,1.9-0.5c0.8-0.4,1.4-1.1,2-1.9c0.9-1.3,1.3-2.5,1-3.8
			c-0.2-1-0.8-1.8-1.9-2.6c-0.3-0.2-0.6-0.4-1.1-0.8c-0.3-0.2-0.7-0.5-1-0.7l-0.2-0.1C90.1,33.9,90.1,33.8,90.1,33.8"/>
		
			<linearGradient id="XMLID_27_" gradientUnits="userSpaceOnUse" x1="-535.1617" y1="-360.8595" x2="-534.754" y2="-360.8595" gradientTransform="matrix(67.6231 383.5098 383.5098 -67.6231 174667.5312 180819.75)">
			<stop  offset="0" style="stop-color:#EEB268"/>
			<stop  offset="0.1892" style="stop-color:#F3DEAC"/>
			<stop  offset="0.3572" style="stop-color:#EEB268"/>
			<stop  offset="0.5707" style="stop-color:#F4E4B6"/>
			<stop  offset="0.6711" style="stop-color:#F2E0B1"/>
			<stop  offset="0.9357" style="stop-color:#EEB268"/>
			<stop  offset="0.9775" style="stop-color:#F1D8A3"/>
			<stop  offset="0.9838" style="stop-color:#F1D69F"/>
			<stop  offset="0.9894" style="stop-color:#F0CF95"/>
			<stop  offset="0.9947" style="stop-color:#EFC382"/>
			<stop  offset="0.9998" style="stop-color:#EEB369"/>
			<stop  offset="1" style="stop-color:#EEB268"/>
		</linearGradient>
		<path id="XMLID_321_" class="st15" d="M97.2,39C97.1,39,97.1,39,97.2,39c-0.1,0.1-0.1,0.2,0.1,0.4c0.1,0.1,0.2,0.3,0.2,0.3
			c0,0.1,0,0.2-0.1,0.3c0,0-0.2,0.3-0.6,0.7l-4.8,5.2c-0.1,0.1-0.2,0.2-0.3,0.3c-0.1,0.1-0.1,0.1-0.2,0.1c-0.1,0-0.3-0.1-0.4-0.2
			c-0.2-0.1-0.2-0.2-0.3-0.2c0,0,0,0,0,0c0,0,0,0-0.1,0c0,0.1,0,0.1,0.1,0.2l0.7,0.6c1.1,0.9,2.3,2.1,3.6,3.5c0,0,0,0,0,0
			c0,0,0.1-0.1,0.2-0.2c0.1-0.1,0.4-0.4,0.7-0.7c0.6-0.6,0.9-0.9,0.9-0.9c0.1-0.1,0.1-0.2,0.1-0.2c0,0,0,0,0,0c0,0-0.1,0-0.2,0.1
			c-0.5,0.4-0.8,0.6-1,0.7c-0.2,0.1-0.4,0.2-0.7,0.2c-0.3,0-0.5-0.1-0.7-0.2c-0.1-0.1-0.5-0.4-1.1-0.9l-0.5-0.5l3.2-3.4l0.5,0.5
			c0.3,0.3,0.5,0.6,0.5,0.8c0,0.2-0.2,0.6-0.6,1.1c-0.2,0.2-0.2,0.3-0.3,0.4c0,0,0,0.1,0,0.1c0,0,0,0,0.1,0c0,0,0.1,0,0.1-0.1
			c0.1-0.1,0.1-0.1,0.1-0.2c0.3-0.3,0.7-0.8,1.2-1.3c0.2-0.2,0.4-0.4,0.5-0.5c0.4-0.4,0.6-0.6,0.7-0.7c0.1-0.1,0.1-0.2,0.1-0.3
			c0,0,0,0,0,0c-0.1,0-0.2,0.1-0.4,0.3c-0.5,0.4-0.8,0.6-1.1,0.6c0,0,0,0-0.1,0c-0.3,0-0.7-0.3-1.3-0.9l2.8-3
			c0.4,0.3,0.6,0.5,0.8,0.7c0.5,0.5,0.8,0.9,0.8,1.3c0,0.4-0.1,0.9-0.5,1.4c-0.1,0.2-0.2,0.3-0.1,0.4c0,0,0,0,0.1,0
			c0,0,0.1,0,0.1-0.1c0.1-0.1,0.3-0.3,0.6-0.7l1-1.2c-0.2-0.1-0.3-0.3-0.5-0.4l-0.5-0.5c-0.6-0.6-1.4-1.3-2.4-2.2
			c-0.3-0.2-0.5-0.4-0.6-0.6C97.3,39.1,97.2,39,97.2,39"/>
		
			<linearGradient id="XMLID_28_" gradientUnits="userSpaceOnUse" x1="-535.1617" y1="-360.8478" x2="-534.754" y2="-360.8478" gradientTransform="matrix(67.6231 383.5098 383.5098 -67.6231 174667.5312 180819.75)">
			<stop  offset="0" style="stop-color:#EEB268"/>
			<stop  offset="0.1892" style="stop-color:#F3DEAC"/>
			<stop  offset="0.3572" style="stop-color:#EEB268"/>
			<stop  offset="0.5707" style="stop-color:#F4E4B6"/>
			<stop  offset="0.6711" style="stop-color:#F2E0B1"/>
			<stop  offset="0.9357" style="stop-color:#EEB268"/>
			<stop  offset="0.9775" style="stop-color:#F1D8A3"/>
			<stop  offset="0.9838" style="stop-color:#F1D69F"/>
			<stop  offset="0.9894" style="stop-color:#F0CF95"/>
			<stop  offset="0.9947" style="stop-color:#EFC382"/>
			<stop  offset="0.9998" style="stop-color:#EEB369"/>
			<stop  offset="1" style="stop-color:#EEB268"/>
		</linearGradient>
		<path id="XMLID_322_" class="st16" d="M102.7,45.8c-0.1,0-0.2,0-0.3,0c-1.2,0.1-2.3,0.6-3.4,1.5c-1.1,0.9-1.8,2-2.1,3.2
			c-0.2,1.1,0,2.1,0.6,2.8c0.4,0.5,1,0.7,1.8,0.8c0,0.2,0,0.5-0.2,0.8c0,0.1-0.1,0.2,0,0.2c0,0,0,0,0,0c0,0,0.1,0,0.1-0.1
			c0.1-0.1,0.1-0.1,0.2-0.2c0.1-0.1,0.3-0.3,0.5-0.5c0.2-0.1,0.4-0.3,0.8-0.6c0.4-0.3,0.7-0.5,0.7-0.5l0.2-0.1
			c0.1-0.1,0.1-0.1,0.1-0.2c0,0,0,0-0.1,0c-0.1,0-0.2,0.1-0.4,0.2c-0.8,0.5-1.5,0.7-2.1,0.7c-0.5,0-0.9-0.2-1.2-0.6
			c-0.3-0.4-0.4-0.8-0.2-1.3c0.3-0.9,1.1-2,2.4-3.1c0.9-0.8,1.7-1.3,2.5-1.7c0.6-0.3,1-0.4,1.4-0.4c0.4,0,0.8,0.1,1,0.4
			c0.6,0.7,0.3,1.7-0.8,3c-0.2,0.3-0.3,0.4-0.3,0.5c0,0,0,0,0.1,0c0,0,0.1,0,0.2-0.1l0.2-0.2c0.1-0.1,0.3-0.2,0.5-0.4
			c0.3-0.2,0.4-0.3,0.4-0.4c0.4-0.3,0.7-0.5,0.9-0.7c0,0,0.1-0.1,0.1-0.1c0.1,0,0.1-0.1,0-0.1c0,0,0,0-0.1,0c0,0-0.1,0-0.2,0
			c0,0,0,0-0.1,0c-0.2,0-0.3-0.1-0.4-0.2c-0.1-0.1-0.1-0.3-0.1-0.5c0-0.5-0.2-0.9-0.5-1.3C104.5,46.2,103.7,45.8,102.7,45.8"/>
		
			<linearGradient id="XMLID_29_" gradientUnits="userSpaceOnUse" x1="-535.1617" y1="-360.8411" x2="-534.754" y2="-360.8411" gradientTransform="matrix(67.6231 383.5098 383.5098 -67.6231 174667.5312 180819.75)">
			<stop  offset="0" style="stop-color:#EEB268"/>
			<stop  offset="0.1892" style="stop-color:#F3DEAC"/>
			<stop  offset="0.3572" style="stop-color:#EEB268"/>
			<stop  offset="0.5707" style="stop-color:#F4E4B6"/>
			<stop  offset="0.6711" style="stop-color:#F2E0B1"/>
			<stop  offset="0.9357" style="stop-color:#EEB268"/>
			<stop  offset="0.9775" style="stop-color:#F1D8A3"/>
			<stop  offset="0.9838" style="stop-color:#F1D69F"/>
			<stop  offset="0.9894" style="stop-color:#F0CF95"/>
			<stop  offset="0.9947" style="stop-color:#EFC382"/>
			<stop  offset="0.9998" style="stop-color:#EEB369"/>
			<stop  offset="1" style="stop-color:#EEB268"/>
		</linearGradient>
		<path id="XMLID_324_" class="st17" d="M107.5,50.2C107.4,50.2,107.4,50.2,107.5,50.2c-0.1,0.1-0.1,0.2,0,0.4
			c0.1,0.2,0.2,0.3,0.2,0.4c0,0.1-0.1,0.1-0.2,0.2l-6.8,4.3c-0.3,0.2-0.5,0.3-0.5,0.3c0,0,0,0,0,0c-0.1,0-0.2-0.1-0.3-0.3
			c-0.1-0.2-0.2-0.2-0.3-0.2c0,0,0,0,0,0c-0.1,0-0.1,0.1,0,0.2l0.1,0.1c0.1,0.1,0.2,0.3,0.3,0.4c0.1,0.1,0.1,0.2,0.2,0.3
			c0.3,0.4,0.5,0.8,0.8,1.2l0.4,0.6c0,0.1,0.1,0.1,0.1,0.1c0,0,0,0,0.1,0c0.1,0,0.1-0.1,0-0.3c-0.2-0.3-0.2-0.4-0.2-0.5
			c0-0.1,0.2-0.2,0.6-0.5l3-1.9c0,0.1-0.1,0.2-0.1,0.3l-1.5,2.9c-0.4,0.7-0.6,1.1-0.6,1.1c0,0-0.1,0-0.1,0c0,0-0.1,0-0.1-0.1
			c-0.1-0.2-0.2-0.3-0.2-0.3c0,0,0,0,0,0c0,0,0,0-0.1,0c-0.1,0-0.1,0.1,0,0.3l0.3,0.4l0.3,0.5c0.1,0.1,0.2,0.3,0.4,0.6
			c0.2,0.4,0.4,0.7,0.5,0.9c0.1,0.2,0.2,0.3,0.3,0.3c0,0,0,0,0,0c0.1,0,0-0.2-0.1-0.4c-0.1-0.2-0.1-0.3-0.1-0.5
			c0-0.1,0.2-0.5,0.5-1.1c0.6-1.3,1.1-2.3,1.4-3c0.5-1,0.8-1.6,0.9-1.8c1.3,0,2.5,0.1,3.7,0.2c0.2,0,0.4,0.1,0.5,0.1
			c0.1,0.1,0.2,0.2,0.4,0.4c0,0.1,0.1,0.1,0.1,0.1c0,0,0.1,0,0.1,0c0.1,0,0.1-0.1,0-0.2l-0.6-0.9c0,0-0.1-0.1-0.1-0.1
			c0,0,0-0.1-0.1-0.1l-0.3-0.4c-0.1-0.1-0.1-0.2-0.2-0.2c0,0,0,0-0.1,0c-0.1,0-0.1,0.1,0,0.2c0.2,0.3,0.3,0.4,0.3,0.5
			c0,0.1,0,0.1,0,0.1c-0.1,0.1-0.5,0.1-1,0.1c-0.2,0-0.3,0-0.5,0c-2-0.1-3.1-0.1-3.4-0.2l3.1-2c0.2-0.1,0.4-0.2,0.4-0.2c0,0,0,0,0,0
			c0.1,0,0.2,0.1,0.4,0.4c0.1,0.1,0.1,0.2,0.2,0.2c0,0,0,0,0,0c0.1,0,0.1-0.1,0-0.2c-0.1-0.1-0.1-0.2-0.1-0.2l-0.2-0.4l-0.4-0.5
			c0-0.1-0.1-0.1-0.1-0.2c0-0.1-0.1-0.1-0.1-0.1l-0.7-1.1C107.6,50.2,107.5,50.2,107.5,50.2"/>
		
			<linearGradient id="XMLID_31_" gradientUnits="userSpaceOnUse" x1="-535.1617" y1="-360.8332" x2="-534.754" y2="-360.8332" gradientTransform="matrix(67.6231 383.5098 383.5098 -67.6231 174667.5312 180819.75)">
			<stop  offset="0" style="stop-color:#EEB268"/>
			<stop  offset="0.1892" style="stop-color:#F3DEAC"/>
			<stop  offset="0.3572" style="stop-color:#EEB268"/>
			<stop  offset="0.5707" style="stop-color:#F4E4B6"/>
			<stop  offset="0.6711" style="stop-color:#F2E0B1"/>
			<stop  offset="0.9357" style="stop-color:#EEB268"/>
			<stop  offset="0.9775" style="stop-color:#F1D8A3"/>
			<stop  offset="0.9838" style="stop-color:#F1D69F"/>
			<stop  offset="0.9894" style="stop-color:#F0CF95"/>
			<stop  offset="0.9947" style="stop-color:#EFC382"/>
			<stop  offset="0.9998" style="stop-color:#EEB369"/>
			<stop  offset="1" style="stop-color:#EEB268"/>
		</linearGradient>
		<path id="XMLID_325_" class="st18" d="M112.8,58.9c-0.3,0.1-0.9,0.3-1.7,0.7c-0.4,0.2-0.7,0.2-0.7,0.3c-0.1,0-0.1,0.1-0.1,0.2
			c0,0,0.1,0,0.1,0c0.1,0,0.3,0,0.5-0.1c0.4-0.1,0.8-0.2,1.1-0.2c0.2,0,0.3,0,0.5,0.1c0.4,0.1,0.7,0.5,0.9,1c0,0.1,0.1,0.2,0.1,0.3
			l-5.4,2.4c-1.6,0.7-2.5,1.1-2.6,1.1c0,0-0.1,0-0.1,0c-0.2,0-0.3-0.2-0.5-0.5c-0.1-0.2-0.2-0.3-0.2-0.3c0,0,0,0,0,0c0,0,0,0-0.1,0
			c-0.1,0-0.1,0.1,0,0.2l0.8,1.7l0.4,1c0,0.1,0.1,0.2,0.1,0.3c0,0.1,0,0.1,0.1,0.2c0,0.1,0.1,0.1,0.1,0.1c0,0,0,0,0.1,0
			c0.1,0,0.1-0.1,0.1-0.2c-0.1-0.4-0.2-0.7-0.2-0.8c0-0.1,0.1-0.2,0.3-0.3l7.7-3.5c0.1,0.1,0.1,0.3,0.2,0.5c0.2,0.5,0.2,0.9,0.1,1.2
			c-0.1,0.3-0.5,0.7-1.1,1.1c-0.3,0.2-0.4,0.3-0.4,0.4c0,0,0,0,0.1,0c0,0,0,0,0.1,0c0,0,0.1-0.1,0.3-0.1c0.8-0.5,1.5-0.8,2-1.1
			c-0.1-0.1-0.1-0.3-0.2-0.5c-0.1-0.2-0.2-0.5-0.4-0.8c-0.1-0.3-0.3-0.6-0.5-1c-0.3-0.7-0.6-1.2-0.7-1.7c-0.2-0.4-0.3-0.7-0.3-0.7
			l-0.3-0.7L112.8,58.9"/>
		
			<linearGradient id="XMLID_32_" gradientUnits="userSpaceOnUse" x1="-535.1617" y1="-360.83" x2="-534.754" y2="-360.83" gradientTransform="matrix(67.6231 383.5098 383.5098 -67.6231 174667.5312 180819.75)">
			<stop  offset="0" style="stop-color:#EEB268"/>
			<stop  offset="0.1892" style="stop-color:#F3DEAC"/>
			<stop  offset="0.3572" style="stop-color:#EEB268"/>
			<stop  offset="0.5707" style="stop-color:#F4E4B6"/>
			<stop  offset="0.6711" style="stop-color:#F2E0B1"/>
			<stop  offset="0.9357" style="stop-color:#EEB268"/>
			<stop  offset="0.9775" style="stop-color:#F1D8A3"/>
			<stop  offset="0.9838" style="stop-color:#F1D69F"/>
			<stop  offset="0.9894" style="stop-color:#F0CF95"/>
			<stop  offset="0.9947" style="stop-color:#EFC382"/>
			<stop  offset="0.9998" style="stop-color:#EEB369"/>
			<stop  offset="1" style="stop-color:#EEB268"/>
		</linearGradient>
		<path id="XMLID_328_" class="st19" d="M109,72.8C109,72.8,109,72.8,109,72.8c-0.7,0-1.1-0.2-1.2-0.7c-0.1-0.4,0-0.8,0.3-1.1
			c0.8-0.8,2.1-1.5,4-2.1c1.2-0.4,2.2-0.6,3-0.6c0.1,0,0.1,0,0.2,0c0.9,0,1.4,0.3,1.5,0.8c0.1,0.5,0,0.9-0.5,1.3
			c-0.7,0.6-2,1.2-3.7,1.7C111.1,72.5,110,72.8,109,72.8 M113.3,66.8c-0.7,0-1.3,0.1-2.1,0.3c-1.3,0.4-2.3,1.1-3.1,2.1
			c-0.7,1-0.9,1.9-0.6,2.8c0.3,0.9,1,1.6,2.1,1.9c0.5,0.2,1.1,0.2,1.6,0.2c0.7,0,1.3-0.1,2.1-0.3c1.3-0.4,2.4-1.1,3.1-2
			c0.7-0.9,0.9-1.8,0.6-2.8c-0.3-1-1-1.6-2.1-2C114.4,66.9,113.8,66.8,113.3,66.8"/>
		
			<linearGradient id="XMLID_33_" gradientUnits="userSpaceOnUse" x1="-535.1617" y1="-360.8288" x2="-534.754" y2="-360.8288" gradientTransform="matrix(67.6231 383.5098 383.5098 -67.6231 174667.5312 180819.75)">
			<stop  offset="0" style="stop-color:#EEB268"/>
			<stop  offset="0.1892" style="stop-color:#F3DEAC"/>
			<stop  offset="0.3572" style="stop-color:#EEB268"/>
			<stop  offset="0.5707" style="stop-color:#F4E4B6"/>
			<stop  offset="0.6711" style="stop-color:#F2E0B1"/>
			<stop  offset="0.9357" style="stop-color:#EEB268"/>
			<stop  offset="0.9775" style="stop-color:#F1D8A3"/>
			<stop  offset="0.9838" style="stop-color:#F1D69F"/>
			<stop  offset="0.9894" style="stop-color:#F0CF95"/>
			<stop  offset="0.9947" style="stop-color:#EFC382"/>
			<stop  offset="0.9998" style="stop-color:#EEB369"/>
			<stop  offset="1" style="stop-color:#EEB268"/>
		</linearGradient>
		<path id="XMLID_331_" class="st20" d="M118.8,76.5L118.8,76.5C118.8,76.6,118.8,76.6,118.8,76.5 M118.1,73.6
			C118.1,73.6,118.1,73.6,118.1,73.6c-0.1,0-0.1,0.1-0.1,0.1c0,0.4,0,0.6,0,0.7c-0.1,0.1-0.2,0.2-0.5,0.2l-5.3,1
			c-1.2,0.2-2.1,0.6-2.5,1c-0.6,0.6-0.8,1.3-0.6,2.1c0.3,1.3,1.1,1.9,2.5,1.9c0.4,0,0.8,0,1.2-0.1l5.8-1.1c0.1,0,0.1,0,0.2,0
			c0,0,0.1,0,0.1,0c0.1,0,0.2,0.2,0.3,0.5c0.1,0.2,0.1,0.3,0.2,0.3c0,0,0,0,0,0c0.1,0,0.1-0.1,0.1-0.4l-0.1-0.3c0-0.1,0-0.2-0.1-0.3
			c0-0.1-0.1-0.2-0.1-0.2c0-0.1,0-0.3-0.1-0.5c0-0.2-0.1-0.4-0.1-0.5c0-0.1-0.1-0.1-0.1-0.1c0,0,0,0,0,0c-0.1,0-0.1,0.2-0.1,0.4
			c0,0.2,0,0.3,0,0.4c-0.1,0.1-0.2,0.2-0.4,0.2c0,0-0.1,0-0.2,0c-0.1,0-0.2,0-0.3,0.1l-4.5,0.9c-0.7,0.1-1.3,0.2-1.8,0.2
			c-0.4,0-0.7,0-0.9-0.1c-0.4-0.1-0.7-0.5-0.8-1c-0.1-0.4,0-0.8,0.3-1.1c0.2-0.3,0.6-0.5,1.2-0.6c0.2-0.1,0.7-0.2,1.4-0.3l5.1-1
			c0.1,0,0.2,0,0.3,0c0,0,0,0,0,0c0.1,0,0.2,0.2,0.3,0.5c0,0.2,0.1,0.3,0.2,0.3c0,0,0,0,0,0c0.1,0,0.1-0.1,0.1-0.2l0-0.2
			c0,0,0,0,0,0s0-0.2-0.1-0.5c-0.1-0.3-0.2-0.8-0.3-1.4l-0.1-0.7c0,0,0-0.1,0-0.2l0-0.1C118.3,73.7,118.2,73.6,118.1,73.6"/>
		
			<linearGradient id="XMLID_39_" gradientUnits="userSpaceOnUse" x1="-535.1617" y1="-360.8294" x2="-534.754" y2="-360.8294" gradientTransform="matrix(67.6231 383.5098 383.5098 -67.6231 174667.5312 180819.75)">
			<stop  offset="0" style="stop-color:#EEB268"/>
			<stop  offset="0.1892" style="stop-color:#F3DEAC"/>
			<stop  offset="0.3572" style="stop-color:#EEB268"/>
			<stop  offset="0.5707" style="stop-color:#F4E4B6"/>
			<stop  offset="0.6711" style="stop-color:#F2E0B1"/>
			<stop  offset="0.9357" style="stop-color:#EEB268"/>
			<stop  offset="0.9775" style="stop-color:#F1D8A3"/>
			<stop  offset="0.9838" style="stop-color:#F1D69F"/>
			<stop  offset="0.9894" style="stop-color:#F0CF95"/>
			<stop  offset="0.9947" style="stop-color:#EFC382"/>
			<stop  offset="0.9998" style="stop-color:#EEB369"/>
			<stop  offset="1" style="stop-color:#EEB268"/>
		</linearGradient>
		<path id="XMLID_334_" class="st21" d="M117.4,85.4c-0.5,0-0.9-0.1-1.2-0.2c-0.4-0.2-0.6-0.6-0.7-1.2l2.3-0.2
			c0.7-0.1,1.1-0.1,1.4-0.1c0.1,0,0.1,0,0.2,0c0.2,0,0.3,0.2,0.3,0.4c0.1,0.7-0.5,1.2-1.7,1.3C117.8,85.4,117.6,85.4,117.4,85.4
			 M119.5,81.1C119.5,81.1,119.5,81.1,119.5,81.1c-0.1,0-0.1,0.1-0.1,0.3c0,0.2,0,0.4,0,0.5c0,0.1-0.1,0.1-0.2,0.2
			c-0.1,0-0.4,0.1-0.9,0.1l-7.2,0.7c-0.2,0-0.4,0-0.5,0c-0.1,0-0.1,0-0.1,0c-0.1,0-0.2-0.2-0.3-0.4c0-0.3-0.1-0.4-0.2-0.4
			c0,0,0,0,0,0c-0.1,0-0.1,0.1-0.1,0.2l0,0.5c0,0,0,0.1,0,0.2c0,0.1,0,0.2,0,0.2l0.1,0.8c0,0.1,0,0.2,0,0.4l0,0.2l0.1,1.1
			c0,0.1,0,0.1,0.1,0.1c0,0,0,0,0,0c0.1,0,0.1-0.1,0.1-0.3c0-0.3,0-0.5,0-0.6c0.1-0.1,0.2-0.2,0.3-0.2c0.1,0,0.4-0.1,1.2-0.1
			l3.2-0.3c0,0.4-0.1,0.7-0.3,1c-0.3,0.2-0.8,0.4-1.5,0.5l-1.1,0.2c-0.5,0.1-0.9,0.3-1.3,0.7c-0.5,0.4-0.7,1-0.7,1.7
			c0,0.5,0.3,0.7,0.7,0.7c0,0,0.1,0,0.1,0c0.3,0,0.5-0.2,0.4-0.4c0-0.2-0.1-0.3-0.3-0.3c0,0,0,0-0.1,0c-0.1,0-0.2,0.1-0.3,0.2
			c-0.1,0.1-0.1,0.1-0.1,0.1c0,0,0,0,0,0c-0.1,0-0.1-0.1-0.1-0.2c0-0.1,0.1-0.3,0.3-0.4c0.2-0.1,0.7-0.3,1.5-0.4
			c1-0.2,1.8-0.4,2.2-0.8c0.4-0.4,0.6-1,0.6-1.8l0.1,0c0.1,0.6,0.3,1.1,0.5,1.4c0.4,0.6,1,0.9,1.8,0.9c0.1,0,0.2,0,0.3,0
			c0.4,0,0.7-0.2,1-0.4c0.3-0.2,0.5-0.5,0.7-0.8c0.2-0.4,0.2-1.1,0.1-2.1l-0.1-0.6c0-0.1,0-0.3,0-0.4c0-0.1,0-0.2,0-0.2l0-0.4
			c0-0.1,0-0.2,0-0.4l0-0.2c0-0.3,0-0.5-0.1-0.5C119.6,81.1,119.6,81.1,119.5,81.1"/>
		
			<linearGradient id="XMLID_42_" gradientUnits="userSpaceOnUse" x1="-535.1617" y1="-360.9833" x2="-534.754" y2="-360.9833" gradientTransform="matrix(67.6231 383.5098 383.5098 -67.6231 174667.5312 180819.75)">
			<stop  offset="0" style="stop-color:#EEB268"/>
			<stop  offset="0.1892" style="stop-color:#F3DEAC"/>
			<stop  offset="0.3572" style="stop-color:#EEB268"/>
			<stop  offset="0.5707" style="stop-color:#F4E4B6"/>
			<stop  offset="0.6711" style="stop-color:#F2E0B1"/>
			<stop  offset="0.9357" style="stop-color:#EEB268"/>
			<stop  offset="0.9775" style="stop-color:#F1D8A3"/>
			<stop  offset="0.9838" style="stop-color:#F1D69F"/>
			<stop  offset="0.9894" style="stop-color:#F0CF95"/>
			<stop  offset="0.9947" style="stop-color:#EFC382"/>
			<stop  offset="0.9998" style="stop-color:#EEB369"/>
			<stop  offset="1" style="stop-color:#EEB268"/>
		</linearGradient>
		<path id="XMLID_335_" class="st22" d="M54.1,67.8l-0.8,9.6c0,0.3-0.3,0.5-0.5,0.5c0,0,0,0,0,0l-2.6,0c0,0,0,0,0,0
			c-0.3,0-0.6,0.3-0.6,0.6l0.5,5l0,0c4.4-2.7,5.9-8.7,5.5-12.3C55.5,69.6,54.7,68.6,54.1,67.8"/>
		
			<linearGradient id="XMLID_43_" gradientUnits="userSpaceOnUse" x1="-535.1617" y1="-360.9733" x2="-534.754" y2="-360.9733" gradientTransform="matrix(67.6231 383.5098 383.5098 -67.6231 174667.5312 180819.75)">
			<stop  offset="0" style="stop-color:#EEB268"/>
			<stop  offset="0.1892" style="stop-color:#F3DEAC"/>
			<stop  offset="0.3572" style="stop-color:#EEB268"/>
			<stop  offset="0.5707" style="stop-color:#F4E4B6"/>
			<stop  offset="0.6711" style="stop-color:#F2E0B1"/>
			<stop  offset="0.9357" style="stop-color:#EEB268"/>
			<stop  offset="0.9775" style="stop-color:#F1D8A3"/>
			<stop  offset="0.9838" style="stop-color:#F1D69F"/>
			<stop  offset="0.9894" style="stop-color:#F0CF95"/>
			<stop  offset="0.9947" style="stop-color:#EFC382"/>
			<stop  offset="0.9998" style="stop-color:#EEB369"/>
			<stop  offset="1" style="stop-color:#EEB268"/>
		</linearGradient>
		<path id="XMLID_336_" class="st23" d="M65.7,73.7c-1.3,2.2-2.5,4.4-3.9,6.5c-2.7,4.1-6.2,7.3-10.5,9.6c-0.3,1.4-0.6,2.7-1,4
			c0.3,0,0.7,0,1,0c5,0,9.9-1.2,14.1-3.9c-2.1-1.3-3.4-3.5-3.2-6.6c0.2-3.3,1.6-5.8,3.6-7.8L65.7,73.7"/>
		
			<linearGradient id="XMLID_44_" gradientUnits="userSpaceOnUse" x1="-535.1617" y1="-360.9573" x2="-534.754" y2="-360.9573" gradientTransform="matrix(67.6231 383.5098 383.5098 -67.6231 174667.5312 180819.75)">
			<stop  offset="0" style="stop-color:#EEB268"/>
			<stop  offset="0.1892" style="stop-color:#F3DEAC"/>
			<stop  offset="0.3572" style="stop-color:#EEB268"/>
			<stop  offset="0.5707" style="stop-color:#F4E4B6"/>
			<stop  offset="0.6711" style="stop-color:#F2E0B1"/>
			<stop  offset="0.9357" style="stop-color:#EEB268"/>
			<stop  offset="0.9775" style="stop-color:#F1D8A3"/>
			<stop  offset="0.9838" style="stop-color:#F1D69F"/>
			<stop  offset="0.9894" style="stop-color:#F0CF95"/>
			<stop  offset="0.9947" style="stop-color:#EFC382"/>
			<stop  offset="0.9998" style="stop-color:#EEB369"/>
			<stop  offset="1" style="stop-color:#EEB268"/>
		</linearGradient>
		<path id="XMLID_337_" class="st24" d="M55.6,49.9l-0.4,5c2.3-2.1,4.7-3.7,7.3-4.4v-0.1C60,50.2,57.7,50,55.6,49.9"/>
		
			<linearGradient id="XMLID_45_" gradientUnits="userSpaceOnUse" x1="-535.1617" y1="-360.9513" x2="-534.754" y2="-360.9513" gradientTransform="matrix(67.6231 383.5098 383.5098 -67.6231 174667.5312 180819.75)">
			<stop  offset="0" style="stop-color:#EEB268"/>
			<stop  offset="0.1892" style="stop-color:#F3DEAC"/>
			<stop  offset="0.3572" style="stop-color:#EEB268"/>
			<stop  offset="0.5707" style="stop-color:#F4E4B6"/>
			<stop  offset="0.6711" style="stop-color:#F2E0B1"/>
			<stop  offset="0.9357" style="stop-color:#EEB268"/>
			<stop  offset="0.9775" style="stop-color:#F1D8A3"/>
			<stop  offset="0.9838" style="stop-color:#F1D69F"/>
			<stop  offset="0.9894" style="stop-color:#F0CF95"/>
			<stop  offset="0.9947" style="stop-color:#EFC382"/>
			<stop  offset="0.9998" style="stop-color:#EEB369"/>
			<stop  offset="1" style="stop-color:#EEB268"/>
		</linearGradient>
		<path id="XMLID_338_" class="st25" d="M66,77.2c-0.7,0.6-1.3,1.2-1.8,2c-2.9,4.1-0.9,8,2.4,10c0.4-0.3,0.8-0.6,1.1-0.9
			c-0.1-0.3-0.1-0.7-0.2-1c-0.1-0.3,0.2-0.6,0.6-0.6h0.3c0.3,0,0.5-0.2,0.6-0.5l0.7-7.8c0-0.3-0.2-0.6-0.6-0.6c0,0,0,0,0,0l-2.6,0
			c0,0,0,0,0,0c-0.3,0-0.5-0.2-0.5-0.5L66,77.2"/>
		
			<linearGradient id="XMLID_46_" gradientUnits="userSpaceOnUse" x1="-535.1617" y1="-360.9853" x2="-534.754" y2="-360.9853" gradientTransform="matrix(67.6231 383.5098 383.5098 -67.6231 174667.5312 180819.75)">
			<stop  offset="0" style="stop-color:#EEB268"/>
			<stop  offset="0.1892" style="stop-color:#F3DEAC"/>
			<stop  offset="0.3572" style="stop-color:#EEB268"/>
			<stop  offset="0.5707" style="stop-color:#F4E4B6"/>
			<stop  offset="0.6711" style="stop-color:#F2E0B1"/>
			<stop  offset="0.9357" style="stop-color:#EEB268"/>
			<stop  offset="0.9775" style="stop-color:#F1D8A3"/>
			<stop  offset="0.9838" style="stop-color:#F1D69F"/>
			<stop  offset="0.9894" style="stop-color:#F0CF95"/>
			<stop  offset="0.9947" style="stop-color:#EFC382"/>
			<stop  offset="0.9998" style="stop-color:#EEB369"/>
			<stop  offset="1" style="stop-color:#EEB268"/>
		</linearGradient>
		<path id="XMLID_339_" class="st26" d="M68.4,91.6c-4.6,2-9.9,2.8-15.1,2.8c-1,0-2.1,0-3.1-0.1c-4.1,14.4-13,25.7-13.1,25.7h8.5
			c3-5.6,7.3-10.9,14-10.9c6.8,0,11,5.3,14,10.9l8.5,0c0,0-4.9-6.2-9.1-15.2c-1.9,0.6-4.1,1-6.2,1c-1.9,0-3.8-0.3-5.5-1
			c-1.4-0.5-2.8-1.2-3.8-1.3c-1.1-0.2-2.5,0.2-2.4-1.1c0.1-0.9,0.8-1.2,1.5-1.2c0.1,0,0.2,0,0.3,0c0,0,0,0,0,0
			c0.1,0,0.1-0.1,0.1-0.2c-1.1-2.2-0.9-5.3,1.8-6.1c0.3-0.1,0.7-0.1,1-0.1c2.7,0,3.3,3.9,0.2,4.8c0,0-0.1,0.1-0.1,0.1
			c0.1,0.6,0.1,1,0.2,1.4c0,0,0.1,0.1,0.1,0.1c0.1,0,0.1-0.1,0.1-0.1c0-0.4,0.3-0.9,0.9-0.9c0.2,0,0.3,0,0.5,0.1
			c0.9,0.4,0.2,1,0.2,2c0,0.7,0.3,0.9,0.5,1c0,0,0,0,0,0c0.1,0,0.1-0.1,0.1-0.1c-0.1-0.7,0.1-1.4,0.8-1.6c0.1,0,0.2,0,0.3,0
			c0.6,0,0.9,0.6,1,1.5c0.1,0.6,0.3,0.9,0.6,1.1c0,0,0,0,0.1,0c0.1,0,0.1-0.1,0.1-0.1c-0.1-0.4,0-1.1,0.6-1.3c0.1,0,0.2-0.1,0.3-0.1
			c0.6,0,0.9,0.5,1.3,1.3c0.3,0.7,0.8,0.8,1,0.8c0.1,0,0.1,0,0.1,0c0-0.1-0.6-0.7,0-1.4c0.2-0.2,0.5-0.3,0.8-0.3
			c0.5,0,1,0.3,1.4,0.6c0.2,0.2,0.5,0.5,0.7,0.5l0.1,0c0.3-0.1,0.6-0.3,0.8-0.4C70.9,100.1,69.4,96,68.4,91.6"/>
		
			<linearGradient id="XMLID_47_" gradientUnits="userSpaceOnUse" x1="-535.1617" y1="-360.9695" x2="-534.754" y2="-360.9695" gradientTransform="matrix(67.6231 383.5098 383.5098 -67.6231 174667.5312 180819.75)">
			<stop  offset="0" style="stop-color:#EEB268"/>
			<stop  offset="0.1892" style="stop-color:#F3DEAC"/>
			<stop  offset="0.3572" style="stop-color:#EEB268"/>
			<stop  offset="0.5707" style="stop-color:#F4E4B6"/>
			<stop  offset="0.6711" style="stop-color:#F2E0B1"/>
			<stop  offset="0.9357" style="stop-color:#EEB268"/>
			<stop  offset="0.9775" style="stop-color:#F1D8A3"/>
			<stop  offset="0.9838" style="stop-color:#F1D69F"/>
			<stop  offset="0.9894" style="stop-color:#F0CF95"/>
			<stop  offset="0.9947" style="stop-color:#EFC382"/>
			<stop  offset="0.9998" style="stop-color:#EEB369"/>
			<stop  offset="1" style="stop-color:#EEB268"/>
		</linearGradient>
		<path id="XMLID_340_" class="st27" d="M62.4,56c-1.4,0-2.9,0.1-4.3,0.4c-1.3,1.7-2.4,3.5-3.5,5.3l-0.4,5c1.1,0.5,2.6,1.8,2.9,4
			c0.9,5.9-1.7,10.7-6.9,13.3l0.2,2.3c0,0.3,0.3,0.5,0.6,0.5h0.3c0.1,0,0.2,0,0.3,0.1l0,0l0,0c2.7-3.2,4.8-7.2,6.7-10.3
			c2-3.4,4.2-6.9,6.9-10l-0.9-10.4C63.6,56,63,56,62.4,56"/>
		
			<linearGradient id="XMLID_48_" gradientUnits="userSpaceOnUse" x1="-535.1617" y1="-360.9476" x2="-534.754" y2="-360.9476" gradientTransform="matrix(67.6231 383.5098 383.5098 -67.6231 174667.5312 180819.75)">
			<stop  offset="0" style="stop-color:#EEB268"/>
			<stop  offset="0.1892" style="stop-color:#F3DEAC"/>
			<stop  offset="0.3572" style="stop-color:#EEB268"/>
			<stop  offset="0.5707" style="stop-color:#F4E4B6"/>
			<stop  offset="0.6711" style="stop-color:#F2E0B1"/>
			<stop  offset="0.9357" style="stop-color:#EEB268"/>
			<stop  offset="0.9775" style="stop-color:#F1D8A3"/>
			<stop  offset="0.9838" style="stop-color:#F1D69F"/>
			<stop  offset="0.9894" style="stop-color:#F0CF95"/>
			<stop  offset="0.9947" style="stop-color:#EFC382"/>
			<stop  offset="0.9998" style="stop-color:#EEB369"/>
			<stop  offset="1" style="stop-color:#EEB268"/>
		</linearGradient>
		<path id="XMLID_341_" class="st28" d="M59.8,4.4h-0.4c0,0-0.1,0.1-0.1,0.2c0,1.4-0.1,10.6-0.1,10.7c0,0.2-0.1,0.2-0.1,0.2
			l-0.4,0.1c0,0-0.1,0.1-0.1,0.2c0,0.1-0.4,17.4-0.4,17.4c0,0.2-0.1,0.4-0.3,0.4l-1.5,0.6c-0.2,0.1-0.3,0.3-0.3,0.4V45L55.8,47
			c0.4,0,0.7,0,1.1,0c0.8,0,1.6,0,2.4,0c1.4,0,2.8,0,4.2,0.1l-0.2-2V34.7c0-0.2-0.1-0.4-0.3-0.4l-1.5-0.6c-0.2-0.1-0.3-0.2-0.3-0.4
			c0,0-0.4-17.3-0.4-17.4c0-0.1-0.1-0.2-0.1-0.2l-0.3-0.1c0,0-0.2-0.1-0.2-0.2c0-0.1-0.1-9.3-0.1-10.7C59.9,4.5,59.8,4.4,59.8,4.4"
			/>
		
			<linearGradient id="XMLID_49_" gradientUnits="userSpaceOnUse" x1="-535.1617" y1="-360.9518" x2="-534.754" y2="-360.9518" gradientTransform="matrix(67.6231 383.5098 383.5098 -67.6231 174667.5312 180819.75)">
			<stop  offset="0" style="stop-color:#EEB268"/>
			<stop  offset="0.1892" style="stop-color:#F3DEAC"/>
			<stop  offset="0.3572" style="stop-color:#EEB268"/>
			<stop  offset="0.5707" style="stop-color:#F4E4B6"/>
			<stop  offset="0.6711" style="stop-color:#F2E0B1"/>
			<stop  offset="0.9357" style="stop-color:#EEB268"/>
			<stop  offset="0.9775" style="stop-color:#F1D8A3"/>
			<stop  offset="0.9838" style="stop-color:#F1D69F"/>
			<stop  offset="0.9894" style="stop-color:#F0CF95"/>
			<stop  offset="0.9947" style="stop-color:#EFC382"/>
			<stop  offset="0.9998" style="stop-color:#EEB369"/>
			<stop  offset="1" style="stop-color:#EEB268"/>
		</linearGradient>
		<path id="XMLID_342_" class="st29" d="M63.8,51.4c-2,0.9-3.7,2.5-5.2,4.4c0.9-0.1,1.9-0.1,2.8-0.1c0.9,0,1.9,0,2.8,0.1L63.8,51.4"
			/>
		
			<linearGradient id="XMLID_50_" gradientUnits="userSpaceOnUse" x1="-535.1617" y1="-361.0026" x2="-534.754" y2="-361.0026" gradientTransform="matrix(67.6231 383.5098 383.5098 -67.6231 174667.5312 180819.75)">
			<stop  offset="0" style="stop-color:#EEB268"/>
			<stop  offset="0.1892" style="stop-color:#F3DEAC"/>
			<stop  offset="0.3572" style="stop-color:#EEB268"/>
			<stop  offset="0.5707" style="stop-color:#F4E4B6"/>
			<stop  offset="0.6711" style="stop-color:#F2E0B1"/>
			<stop  offset="0.9357" style="stop-color:#EEB268"/>
			<stop  offset="0.9775" style="stop-color:#F1D8A3"/>
			<stop  offset="0.9838" style="stop-color:#F1D69F"/>
			<stop  offset="0.9894" style="stop-color:#F0CF95"/>
			<stop  offset="0.9947" style="stop-color:#EFC382"/>
			<stop  offset="0.9998" style="stop-color:#EEB369"/>
			<stop  offset="1" style="stop-color:#EEB268"/>
		</linearGradient>
		<path id="XMLID_343_" class="st30" d="M41.4,57c-1.2,0-2.3,1-1.7,2.1c0.2,0.5,0.6,0.7,0.9,0.7c0.5,0,1.1-0.4,1.6-0.7
			c0.2-0.1,0.4-0.2,0.6-0.2c0.3,0,0.6,0.1,0.9,0.2c0.3,0.1,0.5,0.2,0.6,0.2c0,0,0.1,0,0.1,0c0.5-1-1.2-2.1-2.5-2.3
			C41.6,57,41.5,57,41.4,57"/>
		
			<linearGradient id="XMLID_51_" gradientUnits="userSpaceOnUse" x1="-535.1617" y1="-361.0211" x2="-534.754" y2="-361.0211" gradientTransform="matrix(67.6231 383.5098 383.5098 -67.6231 174667.5312 180819.75)">
			<stop  offset="0" style="stop-color:#EEB268"/>
			<stop  offset="0.1892" style="stop-color:#F3DEAC"/>
			<stop  offset="0.3572" style="stop-color:#EEB268"/>
			<stop  offset="0.5707" style="stop-color:#F4E4B6"/>
			<stop  offset="0.6711" style="stop-color:#F2E0B1"/>
			<stop  offset="0.9357" style="stop-color:#EEB268"/>
			<stop  offset="0.9775" style="stop-color:#F1D8A3"/>
			<stop  offset="0.9838" style="stop-color:#F1D69F"/>
			<stop  offset="0.9894" style="stop-color:#F0CF95"/>
			<stop  offset="0.9947" style="stop-color:#EFC382"/>
			<stop  offset="0.9998" style="stop-color:#EEB369"/>
			<stop  offset="1" style="stop-color:#EEB268"/>
		</linearGradient>
		<path id="XMLID_347_" class="st31" d="M40.9,66.4c1.3-1.7,2.8-3.2,4.6-4.5C44.6,63.8,42.9,65.3,40.9,66.4 M38,78.6
			c-0.6-2.4-0.5-5.1,0.2-7.2c0.3-0.8,0.6-1.7,1.1-2.5c3.7-1.6,6.8-4.4,7.6-8c1.7-1.1,3.5-2.1,5.3-2.8c-3.7,4.4-7,10-10.2,15.1
			C40.9,75,39.5,76.9,38,78.6 M55.8,47c-8.9,0.3-27.2,2-32.2,10.6c-0.5,0.7-0.8,1.8-1.6,3.4c-1.1,2.2-2.2,1.3-2.5,2.1
			c-0.3,0.6,0.7,0.9,1.5,0.9c0.2,0,0.4,0,0.5,0c0.6-0.1,0.8-0.8,0.9-0.9c0.3,5.2,4.6,7.4,9.6,7.4c1.1,0,2.3-0.1,3.4-0.3
			c-0.5,1-0.8,2-1.1,3.1c-0.7,2.8-0.4,5.7,0.9,7.9c-1.3,1-2.8,1.9-4.5,2.4c-0.8,0.2-1.6,0.4-2.6,0.6c-2.2,0-2.3-1.4-3.2-1.7
			c-0.1,0-0.2-0.1-0.3-0.1c-0.3,0-0.4,0.2-0.5,0.4c-0.1,0.2-0.1,0.4-0.2,0.4c0,0-0.1,0-0.1-0.1c-0.4-0.4-0.1-1.7-1.2-2.1
			c-0.1,0-0.2-0.1-0.3-0.1c-0.3,0-0.5,0.3-0.6,0.5c-0.1,0.3-0.1,0.5-0.2,0.5c0,0,0,0,0,0c-0.2-0.3,0-2.1-0.8-2.6
			c-0.2-0.1-0.4-0.2-0.6-0.2c-0.5,0-0.9,0.4-1.1,0.7c-0.1,0.2-0.2,0.4-0.3,0.4c-0.1,0-0.2-0.1-0.4-0.5c-0.1-0.3-0.1-0.6-0.1-0.9
			c3.4-0.9,2.8-5,0-5c-0.3,0-0.6,0-0.9,0.1c-3.2,0.9-3.1,4.8-1.4,6.9c2.2,2.8,6,3.8,9.9,3.8c3.7,0,7.6-0.9,10.4-2.1
			c1.6,1.8,3.9,3,6.8,3c1,0,2-0.1,3-0.4c1.4-0.4,2.8-0.9,4-1.4l0-0.5l0,0c-1,0.6-2.3,1.1-3.6,1.3c-0.5,0.1-0.9,0.1-1.4,0.1
			c-2.9,0-4.8-1.4-6-3.5c5.8-3.6,9.5-9.4,12.8-15c0.8-1.3,1.7-3,2.7-4.7l0.6-6.7c-0.6,0.5-1.1,1.1-1.7,1.7c-2.2,0.5-4.3,1.3-6.3,2.2
			c0.1-0.7,0.3-1.3,0.6-1.4c0.6-0.2,1.5,0.1,1.5-0.8c0-0.6-0.5-0.9-1-0.9c-0.3,0-0.7,0.1-1,0.4c0,0-0.1-1.2-1.8-1.9
			c-0.6-0.3-1.1-0.4-1.5-0.4c-0.8,0-1.3,0.4-1.6,0.8c-0.4,0.6-0.1,2,1.5,2c0.2,0,0.3,0,0.5,0c0.1,0,0.2,0,0.3,0
			c1.2,0,1.5,1.4,1.4,2.7c-4,2.1-7.4,5.1-9.7,8.7c-1,0.3-2.1,0.4-3.2,0.5c-0.2,0-0.5,0-0.7,0c-3.8,0-8-2.1-8.9-5.4
			c0-0.2,0-0.5,0.2-0.5c0.1,0,0.2,0,0.3,0.2c0.2,0.2,0.6,0.3,0.9,0.3c0.6,0,1.3-0.3,1.6-0.6c0.5-0.4,0.5-1,0.1-1c0,0-0.1,0-0.1,0
			c-0.1,0-0.2,0.1-0.4,0.1c-0.3,0-0.7-0.1-1.2-0.4c-0.6-0.4-0.8-1.9-0.4-3.1c0.1-0.1,0.1-0.2,0.2-0.3c3.7-5,11.8-6.6,17.7-7.3
			c4.1-0.5,7.6-0.7,11.1-0.7c0.6,0,1.3,0,1.9,0L55.8,47"/>
		
			<linearGradient id="XMLID_52_" gradientUnits="userSpaceOnUse" x1="-535.1617" y1="-360.8999" x2="-534.754" y2="-360.8999" gradientTransform="matrix(67.6231 383.5098 383.5098 -67.6231 174667.5312 180819.75)">
			<stop  offset="0" style="stop-color:#EEB268"/>
			<stop  offset="0.1892" style="stop-color:#F3DEAC"/>
			<stop  offset="0.3572" style="stop-color:#EEB268"/>
			<stop  offset="0.5707" style="stop-color:#F4E4B6"/>
			<stop  offset="0.6711" style="stop-color:#F2E0B1"/>
			<stop  offset="0.9357" style="stop-color:#EEB268"/>
			<stop  offset="0.9775" style="stop-color:#F1D8A3"/>
			<stop  offset="0.9838" style="stop-color:#F1D69F"/>
			<stop  offset="0.9894" style="stop-color:#F0CF95"/>
			<stop  offset="0.9947" style="stop-color:#EFC382"/>
			<stop  offset="0.9998" style="stop-color:#EEB369"/>
			<stop  offset="1" style="stop-color:#EEB268"/>
		</linearGradient>
		<path id="XMLID_348_" class="st32" d="M83.8,52.4c-0.9,0-1.4,0.9-1.9,1.6c-0.5,0.7-1.2,1.4-1.4,1.4c0,0,0,0,0,0
			c-0.2,0,0-1.1-0.9-1.6c-0.2-0.1-0.4-0.1-0.6-0.1c-0.8,0-1.8,0.8-2.2,2.2c-0.5,1.7-0.9,2.3-1.6,2.8c-0.2,0.1-0.4,0.2-0.6,0.3
			c-3.1-1.8-6.7-2.9-10.5-3.2l0,0.3c3.4,0.3,6.7,1.4,9.3,3.6c-3.3,1.7-6.1,4.1-8.5,6.9l0.6,7.2c2.6-4.5,5.1-8.9,8.9-12.7
			c1.9,2.1,2.8,5,2.8,7.7c0,0.5,0,0.9,0,1.4c-4.4,1.1-8.7,2.8-11.5,5.6l0.1,1.6c2.9-2.5,7.1-3.8,11.1-4.6c-1.1,6-4.4,11.7-9.3,15.7
			c0.2,1.1,0.4,2.2,0.7,3.2c0.2-0.1,0.4-0.2,0.6-0.3c0.9,0.2,1.9,0.3,2.9,0.3c5.8,0,12.5-2.9,14.3-7.9c1-2.6,1.1-7.4,0.2-8.4
			c-0.3-0.3-0.6-0.5-0.9-0.5c-0.6,0-1.1,0.6-1,1.2c0.1,0.8,1.1,0.9,1.4,0.9c0,0,0.1,0,0.1,0.1c0.5,1.6,0.2,2.6,0,3
			c0,0-0.1,0.1-0.1,0.1c0,0-0.1,0-0.1-0.1c-0.2-1.1-1.1-1.5-1.7-1.6c-0.1,0-0.1,0-0.2,0c-0.6,0-1.4,0.4-0.9,1.8
			c0.1,0.3,0.4,0.4,0.7,0.4c0.3,0,0.6-0.1,0.8-0.1c0,0,0,0,0,0c0,0,0.1,0,0.1,0.1c0.3,1.9-0.3,2.8-0.9,4.2c-0.3,0.7-0.4,0.8-0.5,0.8
			c-0.1,0-0.1-0.2-0.1-0.2c0.3-2.7-0.2-3.5-1-4c-0.2-0.1-0.4-0.2-0.6-0.2c-0.7,0-1.5,0.6-1.3,1.4c0.2,0.5,0.6,0.7,1,0.7
			c0.1,0,0.3,0,0.4,0c0.1,0,0.2,0,0.2,0c0,0,0,0,0,0c0.1,0,0.4,0.5-0.2,2.2c-0.4,1.1-0.9,1.7-1.3,2c0,0,0,0-0.1,0
			c-0.1,0-0.1-0.1-0.1-0.1c0.1-0.3,0.1-0.7,0.1-1.8c0-0.8-0.7-1.3-1.3-1.3c-0.4,0-0.9,0.3-0.9,0.9c-0.2,1.4,1,1,1,1.6
			c0,0.6-1.2,3.6-7,4.2c-0.2,0-0.5,0-0.7,0c-0.4,0-0.8,0-1.1-0.1c1.8-0.9,3.4-2,4.9-3.4c4.5-4,6.7-9.7,6.4-15.3
			c3.6-0.4,6.5-0.8,9.3-0.8c2.4,0,4.8,0.3,7.4,0.9c0.3,0.1,0,0.3,0,0.3C93.5,74,86.8,84.9,81,94.3c-2.1,3.4-4.8,7.4-8.5,9.5
			c0.2,0.3,0.3,0.7,0.5,1c1.3-0.4,2.6-0.9,3.6-1.5c6.5-3.5,10.4-9.8,13.9-15.9c2.5-4.3,4.4-11.2,9.3-13.9c0.3-0.2,0.9-0.3,1.5-0.3
			c0.9,0,2.1,0.3,2.7,1.3c1.1,1.7,0.7,3.2,0.5,3.9c-0.7,2.4-2.1,3.5-2.9,3.7c-0.8,0.3-2.8-0.2-4.1,0.6c-1.1,0.7-0.5,2.4,1.5,2.4
			c0.1,0,0.1,0,0.2,0c2.2-0.1,4.1-2.3,5.7-5.9c1.1-2.5,0.5-4.4-0.2-5.6c-0.5-1-1.2-2.2-2.6-3.1c-2.4-1.5-6.1-2.3-9.8-2.3
			c-0.5,0-1,0-1.4,0c-2.7,0.2-6.1,0.4-9.6,1c-0.8-3.4-2.6-6.6-5.6-9.2c2.1-1.6,3.5-2.8,5.5-3.5c0.7-0.2,1.6-0.3,2.4-0.3
			c0.9,0,1.9,0.1,2.5,0.4c0.4,0.2,0.8,0.2,1.1,0.2c1,0,1.7-0.7,1.1-1.7c-0.4-0.7-1.2-0.9-1.9-0.9c-0.7,0-1.3,0.2-1.6,0.3
			c-0.2,0.1-0.3,0.1-0.4,0.1c-0.1,0-0.1-0.1,0-0.2c0.1-0.1,0.9-1.7-0.4-2C84,52.4,83.9,52.4,83.8,52.4"/>
		
			<linearGradient id="XMLID_53_" gradientUnits="userSpaceOnUse" x1="-535.1617" y1="-360.9189" x2="-534.754" y2="-360.9189" gradientTransform="matrix(67.6231 383.5098 383.5098 -67.6231 174667.5312 180819.75)">
			<stop  offset="0" style="stop-color:#EEB268"/>
			<stop  offset="0.1892" style="stop-color:#F3DEAC"/>
			<stop  offset="0.3572" style="stop-color:#EEB268"/>
			<stop  offset="0.5707" style="stop-color:#F4E4B6"/>
			<stop  offset="0.6711" style="stop-color:#F2E0B1"/>
			<stop  offset="0.9357" style="stop-color:#EEB268"/>
			<stop  offset="0.9775" style="stop-color:#F1D8A3"/>
			<stop  offset="0.9838" style="stop-color:#F1D69F"/>
			<stop  offset="0.9894" style="stop-color:#F0CF95"/>
			<stop  offset="0.9947" style="stop-color:#EFC382"/>
			<stop  offset="0.9998" style="stop-color:#EEB369"/>
			<stop  offset="1" style="stop-color:#EEB268"/>
		</linearGradient>
		<path id="XMLID_349_" class="st33" d="M63.4,47l0.4,4.4c0.5-0.3,1.1-0.5,1.7-0.6c3-0.7,4.4-1,7-1.1c0.2,0,0.4,0,0.6,0
			c4,0,3.9,1.4,5.1,1.6c0.1,0,0.3,0,0.4,0c1.8,0,0.9-2,0.9-2c0.6,0.6,2.2,1.3,3.2,1.3c0.7,0,1.1-0.4,0.7-1.5
			c-0.9-2.3-12.8-1.9-14.9-2C66.8,47.1,65.1,47.1,63.4,47"/>
		
			<linearGradient id="XMLID_54_" gradientUnits="userSpaceOnUse" x1="-535.1617" y1="-361.0183" x2="-534.754" y2="-361.0183" gradientTransform="matrix(67.6231 383.5098 383.5098 -67.6231 174667.5312 180819.75)">
			<stop  offset="0" style="stop-color:#EEB268"/>
			<stop  offset="0.1892" style="stop-color:#F3DEAC"/>
			<stop  offset="0.3572" style="stop-color:#EEB268"/>
			<stop  offset="0.5707" style="stop-color:#F4E4B6"/>
			<stop  offset="0.6711" style="stop-color:#F2E0B1"/>
			<stop  offset="0.9357" style="stop-color:#EEB268"/>
			<stop  offset="0.9775" style="stop-color:#F1D8A3"/>
			<stop  offset="0.9838" style="stop-color:#F1D69F"/>
			<stop  offset="0.9894" style="stop-color:#F0CF95"/>
			<stop  offset="0.9947" style="stop-color:#EFC382"/>
			<stop  offset="0.9998" style="stop-color:#EEB369"/>
			<stop  offset="1" style="stop-color:#EEB268"/>
		</linearGradient>
		<path id="XMLID_350_" class="st34" d="M51.4,86.8L51.4,86.8c-2.5,2.9-5.5,5.2-9.3,5.9c-0.8-0.1-5.8-1.3-8.9-1.3
			c-1.4,0-2.5,0.3-2.5,1c0,1.3,1.8,1.7,4,1.7c2.9,0,6.3-0.6,7.3-0.8c2.6,0.5,5.3,0.8,8.1,1c0-0.1,0.1-0.3,0.1-0.4
			c-2.3-0.1-4.6-0.4-6.9-0.9v-0.1c2.8-0.7,5.5-1.7,7.8-3c0.2-0.8,0.3-1.6,0.4-2.5C51.7,87.1,51.6,86.9,51.4,86.8L51.4,86.8"/>
		
			<linearGradient id="XMLID_55_" gradientUnits="userSpaceOnUse" x1="-535.1617" y1="-360.9767" x2="-534.754" y2="-360.9767" gradientTransform="matrix(67.6231 383.5098 383.5098 -67.6231 174667.5312 180819.75)">
			<stop  offset="0" style="stop-color:#EEB268"/>
			<stop  offset="0.1892" style="stop-color:#F3DEAC"/>
			<stop  offset="0.3572" style="stop-color:#EEB268"/>
			<stop  offset="0.5707" style="stop-color:#F4E4B6"/>
			<stop  offset="0.6711" style="stop-color:#F2E0B1"/>
			<stop  offset="0.9357" style="stop-color:#EEB268"/>
			<stop  offset="0.9775" style="stop-color:#F1D8A3"/>
			<stop  offset="0.9838" style="stop-color:#F1D69F"/>
			<stop  offset="0.9894" style="stop-color:#F0CF95"/>
			<stop  offset="0.9947" style="stop-color:#EFC382"/>
			<stop  offset="0.9998" style="stop-color:#EEB369"/>
			<stop  offset="1" style="stop-color:#EEB268"/>
		</linearGradient>
		<path id="XMLID_351_" class="st35" d="M53.2,66.4c-0.1,0-0.2,0-0.2,0.1c0,0.2,0.5,0.6,1.1,1.3l0.1-1.1
			C53.8,66.5,53.4,66.4,53.2,66.4"/>
	</g>
	<g id="XMLID_397_">
		<path id="XMLID_402_" class="st36" d="M68.4,91.6c-0.3-1.1-0.5-2.1-0.7-3.2c-0.4,0.3-0.7,0.6-1.1,0.9c-3.3-2-5.4-5.9-2.4-10
			c0.5-0.7,1.1-1.4,1.8-2l-0.1-1.6c-2,2-3.3,4.5-3.6,7.8c-0.2,3.1,1.1,5.3,3.2,6.6c-4.5,2.9-9.8,4-15.1,3.9c0,0.1-0.1,0.3-0.1,0.4
			C56.4,94.6,62.8,94,68.4,91.6z"/>
		<path id="XMLID_401_" class="st36" d="M51.7,87.4c-0.1,0.8-0.3,1.7-0.4,2.5c4.2-2.3,7.7-5.5,10.5-9.6c1.4-2.1,2.7-4.3,3.9-6.5
			L65,66.5c-2.7,3.1-4.9,6.6-6.9,10c-1.9,3.1-4,7.1-6.7,10.3C51.6,86.9,51.7,87.1,51.7,87.4z"/>
		<path id="XMLID_400_" class="st36" d="M57,70.7c-0.3-2.2-1.8-3.4-2.9-4l-0.1,1.1c0.7,0.8,1.4,1.9,1.5,3.3
			c0.4,3.6-1.1,9.6-5.5,12.3l0,0.5C55.4,81.3,57.9,76.6,57,70.7z"/>
		<path id="XMLID_399_" class="st36" d="M71.7,104.2C71.7,104.2,71.7,104.2,71.7,104.2c-0.3-0.1-0.6-0.3-0.8-0.5
			c-0.6-0.6-1.6-1-2.2-0.3c-0.6,0.6,0,1.3,0,1.4c0,0.1-0.6,0.1-1.1-0.8c-0.5-0.9-0.8-1.4-1.6-1.2c-0.6,0.2-0.7,0.9-0.6,1.3
			c0,0.1-0.1,0.2-0.2,0.1c-0.2-0.2-0.5-0.5-0.6-1.1c-0.1-1-0.4-1.7-1.2-1.5c-0.8,0.2-1,0.9-0.8,1.6c0,0.1-0.1,0.1-0.1,0.1
			c-0.2-0.1-0.5-0.3-0.5-1c0.1-1,0.7-1.6-0.2-2c-0.9-0.4-1.4,0.2-1.4,0.7c0,0.1-0.1,0.2-0.2,0c-0.2-0.5-0.2-0.9-0.2-1.4
			c0,0,0-0.1,0.1-0.1c3.5-1.1,2.3-5.7-1.2-4.7c-2.7,0.8-2.9,3.9-1.8,6.1c0,0.1,0,0.2-0.1,0.2c-0.8-0.1-1.7,0.1-1.8,1.2
			c-0.1,1.3,1.3,0.9,2.4,1.1c1,0.2,2.4,0.8,3.8,1.3c3.5,1.5,8,1.2,11.7,0.1c-0.2-0.3-0.3-0.7-0.5-1C72.3,103.9,72,104.1,71.7,104.2z
			"/>
		<path id="XMLID_398_" class="st36" d="M62.4,50.5v0.1c-2.6,0.7-5,2.2-7.3,4.4l-0.6,6.7c1-1.8,2.2-3.6,3.5-5.3
			c2.1-0.4,4.1-0.5,6.1-0.3l0-0.3c-1.9-0.2-3.7-0.2-5.6,0c1.5-1.9,3.3-3.5,5.2-4.4L63.4,47c-2.2-0.1-4.4-0.1-6.5,0
			c-0.3,0-0.7,0-1.1,0l-0.2,3C57.7,50,60,50.2,62.4,50.5z"/>
	</g>
</g>
</svg>
