<?xml version="1.0" encoding="utf-8"?>
<!-- Generator: Adobe Illustrator 21.1.0, SVG Export Plug-In . SVG Version: 6.00 Build 0)  -->
<svg version="1.1" id="レイヤー_1" xmlns="http://www.w3.org/2000/svg" xmlns:xlink="http://www.w3.org/1999/xlink" x="0px"
	 y="0px" viewBox="0 0 578 163.3" style="enable-background:new 0 0 578 163.3;" xml:space="preserve">
<style type="text/css">
	.st0{fill:#5390CD;}
	.st1{fill:#EE7624;}
	.st2{fill:url(#SVGID_1_);}
	.st3{fill:#79BD28;}
</style>
<g>
	<g>
		<path class="st0" d="M556.1,137.2c-3.9,0-7.1-3.2-7.1-7.1c0-3.9,3.2-7.1,7.1-7.1c3.9,0,7.1,3.2,7.1,7.1
			C563.2,134.1,560,137.2,556.1,137.2v1.3c4.6,0,8.4-3.8,8.4-8.4c0-4.6-3.8-8.4-8.4-8.4c-4.6,0-8.4,3.8-8.4,8.4
			c0,4.6,3.8,8.4,8.4,8.4V137.2z"/>
		<path class="st0" d="M443.2,98.5l12.5-28.8l14.7,1.7l-21.2,44.1l-14.1-1.6l-4.4-30.7l0,0l-14.2,28.5l-14.1-1.6l-8.3-47.5l15.8,1.8
			l2.5,29.8L426,66.3l12.8,1.5L443.2,98.5z"/>
		<path class="st0" d="M360.8,58.6c19.2,0,28.4,14.2,28.4,26.3c0,12.1-9.2,26.3-28.4,26.3c-19.2,0-28.4-14.2-28.4-26.3
			C332.4,72.8,341.6,58.6,360.8,58.6z M360.8,97.4c6.8,0,12.6-5.3,12.6-12.5c0-7.2-5.8-12.5-12.6-12.5c-6.8,0-12.6,5.3-12.6,12.5
			C348.2,92.1,354,97.4,360.8,97.4z"/>
		<path class="st0" d="M242.9,58.6c18.3,0,27.1,14.2,27.1,26.3c0,12.1-8.8,26.3-27.1,26.3c-18.3,0-27.1-14.2-27.1-26.3
			C215.8,72.8,224.6,58.6,242.9,58.6z M242.9,97.4c6.5,0,12.1-5.3,12.1-12.5c0-7.2-5.5-12.5-12.1-12.5c-6.5,0-12.1,5.3-12.1,12.5
			C230.9,92.1,236.4,97.4,242.9,97.4z"/>
		<path class="st0" d="M519.7,115.1c-3.8,4.7-8.3,7.9-13.3,9.6c-4.9,1.8-10.4,2-15.6,0.8c-14.7-3.5-24.6-17.4-21.3-31.4
			c3.1-13.2,17.3-22.7,32.9-19c15.6,3.7,24.4,17.8,21,32.2c-0.4,1.9-0.8,2.6-1.3,3.7l-38.5-9.1c-0.4,5.8,3.9,10.4,9.9,11.8
			c4.7,1.1,7.7-0.2,10.4-2.2L519.7,115.1z M509.4,97.9c0-3-1.8-9-9.7-10.8c-8-1.9-12.2,2.7-13.6,5.3L509.4,97.9z"/>
		<path class="st0" d="M560.1,104.2c-5.9-1.9-12.4,1.4-14.6,8.2l-6.8,21.1l-14.4-4.7l6.6-20.6c3.6-11.3,16.1-21.9,33.2-16.4l8.6,2.8
			l-3.8,11.9L560.1,104.2z"/>
		<path class="st0" d="M135.4,118.7l-14.5,2.5l-8.3-48.1l14.5-2.5L135.4,118.7z"/>
		<path class="st0" d="M84.3,76.5c18,0,26.6,13.9,26.6,25.8c0,11.9-8.6,25.8-26.6,25.8c-18,0-26.6-13.9-26.6-25.8
			C57.7,90.4,66.3,76.5,84.3,76.5z M84.3,114.5c6.4,0,11.8-5.2,11.8-12.2c0-7.1-5.4-12.2-11.8-12.2c-6.4,0-11.8,5.2-11.8,12.2
			C72.5,109.3,77.9,114.5,84.3,114.5z"/>
		<path class="st0" d="M214.4,61.5l-20.6,63.5l-16.3,0.8l6.2-17.2l-20.8-42.9l16.6-1.9l11.2,28l0.2,0l7.4-29.5L214.4,61.5z"/>
		<polygon class="st0" points="35.8,139.9 24.8,105.3 9.9,110.1 6,98 51.3,83.5 55.1,95.6 40.3,100.4 51.3,134.9 		"/>
		<path class="st0" d="M558,130.5c0,0,1.9-0.1,1.9-2.3c0-1.9-1.8-2.4-3.1-2.4h-4v8.8h1.3V127h2.7c0.8,0,1.7,0.2,1.7,1.5
			c0,1.2-0.9,1.4-1.7,1.4H554v1.1h2.4c1.8-0.1,1.7,1.7,1.7,2.5c0,0.5,0.2,0.9,0.4,1.2h1.5c-0.4-0.3-0.5-1-0.6-2.1
			C559.5,132.6,559.4,130.5,558,130.5z"/>
		<polygon class="st0" points="149.4,92.2 161,65.7 144.4,68.3 133,95.3 155.3,115.8 172.9,113.3 		"/>
	</g>
	<polygon class="st1" points="316.2,108.1 316.2,28.7 338.7,28.7 338.7,5.1 263.6,5.1 263.6,28.7 286.1,28.7 286.1,108.1 	"/>
	<linearGradient id="SVGID_1_" gradientUnits="userSpaceOnUse" x1="301.1512" y1="7.2255" x2="301.1512" y2="115.8905">
		<stop  offset="0" style="stop-color:#FFFFFF"/>
		<stop  offset="9.665875e-02" style="stop-color:#FEFAF8"/>
		<stop  offset="0.2407" style="stop-color:#FDEEE3"/>
		<stop  offset="0.4144" style="stop-color:#FAD9C2"/>
		<stop  offset="0.6112" style="stop-color:#F7BC94"/>
		<stop  offset="0.8243" style="stop-color:#F2985A"/>
		<stop  offset="1" style="stop-color:#EE7624"/>
	</linearGradient>
	<polygon class="st2" points="301.2,5.1 316.2,108.1 286.1,108.1 301.2,5.1 	"/>
	<g>
		<g>
			<path class="st3" d="M48.8,53.1c0-4.2,3.5-7.6,7.7-7.6c4.2,0,7.6,3.5,7.6,7.7c0,4.2-3.5,7.6-7.7,7.6
				C52.1,60.8,48.7,57.3,48.8,53.1z"/>
			<path class="st3" d="M127,40.5c0-4.2,3.5-7.6,7.7-7.6c4.2,0,7.6,3.5,7.6,7.7c0,4.2-3.5,7.6-7.7,7.5
				C130.3,48.1,126.9,44.7,127,40.5z"/>
			<path class="st3" d="M204.9,34.3c0-4.2,3.5-7.6,7.7-7.6c4.2,0,7.6,3.5,7.6,7.7c0,4.2-3.5,7.6-7.7,7.6
				C208.2,41.9,204.8,38.5,204.9,34.3z"/>
		</g>
		<g>
			<path class="st3" d="M382.4,34.1c0-4.2,3.4-7.6,7.6-7.6c4.2,0,7.6,3.4,7.6,7.6c0,4.2-3.4,7.6-7.6,7.6
				C385.8,41.7,382.4,38.3,382.4,34.1z"/>
			<path class="st3" d="M460.4,44.1c0-4.2,3.4-7.6,7.6-7.6c4.2,0,7.6,3.4,7.6,7.6c0,4.2-3.4,7.6-7.6,7.6
				C463.8,51.7,460.4,48.3,460.4,44.1z"/>
			<path class="st3" d="M538.3,60.4c0-4.2,3.4-7.6,7.6-7.6c4.2,0,7.6,3.4,7.6,7.6c0,4.2-3.4,7.6-7.6,7.6
				C541.7,68,538.3,64.6,538.3,60.4z"/>
		</g>
	</g>
	<g>
		<path class="st0" d="M131.3,158v-18.4h-4.1v-2.8h11.3v2.8h-4.1V158H131.3z"/>
		<path class="st0" d="M153.6,158v-8.7c0-1.2,0-5-4-5c-2.5,0-4.2,1.8-4.2,4.9v8.7h-3v-21.3h3v7h0.1c1.4-2.1,3.8-2.1,4.5-2.1
			c2.5,0,4.5,1.1,5.6,2.8c0.6,1,1,2.3,1,4.1v9.4H153.6z"/>
		<path class="st0" d="M163.2,151.3c0.7,3.1,3.2,4.3,5.2,4.3c2.2,0,3.8-1.3,4.5-2.7h3c-1.5,4.1-5.2,5.4-7.7,5.4
			c-4.5,0-8.1-3.9-8.1-8.4c0-4.8,3.7-8.4,8.2-8.4c4.3,0,8.1,3.5,8.1,8.2c0,0.5-0.1,1.3-0.1,1.5H163.2z M173.5,149
			c-0.1-2.3-2.3-4.7-5.1-4.7c-2.9,0-5,2.3-5.2,4.7H173.5z"/>
		<path class="st0" d="M190.1,136.7h5.5c6,0,6.6,4.4,6.6,5.9c0,2.4-1.2,3.4-1.9,4c0.9,0.5,3.2,1.9,3.2,5.2c0,2.2-1.2,6.2-7.1,6.2
			h-6.4V136.7z M193.2,145.6h2.5c2.9,0,3.4-1.8,3.4-3c0-3-2.9-3-3.6-3h-2.4V145.6z M193.2,155.1h3.4c3.1,0,3.9-2.2,3.9-3.3
			c0-0.8-0.3-1.5-0.7-2.1c-0.9-1.3-2.4-1.3-3.5-1.3h-3V155.1z"/>
		<path class="st0" d="M210,151.3c0.7,3.1,3.2,4.3,5.2,4.3c2.2,0,3.8-1.3,4.5-2.7h3c-1.5,4.1-5.2,5.4-7.7,5.4
			c-4.5,0-8.1-3.9-8.1-8.4c0-4.8,3.7-8.4,8.2-8.4c4.3,0,8.1,3.5,8.1,8.2c0,0.5-0.1,1.3-0.1,1.5H210z M220.3,149
			c-0.1-2.3-2.3-4.7-5.1-4.7c-2.9,0-5,2.3-5.1,4.7H220.3z"/>
		<path class="st0" d="M233.8,146.3c-0.2-1.3-0.9-1.9-2-1.9c-1.1,0-1.9,0.7-1.9,1.7c0,1.3,1.2,1.7,2.5,2.1c1.2,0.4,4.8,1.4,4.8,5.2
			c0,2.8-2,5.1-5.4,5.1c-2,0-5.6-1.3-5.6-5.6h3c0.1,1.8,1,2.9,2.7,2.9c1.4,0,2.3-0.8,2.3-2.2c0-1.4-1.2-1.9-2.8-2.4
			c-1.7-0.6-4.5-1.4-4.5-4.8c0-2.4,2-4.6,5-4.6c1.8,0,4.8,1.1,4.9,4.7H233.8z"/>
		<path class="st0" d="M244.9,158h-3v-13.2h-2.2V142h2.2v-5.4h3v5.4h2.6v2.7h-2.6V158z"/>
		<path class="st0" d="M275,142.1c-0.6-0.7-2.5-3-6-3c-4.4,0-7.9,3.7-7.9,8.1c0,4.6,3.7,8.3,7.9,8.3c2.2,0,4.3-1.1,5.8-2.8h3.8
			c-2.4,4.2-6.4,5.7-9.7,5.7c-6,0-10.9-5.1-10.9-11.1c0-6.2,5-11,11-11c1.6,0,4.2,0.4,6.5,2.1c1.9,1.4,2.7,2.8,3.3,3.8H275z"/>
		<path class="st0" d="M285.5,140.2h-3v-3.5h3V140.2z M285.5,158h-3V142h3V158z"/>
		<path class="st0" d="M294.5,158h-3v-13.2h-2.2V142h2.2v-5.4h3v5.4h2.6v2.7h-2.6V158z"/>
		<path class="st0" d="M305.9,163.3h-3.1l2.3-5.6l-6.4-15.6h3.2l4.7,12.4l4.8-12.4h3.2L305.9,163.3z"/>
		<path class="st0" d="M326.5,158v-21.3h3.1v18.4h7.4v2.8H326.5z"/>
		<path class="st0" d="M353.3,158v-2.5h-0.1c-1.2,2-3.3,2.9-5.4,2.9c-5.4,0-8.5-4.1-8.5-8.3c0-3.9,2.7-8.5,8.5-8.5
			c2.2,0,4.3,0.9,5.4,2.7h0.1V142h3V158H353.3z M347.8,144.3c-3.7,0-5.5,3.2-5.5,5.7c0,2.9,2.3,5.6,5.4,5.6c3.1,0,5.6-2.6,5.6-5.6
			C353.3,146.6,350.9,144.3,347.8,144.3z"/>
		<path class="st0" d="M372.5,158v-8.7c0-1.2,0-5-4-5c-2.5,0-4.2,1.8-4.2,4.9v8.7h-3V142h2.8v1.7h0.1c1.6-2.1,4-2.1,4.7-2.1
			c2.5,0,4.5,1.1,5.6,2.8c0.6,1,1,2.3,1,4.1v9.4H372.5z"/>
		<path class="st0" d="M393.1,158v-2.3h-0.1c-1.3,1.8-3.3,2.7-5.6,2.7c-5.3,0-8.3-4.1-8.3-8.3c0-3.9,2.6-8.5,8.3-8.5
			c2.2,0,4.3,0.9,5.4,2.4h0.1v-7.3h3V158H393.1z M387.6,144.3c-3.7,0-5.5,3.2-5.5,5.7c0,2.9,2.3,5.6,5.4,5.6c3.1,0,5.6-2.6,5.6-5.6
			C393.1,146.6,390.7,144.3,387.6,144.3z"/>
		<path class="st0" d="M422.7,158v-8.9c0-1.4-0.2-4.8-3.8-4.8c-3.8,0-3.8,3.4-3.8,4.7v8.9h-3v-8.9c0-1.3,0-2.2-0.7-3.3
			c-0.7-1.2-1.9-1.5-3-1.5c-3.9,0-3.9,3.6-3.9,4.7v8.9h-3V142h2.8v1.7h0.1c0.6-0.7,1.6-2.2,4.6-2.2c1.9,0,4.1,0.9,4.9,2.7
			c0.5-0.8,1.7-2.7,5.3-2.7c2.7,0,4.6,1.1,5.6,2.9c0.6,1,0.9,2.3,0.9,3.9v9.6H422.7z"/>
		<path class="st0" d="M443.2,158v-2.5h-0.1c-1.1,2-3.2,2.9-5.4,2.9c-5.4,0-8.5-4.1-8.5-8.3c0-3.9,2.7-8.5,8.5-8.5
			c2.2,0,4.3,0.9,5.4,2.7h0.1V142h3V158H443.2z M437.8,144.3c-3.7,0-5.5,3.2-5.5,5.7c0,2.9,2.3,5.6,5.4,5.6c3.1,0,5.6-2.6,5.6-5.6
			C443.3,146.6,440.9,144.3,437.8,144.3z"/>
		<path class="st0" d="M451.3,158V142h2.8v1.4h0.1c1.3-1.8,3.3-1.8,4.1-1.9v3.1c-0.5,0-1.4,0.2-2.2,0.6c-0.9,0.5-1.8,1.7-1.8,4v8.7
			H451.3z"/>
		<path class="st0" d="M474.3,142l-5.8,7.5l6.7,8.4h-3.7l-6.4-8.3h-0.1v8.3h-3v-21.3h3v13h0.1l5.7-7.7H474.3z"/>
	</g>
</g>
</svg>
