<?xml version="1.0" encoding="utf-8"?>
<!-- Generator: Adobe Illustrator 14.0.0, SVG Export Plug-In  -->
<!DOCTYPE svg PUBLIC "-//W3C//DTD SVG 1.1//EN" "http://www.w3.org/Graphics/SVG/1.1/DTD/svg11.dtd" [
	<!ENTITY ns_flows "http://ns.adobe.com/Flows/1.0/">
]>
<svg version="1.1"
	 xmlns="http://www.w3.org/2000/svg" xmlns:xlink="http://www.w3.org/1999/xlink" xmlns:a="http://ns.adobe.com/AdobeSVGViewerExtensions/3.0/"
	 x="0px" y="0px" width="710px" height="239px" viewBox="249 316 710 239" enable-background="new 249 316 710 239"
	 xml:space="preserve">
<defs>
</defs>
<g>
	<defs>
		<rect id="SVGID_1_" width="1207.559" height="858.898"/>
	</defs>
	<clipPath id="SVGID_2_">
		<use xlink:href="#SVGID_1_"  overflow="visible"/>
	</clipPath>
	<path clip-path="url(#SVGID_2_)" fill="#002852" d="M256.537,553.221l-0.007-7.546l9.626-0.005l-0.028-61.716l-9.675,0.005
		l0.008,14.994c0,0-6.968,0.003-7.001,0.003l-0.011-22.537l45.164-0.025l0.013,22.875c0,0-6.968,0.004-7,0.002
		c0-0.008-0.008-15.327-0.008-15.327l-9.674,0.005l0.029,61.716l9.626-0.005l0.004,7.545L256.537,553.221z"/>
	<path clip-path="url(#SVGID_2_)" fill="#002852" d="M327.213,554.863c-16.152,0.009-24.009-13.063-24.022-39.959
		c-0.013-27.046,7.917-40.197,24.242-40.206c16.374-0.008,24.007,12.759,24.021,40.181
		C351.465,541.402,343.309,554.855,327.213,554.863 M327.437,483.362c-11.155,0.006-11.145,21.454-11.141,31.76
		c0.005,9.199,0.015,30.746,11.17,30.74c9.575-0.004,10.889-14.783,10.881-30.752C338.343,505.608,338.333,483.357,327.437,483.362"
		/>
	<polygon clip-path="url(#SVGID_2_)" fill="#002852" points="390.807,553.151 390.799,545.605 396.762,545.602 384.316,515.458 
		377.59,524.218 377.601,545.612 382.5,545.609 382.504,553.156 360.632,553.167 360.627,545.622 365.958,545.619 365.928,483.901 
		360.689,483.904 360.681,476.359 382.468,476.347 382.471,483.893 377.572,483.896 377.585,512.327 398.252,483.885 
		391.286,483.888 391.282,476.342 412.898,476.332 412.901,483.877 408.193,483.88 392.967,503.988 410.178,545.595 
		413.704,545.593 413.708,553.139 	"/>
	<polygon clip-path="url(#SVGID_2_)" fill="#002852" points="433.1,553.128 433.092,545.583 440.484,545.579 440.476,528.841 
		424.147,483.872 420.775,483.874 420.768,476.327 442.384,476.316 442.387,483.862 436.27,483.865 446.513,515.388 458.63,483.854 
		452.838,483.857 452.83,476.311 471.782,476.3 471.785,483.847 468.436,483.848 451.691,528.586 451.7,545.573 459.264,545.569 
		459.268,553.115 	"/>
	<path clip-path="url(#SVGID_2_)" fill="#002852" d="M503.948,554.77c-16.151,0.009-24.008-13.063-24.021-39.959
		c-0.013-27.046,7.917-40.197,24.241-40.206c16.375-0.008,24.008,12.759,24.021,40.181
		C528.202,541.309,520.045,554.762,503.948,554.77 M504.173,483.269c-11.155,0.006-11.146,21.454-11.141,31.76
		c0.004,9.2,0.015,30.746,11.17,30.74c9.575-0.004,10.889-14.783,10.881-30.752C515.079,505.515,515.069,483.264,504.173,483.269"/>
	<rect x="579.508" y="458.996" clip-path="url(#SVGID_2_)" fill="#A5D6F3" width="48.542" height="2.114"/>
	<rect x="583.922" y="469.12" clip-path="url(#SVGID_2_)" fill="#A5D6F3" width="39.714" height="2.114"/>
	<rect x="581.715" y="464.058" clip-path="url(#SVGID_2_)" fill="#A5D6F3" width="44.128" height="2.114"/>
	<rect x="594.841" y="388.477" clip-path="url(#SVGID_2_)" fill="#A5D6F3" width="17.876" height="2.115"/>
	<polygon clip-path="url(#SVGID_2_)" fill="#FF4612" points="603.764,318.636 597.185,374.477 610.373,374.477 	"/>
	<rect x="589.682" y="378.354" clip-path="url(#SVGID_2_)" fill="#A5D6F3" width="28.196" height="2.114"/>
	<rect x="592.261" y="383.416" clip-path="url(#SVGID_2_)" fill="#A5D6F3" width="23.036" height="2.114"/>
	<path clip-path="url(#SVGID_2_)" fill="#FF4612" d="M585.339,475.11c0,0-14.188,45.236-57.15,79.747
		c9.886-0.063,17.19-0.705,23.28-1.615c24.451-27.021,39.139-78.132,39.139-78.132H585.339z"/>
	<path clip-path="url(#SVGID_2_)" fill="#FF4612" d="M590.608,475.11c0,0-11.272,46.618-25.471,75.458
		c4.357-0.973,8.718-1.944,13.957-2.722c10.066-28.954,16.783-72.736,16.783-72.736H590.608z"/>
	<path clip-path="url(#SVGID_2_)" fill="#FF4612" d="M595.876,475.11c0,0-5.102,41.804-10.828,71.994
		c3.016-0.308,6.349-0.546,10.09-0.691c3.768-30.035,6.007-71.303,6.007-71.303H595.876z"/>
	<path clip-path="url(#SVGID_2_)" fill="#FF4612" d="M679.37,554.857c-42.963-34.51-57.15-79.747-57.15-79.747h-5.269
		c0,0,14.688,51.111,39.139,78.131C662.18,554.153,669.483,554.793,679.37,554.857"/>
	<path clip-path="url(#SVGID_2_)" fill="#FF4612" d="M611.683,475.11c0,0,6.717,43.782,16.782,72.736
		c5.238,0.777,9.601,1.749,13.957,2.722c-14.198-28.84-25.471-75.458-25.471-75.458H611.683z"/>
	<path clip-path="url(#SVGID_2_)" fill="#FF4612" d="M606.414,475.11c0,0,2.237,41.268,6.007,71.303
		c3.741,0.146,7.074,0.384,10.09,0.692c-5.727-30.19-10.828-71.995-10.828-71.995H606.414z"/>
	<path clip-path="url(#SVGID_2_)" fill="#FF4612" d="M606.414,475.11h-2.634h-2.635c0,0-0.527,40.034-2.069,71.188
		c1.51-0.031,3.06-0.052,4.703-0.052h0.001c1.644,0,3.194,0.021,4.703,0.052C606.94,515.144,606.414,475.11,606.414,475.11"/>
	<polygon clip-path="url(#SVGID_2_)" fill="#FF4612" points="601.48,455.12 602.504,394.471 599.954,394.471 596.884,455.12 	"/>
	<polygon clip-path="url(#SVGID_2_)" fill="#FF4612" points="597.402,394.471 594.835,394.471 587.693,455.117 592.289,455.124 	"/>
	<polygon clip-path="url(#SVGID_2_)" fill="#FF4612" points="606.076,455.12 605.055,394.471 607.605,394.467 610.672,455.117 	"/>
	<polygon clip-path="url(#SVGID_2_)" fill="#FF4612" points="610.149,394.467 612.7,394.467 619.862,455.117 615.262,455.117 	"/>
	<path clip-path="url(#SVGID_2_)" fill="#002852" d="M683.87,553.221l-0.009-7.546l9.712-0.005l-0.029-61.716l-9.758,0.005
		l0.007,14.994c0,0-7.028,0.004-7.063,0.004l-0.01-22.537l45.556-0.026l0.014,22.875c0,0-7.028,0.004-7.063,0.002
		c0-0.007-0.006-15.327-0.006-15.327l-9.759,0.005l0.029,61.716l9.711-0.005l0.003,7.546L683.87,553.221z"/>
	<path clip-path="url(#SVGID_2_)" fill="#002852" d="M753.676,554.863c-16.293,0.009-24.218-13.063-24.23-39.959
		c-0.014-27.046,7.985-40.197,24.452-40.206c16.518-0.008,24.217,12.759,24.229,40.181
		C778.139,541.402,769.913,554.855,753.676,554.863 M753.902,483.362c-11.252,0.006-11.242,21.454-11.237,31.76
		c0.005,9.2,0.014,30.746,11.266,30.74c9.659-0.004,10.984-14.784,10.978-30.752C764.903,505.608,764.892,483.356,753.902,483.362"
		/>
	<path clip-path="url(#SVGID_2_)" fill="#002852" d="M826.036,553.142c-1.193,0-1.408,0-1.782-2.293l-6.503-50.008L807.3,550.885
		c-0.418,2.268-0.418,2.268-2.305,2.269l-9.248,0.005c-1.104,0.001-1.469-0.103-1.762-2.273l-11.612-66.981l-4.237,0.002
		l-0.007-7.546l20.742-0.012l0.003,7.546l-4.627,0.002l8.339,53.084l11.298-53.094l-6.307,0.004l-0.009-7.546l21.082-0.012
		l0.003,7.546l-5.171,0.003l8.527,52.895l10.981-52.904l-5.722,0.003l-0.005-7.546l17.604-0.009l0.003,7.546l-4.257,0.002
		l-13.013,66.593c-0.563,2.676-0.646,2.676-2.063,2.677L826.036,553.142z"/>
	<polygon clip-path="url(#SVGID_2_)" fill="#002852" points="861.718,553.145 861.709,545.599 866.926,545.596 866.896,483.88 
		861.768,483.883 861.76,476.337 901.85,476.316 901.86,497.848 894.923,497.852 894.913,483.867 878.377,483.875 878.391,510.232 
		891.346,510.225 891.352,517.996 878.395,518.002 878.406,545.478 895.785,545.469 895.779,530.811 902.714,530.808 
		902.727,553.125 	"/>
	<path clip-path="url(#SVGID_2_)" fill="#002852" d="M947.479,554.643c-7.536,0.005-11.233-6.015-11.306-18.398
		c-0.073-9.708-0.144-18.869-6.939-19.296l-4.146-0.002l0.014,28.595l4.775-0.002l0.004,7.546l-20.865,0.01l-0.006-7.546
		l5.104-0.002l-0.027-61.716l-5.104,0.003l-0.004-7.546l23.729-0.013c16.538-0.009,19.392,7.423,19.398,21.05
		c0.005,13.626-12.81,17.35-12.81,17.35s6.978,6.306,7.118,14.675c0.004,6.668,0.009,17.636,4.353,17.633
		c4.29-0.002,4.496-7.127,4.502-15.668l2.7-0.001c0.097,1.229,0.139,2.905,0.14,5.508
		C958.117,552.521,952.739,554.641,947.479,554.643 M925.086,510.966l3.354-0.002c10.299-0.005,11.833-4.966,11.83-13.633
		c-0.004-8.667-4.396-13.624-11.842-13.62l-3.356,0.002L925.086,510.966z"/>
</g>
<rect id="_x3C_スライス_x3E__1_" x="249" y="315.898" fill="none" width="710" height="239"/>
</svg>
