<?xml version="1.0" encoding="utf-8"?>
<!-- Generator: Adobe Illustrator 20.1.0, SVG Export Plug-In . SVG Version: 6.00 Build 0)  -->
<svg version="1.1" id="レイヤー_1" xmlns="http://www.w3.org/2000/svg" xmlns:xlink="http://www.w3.org/1999/xlink" x="0px"
	 y="0px" viewBox="0 0 231 125" style="enable-background:new 0 0 231 125;" xml:space="preserve">
<style type="text/css">
	.st0{fill:#7A7A7A;}
	.st1{fill:none;stroke:#7A7A7A;stroke-miterlimit:10;}
	.st2{fill:#A3A3A3;}
	.st3{fill:#424242;}
</style>
<g>
	<g>
		<path class="st0" d="M230,1v123H1V1H230 M231,0H0v125h231V0L231,0z"/>
	</g>
	<rect x="55.8" y="59.2" class="st1" width="121.8" height="50.2"/>
	<polyline class="st1" points="177.6,52.4 55.8,52.4 55.8,35.3 177.6,35.3 177.6,18.3 55.8,18.3 	"/>
	<g>
		<line class="st1" x1="64.4" y1="18.3" x2="64.4" y2="35.3"/>
		<line class="st1" x1="72" y1="18.3" x2="72" y2="35.3"/>
		<line class="st1" x1="79.7" y1="18.3" x2="79.7" y2="35.3"/>
		<line class="st1" x1="87.4" y1="18.3" x2="87.4" y2="35.3"/>
		<line class="st1" x1="95.1" y1="18.3" x2="95.1" y2="35.3"/>
		<line class="st1" x1="102.7" y1="18.3" x2="102.7" y2="35.3"/>
		<line class="st1" x1="110.4" y1="18.3" x2="110.4" y2="35.3"/>
		<line class="st1" x1="118.1" y1="18.3" x2="118.1" y2="35.3"/>
		<line class="st1" x1="125.8" y1="18.3" x2="125.8" y2="35.3"/>
		<line class="st1" x1="133.4" y1="18.3" x2="133.4" y2="35.3"/>
		<line class="st1" x1="141.1" y1="18.3" x2="141.1" y2="35.3"/>
	</g>
	<g>
		<line class="st1" x1="92.3" y1="35.3" x2="92.3" y2="52.4"/>
		<line class="st1" x1="100" y1="35.3" x2="100" y2="52.4"/>
		<line class="st1" x1="107.7" y1="35.3" x2="107.7" y2="52.4"/>
		<line class="st1" x1="115.4" y1="35.3" x2="115.4" y2="52.4"/>
		<line class="st1" x1="123" y1="35.3" x2="123" y2="52.4"/>
		<line class="st1" x1="130.7" y1="35.3" x2="130.7" y2="52.4"/>
		<line class="st1" x1="138.4" y1="35.3" x2="138.4" y2="52.4"/>
		<line class="st1" x1="146.1" y1="35.3" x2="146.1" y2="52.4"/>
		<line class="st1" x1="153.7" y1="35.3" x2="153.7" y2="52.4"/>
		<line class="st1" x1="161.4" y1="35.3" x2="161.4" y2="52.4"/>
		<line class="st1" x1="169.1" y1="35.3" x2="169.1" y2="52.4"/>
	</g>
	<line class="st1" x1="55.8" y1="78.3" x2="177.6" y2="78.3"/>
	<g>
		<circle class="st2" cx="37.6" cy="17.4" r="8.1"/>
		<circle class="st3" cx="37.6" cy="17.4" r="3.4"/>
	</g>
</g>
<g>
	<g>
		<g>
			<path class="st0" d="M125.5,90.9v13.3h-18.6V90.9H125.5 M126.5,89.9h-20.6v15.3h20.6V89.9L126.5,89.9z"/>
		</g>
		<g>
			<ellipse class="st0" cx="111.3" cy="94.6" rx="1.3" ry="1.3"/>
		</g>
		<g>
			<path class="st0" d="M112.6,101h-2.4v-3.7c0,0,0.2-0.8,1.2-0.8c1,0,1.2,0.8,1.2,0.8V101z"/>
		</g>
		<g>
			<ellipse class="st0" cx="116.2" cy="94.6" rx="1.3" ry="1.3"/>
		</g>
		<g>
			<path class="st0" d="M117.4,101H115v-3.7c0,0,0.2-0.8,1.2-0.8c1,0,1.2,0.8,1.2,0.8V101z"/>
		</g>
		<g>
			<ellipse class="st0" cx="121.1" cy="94.6" rx="1.3" ry="1.3"/>
		</g>
		<g>
			<path class="st0" d="M122.3,101h-2.4v-3.7c0,0,0.2-0.8,1.2-0.8s1.2,0.8,1.2,0.8V101z"/>
		</g>
	</g>
	<g>
		<g>
			<g>
				<g>
					<path class="st0" d="M121.1,87.7c-0.3,0-0.5-0.2-0.5-0.5v-4.7c0-0.3,0.2-0.5,0.5-0.5s0.5,0.2,0.5,0.5v4.7
						C121.7,87.5,121.4,87.7,121.1,87.7z"/>
				</g>
				<g>
					<path class="st0" d="M118.7,85c-0.1,0-0.3,0-0.4-0.1c-0.2-0.2-0.2-0.5,0-0.7l2.4-2.2c0.2-0.2,0.5-0.2,0.7,0
						c0.2,0.2,0.2,0.5,0,0.7l-2.4,2.2C119,84.9,118.9,85,118.7,85z"/>
				</g>
				<g>
					<path class="st0" d="M123.5,85c-0.1,0-0.3,0-0.4-0.1l-2.4-2.2c-0.2-0.2-0.2-0.5,0-0.7c0.2-0.2,0.5-0.2,0.7,0l2.4,2.2
						c0.2,0.2,0.2,0.5,0,0.7C123.8,84.9,123.7,85,123.5,85z"/>
				</g>
			</g>
		</g>
		<g>
			<g>
				<g>
					<path class="st0" d="M111.3,87.5c-0.3,0-0.5-0.2-0.5-0.5v-4.7c0-0.3,0.2-0.5,0.5-0.5s0.5,0.2,0.5,0.5V87
						C111.8,87.3,111.6,87.5,111.3,87.5z"/>
				</g>
				<g>
					<path class="st0" d="M111.3,87.7c-0.1,0-0.3,0-0.4-0.1c-0.2-0.2-0.2-0.5,0-0.7l2.4-2.2c0.2-0.2,0.5-0.2,0.7,0
						c0.2,0.2,0.2,0.5,0,0.7l-2.4,2.2C111.5,87.6,111.4,87.7,111.3,87.7z"/>
				</g>
				<g>
					<path class="st0" d="M111.3,87.7c-0.1,0-0.3,0-0.4-0.1l-2.4-2.2c-0.2-0.2-0.2-0.5,0-0.7c0.2-0.2,0.5-0.2,0.7,0l2.4,2.2
						c0.2,0.2,0.2,0.5,0,0.7C111.5,87.6,111.4,87.7,111.3,87.7z"/>
				</g>
			</g>
		</g>
	</g>
</g>
</svg>
