<?xml version="1.0" encoding="utf-8"?>
<!-- Generator: Adobe Illustrator 20.1.0, SVG Export Plug-In . SVG Version: 6.00 Build 0)  -->
<svg version="1.1" id="レイヤー_1" xmlns="http://www.w3.org/2000/svg" xmlns:xlink="http://www.w3.org/1999/xlink" x="0px"
	 y="0px" viewBox="0 0 231 125" style="enable-background:new 0 0 231 125;" xml:space="preserve">
<style type="text/css">
	.st0{fill:#7A7A7A;}
	.st1{fill:#A3A2A2;}
	.st2{fill:#424142;}
</style>
<g>
	<g>
		<path class="st0" d="M229.6,1.1v122.4H1V1.1H229.6 M230.6,0.1H0v124.4h230.6V0.1L230.6,0.1z"/>
	</g>
	<g>
		<path class="st0" d="M175.2,1.2v38.1H55.4V1.2H175.2 M176.2,0.2H54.4v40.1h121.8V0.2L176.2,0.2z"/>
	</g>
	<g>
		<path class="st0" d="M144.2,99.2v24.4H86.4V99.2H144.2 M145.2,98.2H85.4v26.4h59.7V98.2L145.2,98.2z"/>
	</g>
	<g>
		<circle class="st1" cx="168.6" cy="58" r="8.1"/>
		<circle class="st2" cx="168.6" cy="58" r="3.4"/>
	</g>
	<g>
		<g>
			<g>
				<path class="st0" d="M125.5,16.4v16.4h-22.7V16.4H125.5 M126.5,15.4h-24.7v18.4h24.7V15.4L126.5,15.4z"/>
			</g>
			<g>
				<ellipse class="st0" cx="108.3" cy="21" rx="1.5" ry="1.6"/>
			</g>
			<g>
				<path class="st0" d="M109.8,28.7h-2.9v-4.4c0,0,0.2-1,1.5-1c1.3,0,1.5,1,1.5,1V28.7z"/>
			</g>
			<g>
				<ellipse class="st0" cx="114.2" cy="21" rx="1.5" ry="1.6"/>
			</g>
			<g>
				<path class="st0" d="M115.6,28.7h-2.9v-4.4c0,0,0.2-1,1.5-1c1.3,0,1.5,1,1.5,1V28.7z"/>
			</g>
			<g>
				<ellipse class="st0" cx="120" cy="21" rx="1.5" ry="1.6"/>
			</g>
			<g>
				<path class="st0" d="M121.5,28.7h-2.9v-4.4c0,0,0.2-1,1.5-1c1.3,0,1.5,1,1.5,1V28.7z"/>
			</g>
		</g>
		<g>
			<g>
				<g>
					<g>
						<path class="st0" d="M120.1,12.8c-0.4,0-0.7-0.3-0.7-0.6V6.5c0-0.3,0.3-0.6,0.7-0.6s0.7,0.3,0.7,0.6v5.7
							C120.7,12.5,120.4,12.8,120.1,12.8z"/>
					</g>
					<g>
						<path class="st0" d="M117.2,9.4c-0.2,0-0.3-0.1-0.4-0.2c-0.2-0.2-0.2-0.6,0-0.8l2.9-2.7c0.2-0.2,0.6-0.2,0.9,0
							c0.2,0.2,0.2,0.6,0,0.8l-2.9,2.7C117.5,9.4,117.4,9.4,117.2,9.4z"/>
					</g>
					<g>
						<path class="st0" d="M123,9.4c-0.2,0-0.3-0.1-0.4-0.2l-2.9-2.7c-0.2-0.2-0.2-0.6,0-0.8c0.2-0.2,0.6-0.2,0.9,0l2.9,2.7
							c0.2,0.2,0.2,0.6,0,0.8C123.3,9.4,123.1,9.4,123,9.4z"/>
					</g>
				</g>
			</g>
			<g>
				<g>
					<g>
						<path class="st0" d="M108.2,12.5c-0.4,0-0.7-0.3-0.7-0.6V6.2c0-0.3,0.3-0.6,0.7-0.6s0.7,0.3,0.7,0.6v5.7
							C108.9,12.2,108.6,12.5,108.2,12.5z"/>
					</g>
					<g>
						<path class="st0" d="M108.2,12.7c-0.2,0-0.3-0.1-0.4-0.2c-0.2-0.2-0.2-0.6,0-0.8l2.9-2.7c0.2-0.2,0.6-0.2,0.9,0
							c0.2,0.2,0.2,0.6,0,0.8l-2.9,2.7C108.5,12.7,108.4,12.7,108.2,12.7z"/>
					</g>
					<g>
						<path class="st0" d="M108.2,12.7c-0.2,0-0.3-0.1-0.4-0.2l-2.9-2.7c-0.2-0.2-0.2-0.6,0-0.8c0.2-0.2,0.6-0.2,0.9,0l2.9,2.7
							c0.2,0.2,0.2,0.6,0,0.8C108.5,12.7,108.4,12.7,108.2,12.7z"/>
					</g>
				</g>
			</g>
		</g>
	</g>
	<g>
		<path class="st0" d="M183.2,119.5h-4.8v-7.4h4.8v0.8h-3.9v2.1h3.8v0.8h-3.8v2.8h3.9V119.5z"/>
		<path class="st0" d="M190.2,119.5h-1.1l-3.7-6.4v6.4h-0.8v-7.4h1.3l3.5,6v-6h0.8V119.5z"/>
		<path class="st0" d="M193.8,119.5v-6.6h-2.6v-0.8h6.1v0.8h-2.6v6.6H193.8z"/>
	</g>
	<g>
		<path class="st0" d="M38.2,119.5h-4.8v-7.4h4.8v0.8h-3.9v2.1h3.8v0.8h-3.8v2.8h3.9V119.5z"/>
		<path class="st0" d="M45.2,119.5h-1.1l-3.7-6.4v6.4h-0.8v-7.4h1.3l3.5,6v-6h0.8V119.5z"/>
		<path class="st0" d="M48.8,119.5v-6.6h-2.6v-0.8h6.1v0.8h-2.6v6.6H48.8z"/>
	</g>
</g>
</svg>
