<?xml version="1.0" encoding="utf-8"?>
<!-- Generator: Adobe Illustrator 21.1.0, SVG Export Plug-In . SVG Version: 6.00 Build 0)  -->
<svg version="1.1" id="レイヤー_1" xmlns="http://www.w3.org/2000/svg" xmlns:xlink="http://www.w3.org/1999/xlink" x="0px"
	 y="0px" viewBox="0 0 90 60" style="enable-background:new 0 0 90 60;" xml:space="preserve">
<style type="text/css">
	.st0{fill:#494949;}
	.st1{fill:#FFFFFF;}
	.st2{fill:#C21B2C;}
	.st3{fill:#1B2F66;}
	.st4{fill:#D0000E;}
	.st5{fill:#12335F;}
</style>
<g id="en">
	<rect x="31.2" y="20.8" class="st0" width="58.8" height="39.2"/>
	<rect class="st0" width="58.8" height="39.2"/>
	<g>
		<rect class="st1" width="58.9" height="39.3"/>
		<g>
			<polygon class="st2" points="58.9,15.7 32.4,15.7 32.4,0 26.5,0 26.5,15.7 0,15.7 0,23.6 26.5,23.6 26.5,39.3 32.4,39.3 
				32.4,23.6 58.9,23.6 			"/>
			<polygon class="st2" points="0,0 0,2.8 15.2,13 19.5,13 			"/>
			<polygon class="st2" points="19.6,26.2 0,39.3 4.4,39.3 24,26.2 			"/>
			<polygon class="st2" points="58.9,39.3 58.9,36.4 43.7,26.3 39.4,26.3 			"/>
			<polygon class="st2" points="54.5,0 34.9,13.1 39.3,13.1 58.9,0 			"/>
		</g>
		<g>
			<polygon class="st3" points="0,13 13,13 0,4.3 			"/>
			<polygon class="st3" points="0,26.2 13,26.2 0,34.8 			"/>
			<polygon class="st3" points="24.7,12 24.7,0 6.7,0 			"/>
			<polygon class="st3" points="24.7,27.3 24.7,39.3 6.7,39.3 			"/>
			<polygon class="st3" points="58.9,26.3 45.9,26.3 58.9,35 			"/>
			<polygon class="st3" points="58.9,13.1 45.9,13.1 58.9,4.5 			"/>
			<polygon class="st3" points="34.2,27.3 34.2,39.3 52.2,39.3 			"/>
			<polygon class="st3" points="34.2,12 34.2,0 52.2,0 			"/>
		</g>
	</g>
	<g>
		<g>
			<rect x="31.2" y="20.8" class="st4" width="58.8" height="3"/>
			<rect x="31.2" y="23.8" class="st1" width="58.8" height="3"/>
			<rect x="31.2" y="26.9" class="st4" width="58.8" height="3"/>
			<rect x="31.2" y="29.9" class="st1" width="58.8" height="3"/>
			<rect x="31.2" y="32.9" class="st4" width="58.8" height="3"/>
			<rect x="31.2" y="35.9" class="st1" width="58.8" height="3"/>
			<rect x="31.2" y="38.9" class="st4" width="58.8" height="3"/>
			<rect x="31.2" y="41.9" class="st1" width="58.8" height="3"/>
			<rect x="31.2" y="44.9" class="st4" width="58.8" height="3"/>
			<rect x="31.2" y="47.9" class="st1" width="58.8" height="3"/>
			<rect x="31.2" y="51" class="st4" width="58.8" height="3"/>
			<rect x="31.2" y="54" class="st1" width="58.8" height="3"/>
			<rect x="31.2" y="57" class="st4" width="58.8" height="3"/>
		</g>
		<rect x="31.2" y="20.8" class="st5" width="29.6" height="21.1"/>
		<g>
			<polygon class="st1" points="34.9,22.5 34,22.5 33.7,21.7 33.5,22.5 32.6,22.5 33.3,23.1 33,23.9 33.7,23.4 34.4,23.9 34.2,23.1 
							"/>
			<polygon class="st1" points="39.8,22.5 38.9,22.5 38.7,21.7 38.4,22.5 37.5,22.5 38.2,23.1 38,23.9 38.7,23.4 39.4,23.9 
				39.1,23.1 			"/>
			<polygon class="st1" points="44.8,22.5 43.9,22.5 43.6,21.7 43.4,22.5 42.5,22.5 43.2,23.1 42.9,23.9 43.6,23.4 44.3,23.9 
				44.1,23.1 			"/>
			<polygon class="st1" points="49.8,22.5 48.9,22.5 48.6,21.7 48.3,22.5 47.4,22.5 48.2,23.1 47.9,23.9 48.6,23.4 49.3,23.9 
				49,23.1 			"/>
			<polygon class="st1" points="54.7,22.5 53.8,22.5 53.6,21.7 53.3,22.5 52.4,22.5 53.1,23.1 52.9,23.9 53.6,23.4 54.3,23.9 
				54,23.1 			"/>
			<polygon class="st1" points="59.7,22.5 58.8,22.5 58.5,21.7 58.3,22.5 57.4,22.5 58.1,23.1 57.8,23.9 58.5,23.4 59.2,23.9 
				59,23.1 			"/>
			<polygon class="st1" points="37.4,24.7 36.5,24.7 36.2,23.8 35.9,24.7 35.1,24.7 35.8,25.2 35.5,26.1 36.2,25.6 36.9,26.1 
				36.7,25.2 			"/>
			<polygon class="st1" points="42.3,24.7 41.4,24.7 41.2,23.8 40.9,24.7 40,24.7 40.7,25.2 40.5,26.1 41.2,25.6 41.9,26.1 
				41.6,25.2 			"/>
			<polygon class="st1" points="47.3,24.7 46.4,24.7 46.1,23.8 45.9,24.7 45,24.7 45.7,25.2 45.4,26.1 46.1,25.6 46.8,26.1 
				46.6,25.2 			"/>
			<polygon class="st1" points="52.3,24.7 51.4,24.7 51.1,23.8 50.8,24.7 49.9,24.7 50.7,25.2 50.4,26.1 51.1,25.6 51.8,26.1 
				51.5,25.2 			"/>
			<polygon class="st1" points="57.2,24.7 56.3,24.7 56.1,23.8 55.8,24.7 54.9,24.7 55.6,25.2 55.4,26.1 56.1,25.6 56.8,26.1 
				56.5,25.2 			"/>
			<polygon class="st1" points="34.9,26.8 34,26.8 33.7,25.9 33.5,26.8 32.6,26.8 33.3,27.3 33,28.2 33.7,27.6 34.4,28.2 34.2,27.3 
							"/>
			<polygon class="st1" points="39.8,26.8 38.9,26.8 38.7,25.9 38.4,26.8 37.5,26.8 38.2,27.3 38,28.2 38.7,27.6 39.4,28.2 
				39.1,27.3 			"/>
			<polygon class="st1" points="44.8,26.8 43.9,26.8 43.6,25.9 43.4,26.8 42.5,26.8 43.2,27.3 42.9,28.2 43.6,27.6 44.3,28.2 
				44.1,27.3 			"/>
			<polygon class="st1" points="49.8,26.8 48.9,26.8 48.6,25.9 48.3,26.8 47.4,26.8 48.2,27.3 47.9,28.2 48.6,27.6 49.3,28.2 
				49,27.3 			"/>
			<polygon class="st1" points="54.7,26.8 53.8,26.8 53.6,25.9 53.3,26.8 52.4,26.8 53.1,27.3 52.9,28.2 53.6,27.6 54.3,28.2 
				54,27.3 			"/>
			<polygon class="st1" points="59.7,26.8 58.8,26.8 58.5,25.9 58.3,26.8 57.4,26.8 58.1,27.3 57.8,28.2 58.5,27.6 59.2,28.2 
				59,27.3 			"/>
			<polygon class="st1" points="37.4,28.9 36.5,28.9 36.2,28.1 35.9,28.9 35.1,28.9 35.8,29.5 35.5,30.3 36.2,29.8 36.9,30.3 
				36.7,29.5 			"/>
			<polygon class="st1" points="42.3,28.9 41.4,28.9 41.2,28.1 40.9,28.9 40,28.9 40.7,29.5 40.5,30.3 41.2,29.8 41.9,30.3 
				41.6,29.5 			"/>
			<polygon class="st1" points="47.3,28.9 46.4,28.9 46.1,28.1 45.9,28.9 45,28.9 45.7,29.5 45.4,30.3 46.1,29.8 46.8,30.3 
				46.6,29.5 			"/>
			<polygon class="st1" points="52.3,28.9 51.4,28.9 51.1,28.1 50.8,28.9 49.9,28.9 50.7,29.5 50.4,30.3 51.1,29.8 51.8,30.3 
				51.5,29.5 			"/>
			<polygon class="st1" points="57.2,28.9 56.3,28.9 56.1,28.1 55.8,28.9 54.9,28.9 55.6,29.5 55.4,30.3 56.1,29.8 56.8,30.3 
				56.5,29.5 			"/>
			<polygon class="st1" points="34.9,31 34,31 33.7,30.2 33.5,31 32.6,31 33.3,31.6 33,32.4 33.7,31.9 34.4,32.4 34.2,31.6 			"/>
			<polygon class="st1" points="39.8,31 38.9,31 38.7,30.2 38.4,31 37.5,31 38.2,31.6 38,32.4 38.7,31.9 39.4,32.4 39.1,31.6 			"/>
			<polygon class="st1" points="44.8,31 43.9,31 43.6,30.2 43.4,31 42.5,31 43.2,31.6 42.9,32.4 43.6,31.9 44.3,32.4 44.1,31.6 			
				"/>
			<polygon class="st1" points="49.8,31 48.9,31 48.6,30.2 48.3,31 47.4,31 48.2,31.6 47.9,32.4 48.6,31.9 49.3,32.4 49,31.6 			"/>
			<polygon class="st1" points="54.7,31 53.8,31 53.6,30.2 53.3,31 52.4,31 53.1,31.6 52.9,32.4 53.6,31.9 54.3,32.4 54,31.6 			"/>
			<polygon class="st1" points="59.7,31 58.8,31 58.5,30.2 58.3,31 57.4,31 58.1,31.6 57.8,32.4 58.5,31.9 59.2,32.4 59,31.6 			"/>
			<polygon class="st1" points="37.4,33.2 36.5,33.2 36.2,32.3 35.9,33.2 35.1,33.2 35.8,33.7 35.5,34.5 36.2,34 36.9,34.5 
				36.7,33.7 			"/>
			<polygon class="st1" points="42.3,33.2 41.4,33.2 41.2,32.3 40.9,33.2 40,33.2 40.7,33.7 40.5,34.5 41.2,34 41.9,34.5 41.6,33.7 
							"/>
			<polygon class="st1" points="47.3,33.2 46.4,33.2 46.1,32.3 45.9,33.2 45,33.2 45.7,33.7 45.4,34.5 46.1,34 46.8,34.5 46.6,33.7 
							"/>
			<polygon class="st1" points="52.3,33.2 51.4,33.2 51.1,32.3 50.8,33.2 49.9,33.2 50.7,33.7 50.4,34.5 51.1,34 51.8,34.5 
				51.5,33.7 			"/>
			<polygon class="st1" points="57.2,33.2 56.3,33.2 56.1,32.3 55.8,33.2 54.9,33.2 55.6,33.7 55.4,34.5 56.1,34 56.8,34.5 
				56.5,33.7 			"/>
			<polygon class="st1" points="34.9,35.3 34,35.3 33.7,34.4 33.5,35.3 32.6,35.3 33.3,35.8 33,36.6 33.7,36.1 34.4,36.6 34.2,35.8 
							"/>
			<polygon class="st1" points="39.8,35.3 38.9,35.3 38.7,34.4 38.4,35.3 37.5,35.3 38.2,35.8 38,36.6 38.7,36.1 39.4,36.6 
				39.1,35.8 			"/>
			<polygon class="st1" points="44.8,35.3 43.9,35.3 43.6,34.4 43.4,35.3 42.5,35.3 43.2,35.8 42.9,36.6 43.6,36.1 44.3,36.6 
				44.1,35.8 			"/>
			<polygon class="st1" points="49.8,35.3 48.9,35.3 48.6,34.4 48.3,35.3 47.4,35.3 48.2,35.8 47.9,36.6 48.6,36.1 49.3,36.6 
				49,35.8 			"/>
			<polygon class="st1" points="54.7,35.3 53.8,35.3 53.6,34.4 53.3,35.3 52.4,35.3 53.1,35.8 52.9,36.6 53.6,36.1 54.3,36.6 
				54,35.8 			"/>
			<polygon class="st1" points="59.7,35.3 58.8,35.3 58.5,34.4 58.3,35.3 57.4,35.3 58.1,35.8 57.8,36.6 58.5,36.1 59.2,36.6 
				59,35.8 			"/>
			<polygon class="st1" points="37.4,37.4 36.5,37.4 36.2,36.6 35.9,37.4 35.1,37.4 35.8,37.9 35.5,38.8 36.2,38.3 36.9,38.8 
				36.7,37.9 			"/>
			<polygon class="st1" points="42.3,37.4 41.4,37.4 41.2,36.6 40.9,37.4 40,37.4 40.7,37.9 40.5,38.8 41.2,38.3 41.9,38.8 
				41.6,37.9 			"/>
			<polygon class="st1" points="47.3,37.4 46.4,37.4 46.1,36.6 45.9,37.4 45,37.4 45.7,37.9 45.4,38.8 46.1,38.3 46.8,38.8 
				46.6,37.9 			"/>
			<polygon class="st1" points="52.3,37.4 51.4,37.4 51.1,36.6 50.8,37.4 49.9,37.4 50.7,37.9 50.4,38.8 51.1,38.3 51.8,38.8 
				51.5,37.9 			"/>
			<polygon class="st1" points="57.2,37.4 56.3,37.4 56.1,36.6 55.8,37.4 54.9,37.4 55.6,37.9 55.4,38.8 56.1,38.3 56.8,38.8 
				56.5,37.9 			"/>
			<polygon class="st1" points="34.9,39.5 34,39.5 33.7,38.7 33.5,39.5 32.6,39.5 33.3,40 33,40.9 33.7,40.4 34.4,40.9 34.2,40 			
				"/>
			<polygon class="st1" points="39.8,39.5 38.9,39.5 38.7,38.7 38.4,39.5 37.5,39.5 38.2,40 38,40.9 38.7,40.4 39.4,40.9 39.1,40 
							"/>
			<polygon class="st1" points="44.8,39.5 43.9,39.5 43.6,38.7 43.4,39.5 42.5,39.5 43.2,40 42.9,40.9 43.6,40.4 44.3,40.9 44.1,40 
							"/>
			<polygon class="st1" points="49.8,39.5 48.9,39.5 48.6,38.7 48.3,39.5 47.4,39.5 48.2,40 47.9,40.9 48.6,40.4 49.3,40.9 49,40 
							"/>
			<polygon class="st1" points="54.7,39.5 53.8,39.5 53.6,38.7 53.3,39.5 52.4,39.5 53.1,40 52.9,40.9 53.6,40.4 54.3,40.9 54,40 
							"/>
			<polygon class="st1" points="59.7,39.5 58.8,39.5 58.5,38.7 58.3,39.5 57.4,39.5 58.1,40 57.8,40.9 58.5,40.4 59.2,40.9 59,40 
							"/>
		</g>
	</g>
</g>
</svg>
