<?xml version="1.0" encoding="utf-8"?>
<!-- Generator: Adobe Illustrator 21.1.0, SVG Export Plug-In . SVG Version: 6.00 Build 0)  -->
<svg version="1.1" id="レイヤー_1" xmlns="http://www.w3.org/2000/svg" xmlns:xlink="http://www.w3.org/1999/xlink" x="0px"
	 y="0px" viewBox="0 0 90 60" style="enable-background:new 0 0 90 60;" xml:space="preserve">
<style type="text/css">
	.st0{fill:#FFFFFF;}
	.st1{fill:#BA1A30;}
	.st2{fill:#12366D;}
	.st3{fill:#040000;}
</style>
<g id="ko">
	<g>
		<rect class="st0" width="90" height="60"/>
		<path class="st1" d="M53.3,17.5c-6.9-4.6-16.2-2.7-20.8,4.2c-0.1,0.1-0.1,0.2-0.2,0.3c-2,3.4-1.1,7.8,2.3,10.1
			C38,34.4,42.7,33.4,45,30s7-4.4,10.4-2.1c3.3,2.2,4.3,6.7,2.3,10.1C62,31.1,60.1,22,53.3,17.5z"/>
		<path class="st2" d="M32.5,21.7c-2.3,3.4-1.4,8.1,2.1,10.4C38,34.4,42.7,33.4,45,30s7-4.4,10.4-2.1s4.4,7,2.1,10.4
			c-4.6,6.9-13.9,8.8-20.8,4.2S27.9,28.6,32.5,21.7z"/>
		<g>
			<rect x="63.5" y="38.6" transform="matrix(0.5547 -0.832 0.832 0.5547 -3.3202 73.5169)" class="st3" width="7" height="2.6"/>
			<rect x="66.6" y="40.6" transform="matrix(0.5546 -0.8321 0.8321 0.5546 -3.6644 76.9707)" class="st3" width="7" height="2.6"/>
			<rect x="14.7" y="13.5" transform="matrix(0.5547 -0.832 0.832 0.5547 -2.4435 25.0181)" class="st3" width="15" height="2.6"/>
			<rect x="61.3" y="10" transform="matrix(0.832 -0.5547 0.5547 0.832 3.0384 36.9814)" class="st3" width="2.6" height="7"/>
			
				<rect x="65.7" y="16.6" transform="matrix(0.8321 -0.5546 0.5546 0.8321 9.671257e-02 40.5161)" class="st3" width="2.6" height="7"/>
			<rect x="66.6" y="7.2" transform="matrix(0.832 -0.5547 0.5547 0.832 3.2462 40.1171)" class="st3" width="2.6" height="15"/>
			<rect x="71.9" y="12.5" transform="matrix(0.8321 -0.5547 0.5547 0.8321 3.4168 43.2973)" class="st3" width="2.6" height="7"/>
			<rect x="67.5" y="5.8" transform="matrix(0.8321 -0.5547 0.5547 0.8321 6.3919 39.7103)" class="st3" width="2.6" height="7"/>
			
				<rect x="18.6" y="38.4" transform="matrix(0.8321 -0.5546 0.5546 0.8321 -19.9053 18.0623)" class="st3" width="2.6" height="7"/>
			<rect x="65.3" y="49.4" transform="matrix(0.5547 -0.832 0.832 0.5547 -11.5129 79.8293)" class="st3" width="7" height="2.6"/>
			<rect x="59" y="45.2" transform="matrix(0.5547 -0.832 0.832 0.5547 -10.8812 72.741)" class="st3" width="7" height="2.6"/>
			
				<rect x="62.2" y="47.3" transform="matrix(0.5547 -0.8321 0.8321 0.5547 -11.1438 76.2983)" class="st3" width="7" height="2.6"/>
			<rect x="69.7" y="42.7" transform="matrix(0.5548 -0.832 0.832 0.5548 -4.0325 80.4942)" class="st3" width="7" height="2.6"/>
			<rect x="23" y="45.1" transform="matrix(0.8321 -0.5547 0.5547 0.8321 -22.8825 21.6543)" class="st3" width="2.6" height="7"/>
			<rect x="17.7" y="15.5" transform="matrix(0.5548 -0.832 0.832 0.5548 -2.7971 28.4629)" class="st3" width="15" height="2.6"/>
			<rect x="17.7" y="39.8" transform="matrix(0.832 -0.5547 0.5547 0.832 -23.0525 18.4735)" class="st3" width="2.6" height="15"/>
			
				<rect x="11.5" y="11.4" transform="matrix(0.5546 -0.8321 0.8321 0.5546 -2.0786 21.4814)" class="st3" width="15" height="2.6"/>
			
				<rect x="23.9" y="35.7" transform="matrix(0.8321 -0.5547 0.5547 0.8321 -19.7372 21.2481)" class="st3" width="2.6" height="15"/>
		</g>
	</g>
</g>
</svg>
