<?xml version="1.0" encoding="utf-8"?>
<!-- Generator: Adobe Illustrator 21.1.0, SVG Export Plug-In . SVG Version: 6.00 Build 0)  -->
<svg version="1.1" id="レイヤー_1" xmlns="http://www.w3.org/2000/svg" xmlns:xlink="http://www.w3.org/1999/xlink" x="0px"
	 y="0px" viewBox="0 0 90 60" style="enable-background:new 0 0 90 60;" xml:space="preserve">
<style type="text/css">
	.st0{fill:#D02E1A;}
	.st1{fill:#F3D521;}
</style>
<g id="zh-TW">
	<g>
		<rect class="st0" width="90" height="60"/>
		<g>
			<g>
				<polygon class="st1" points="23.5,12.1 16.9,12.1 15,6 13,12.1 6.5,12.1 11.8,16.1 9.8,22.3 15,18.6 20.2,22.3 18.2,16.2 				
					"/>
				<polygon class="st1" points="38.7,20.1 36.5,20.1 35.9,18.1 35.2,20.1 33.1,20.1 34.8,21.4 34.2,23.4 35.9,22.2 37.6,23.4 
					36.9,21.4 				"/>
				<polygon class="st1" points="38.1,10.1 36.2,11 34.8,9.4 35,11.5 33.1,12.4 35.2,12.9 35.5,15 36.5,13.2 38.5,13.5 37.1,12 				
					"/>
				<polygon class="st1" points="31.1,3.2 29.7,4.9 27.8,4.1 28.9,5.9 27.6,7.5 29.7,7 30.8,8.8 30.9,6.7 33,6.2 31,5.4 				"/>
				<polygon class="st1" points="32.9,27 30.9,26.3 30.9,24.2 29.7,25.8 27.7,25.1 28.8,26.9 27.6,28.6 29.6,28 30.7,29.7 
					30.8,27.7 				"/>
			</g>
		</g>
	</g>
</g>
</svg>
