<?xml version="1.0" encoding="utf-8"?>
<!-- Generator: Adobe Illustrator 21.1.0, SVG Export Plug-In . SVG Version: 6.00 Build 0)  -->
<svg version="1.1" id="レイヤー_1" xmlns="http://www.w3.org/2000/svg" xmlns:xlink="http://www.w3.org/1999/xlink" x="0px"
	 y="0px" viewBox="0 0 90 60" style="enable-background:new 0 0 90 60;" xml:space="preserve">
<style type="text/css">
	.st0{fill:#E62118;}
	.st1{fill:#1D2D6C;}
	.st2{fill:#FFFFFF;}
</style>
<g id="zh-CN">
	<g>
		<rect class="st0" width="90" height="60"/>
		<rect class="st1" width="45" height="30"/>
		<g>
			<path class="st2" d="M17.8,10.7l-5-1.4l3.7,3.7C16.7,12.2,17.2,11.4,17.8,10.7z"/>
			<path class="st2" d="M20.5,8.9l-3.7-3.7l1.4,5C18.9,9.7,19.7,9.2,20.5,8.9z"/>
			<path class="st2" d="M26.8,10.3l1.4-5L24.5,9C25.3,9.2,26.1,9.7,26.8,10.3z"/>
			<path class="st2" d="M33.8,15l-5-1.3c0.1,0.4,0.1,0.9,0.1,1.3c0,0.5,0,0.9-0.1,1.3L33.8,15z"/>
			<path class="st2" d="M28.6,13l3.7-3.7l-5,1.4C27.8,11.4,28.3,12.2,28.6,13z"/>
			<path class="st2" d="M22.5,8.6c0.5,0,0.9,0,1.3,0.1l-1.3-5l-1.3,5C21.6,8.7,22,8.6,22.5,8.6z"/>
			<path class="st2" d="M24.5,21.1l3.7,3.7l-1.4-5C26.1,20.3,25.3,20.8,24.5,21.1z"/>
			<path class="st2" d="M27.2,19.3l5,1.4L28.6,17C28.3,17.8,27.8,18.6,27.2,19.3z"/>
			<path class="st2" d="M22.5,21.4c-0.5,0-0.9,0-1.3-0.1l1.3,5l1.3-5C23.4,21.3,23,21.4,22.5,21.4z"/>
			<path class="st2" d="M18.2,19.7l-1.4,5l3.7-3.7C19.7,20.8,18.9,20.3,18.2,19.7z"/>
			<path class="st2" d="M16.1,15c0-0.5,0-0.9,0.1-1.3l-5,1.3l5,1.3C16.2,15.9,16.1,15.5,16.1,15z"/>
			<path class="st2" d="M16.4,17l-3.7,3.7l5-1.4C17.2,18.6,16.7,17.8,16.4,17z"/>
		</g>
		<circle class="st1" cx="22.5" cy="15" r="6.4"/>
		<circle class="st2" cx="22.5" cy="15" r="5.6"/>
	</g>
</g>
</svg>
