<?xml version="1.0" encoding="utf-8"?>
<!-- Generator: Adobe Illustrator 20.1.0, SVG Export Plug-In . SVG Version: 6.00 Build 0)  -->
<svg version="1.1" id="レイヤー_1" xmlns="http://www.w3.org/2000/svg" xmlns:xlink="http://www.w3.org/1999/xlink" x="0px"
	 y="0px" viewBox="0 0 490 423" style="enable-background:new 0 0 490 423;" xml:space="preserve">
<style type="text/css">
	.st0{clip-path:url(#SVGID_2_);fill:none;stroke:#9B8152;stroke-width:3.2083;stroke-miterlimit:10;}
	
		.st1{clip-path:url(#SVGID_2_);fill:none;stroke:#9B8152;stroke-width:3.2083;stroke-miterlimit:10;stroke-dasharray:15.954,6.3813;}
	.st2{clip-path:url(#SVGID_2_);fill:#9B8152;}
	.st3{fill:#FFFFFF;}
	.st4{clip-path:url(#SVGID_4_);fill:#9B8152;}
	.st5{clip-path:url(#SVGID_6_);fill:#9B8152;}
	.st6{clip-path:url(#SVGID_8_);fill:#9B8152;}
	.st7{clip-path:url(#SVGID_10_);fill:#9B8152;}
	.st8{fill:#9B8152;}
	.st9{clip-path:url(#SVGID_12_);fill:none;stroke:#9B8152;stroke-width:0.8021;stroke-miterlimit:10;}
	.st10{clip-path:url(#SVGID_14_);fill:#9B8152;}
</style>
<g>
	<g>
		<defs>
			<rect id="SVGID_1_" x="0.1" y="0" width="489.9" height="423"/>
		</defs>
		<clipPath id="SVGID_2_">
			<use xlink:href="#SVGID_1_"  style="overflow:visible;"/>
		</clipPath>
		<path class="st0" d="M374,422.9V155.3c0-12.6,7.8-35,10-40.9c7.5-20,28.8-85.1,38.8-116.1"/>
		<path class="st0" d="M328.2,155.3c0-12.6,7.8-35,10-40.9c7.5-20,28.8-85.1,38.8-116.1"/>
		<path class="st0" d="M112.2,111.3V87.6c0-12.6,7.8-35,10-40.9c3.4-9.2,9.8-27.8,16.6-48.3"/>
		<path class="st0" d="M425.4,422.9V155.3c0-12.6,7.8-35,10-40.9c5-13.4,16.3-47.3,26.2-77.5"/>
		<line class="st1" x1="466.7" y1="420.1" x2="466.7" y2="-1.1"/>
		<line class="st0" x1="470.7" y1="320.9" x2="490.9" y2="320.9"/>
		<line class="st0" x1="0.1" y1="320.9" x2="462.7" y2="320.9"/>
		<line class="st0" x1="470.7" y1="210.7" x2="490.9" y2="210.7"/>
		<line class="st0" x1="258.4" y1="210.7" x2="462.7" y2="210.7"/>
		<line class="st0" x1="0.1" y1="210.7" x2="234.1" y2="210.7"/>
		<line class="st0" x1="470.7" y1="100.4" x2="490.9" y2="100.4"/>
		<line class="st0" x1="200" y1="100.4" x2="462.7" y2="100.4"/>
		<line class="st0" x1="0.1" y1="33.1" x2="127.1" y2="33.1"/>
		<path class="st0" d="M246.2,314.6l55.7-103.9l-0.8-24.1c0,0,1-31.2,30.3-31.2c18,0,42.7,0,42.7,0"/>
		<path class="st0" d="M191.6,181.1l0.5-46.6c0-12.6,7.8-35,10-40.9c6.1-16.2,21.2-62,32-95.2"/>
		<polyline class="st0" points="246.2,314.6 191.3,210.7 191.5,195.9 		"/>
		<path class="st0" d="M0.1,278.4C23.6,239,81.1,121.9,95,106c6.2-7,17.2-6.1,17.2,7.5c0,4.9,0,97.1,0,97.1L111.4,358
			c0,0-1,31.2-30.3,31.2h-81"/>
		<line class="st0" x1="246.2" y1="314.6" x2="246.2" y2="422.9"/>
		<path class="st2" d="M240.7,349.9c0,3.8-3.1,6.8-6.8,6.8h-16.7c-3.8,0-6.8-3.1-6.8-6.8v-16.7c0-3.8,3.1-6.8,6.8-6.8h16.7
			c3.8,0,6.8,3.1,6.8,6.8V349.9z"/>
	</g>
	<g>
		<path class="st3" d="M225.6,349.6c-4.6,0-8.3-3.7-8.3-8.3s3.7-8.3,8.3-8.3c4.6,0,8.3,3.7,8.3,8.3
			C233.8,345.9,230.1,349.6,225.6,349.6z M217.9,341.3c0,4.2,3.4,7.7,7.7,7.7s7.7-3.4,7.7-7.7s-3.4-7.7-7.7-7.7
			C221.3,333.6,217.9,337.1,217.9,341.3z M225,338.2L225,338.2l-1.6,0.8l-0.3-1.3l2.1-1h1.5v9.1H225V338.2z"/>
	</g>
	<g>
		<defs>
			<rect id="SVGID_3_" x="0.1" y="-1.6" width="490.3" height="424.6"/>
		</defs>
		<clipPath id="SVGID_4_">
			<use xlink:href="#SVGID_3_"  style="overflow:visible;"/>
		</clipPath>
		<path class="st4" d="M191.1,109.4c0,3.8-3.1,6.8-6.8,6.8h-16.7c-3.8,0-6.8-3.1-6.8-6.8V92.7c0-3.8,3.1-6.8,6.8-6.8h16.7
			c3.8,0,6.8,3.1,6.8,6.8V109.4z"/>
	</g>
	<g>
		<path class="st3" d="M175.9,109c-4.6,0-8.3-3.7-8.3-8.3s3.7-8.3,8.3-8.3c4.6,0,8.3,3.7,8.3,8.3C184.2,105.4,180.4,109,175.9,109z
			 M168.3,100.8c0,4.2,3.4,7.7,7.7,7.7s7.7-3.4,7.7-7.7s-3.4-7.7-7.7-7.7C171.7,93.1,168.3,96.6,168.3,100.8z M172.8,105.3v-1.1
			l1.1-1c2.5-2.2,3.4-3.1,3.4-4.2c0-0.8-0.4-1.6-1.7-1.6c-0.8,0-1.6,0.4-2,0.8l-0.5-1.2c0.7-0.6,1.7-1,2.8-1c2.2,0,3.1,1.4,3.1,2.7
			c0,1.7-1.1,2.7-3.1,4.4l-0.8,0.6v0h4.1v1.4H172.8z"/>
	</g>
	<g>
		<defs>
			<rect id="SVGID_5_" x="0.1" y="-1.6" width="490.3" height="424.6"/>
		</defs>
		<clipPath id="SVGID_6_">
			<use xlink:href="#SVGID_5_"  style="overflow:visible;"/>
		</clipPath>
		<path class="st5" d="M403.6,109.4c0,3.8-3.1,6.8-6.8,6.8h-16.7c-3.8,0-6.8-3.1-6.8-6.8V92.7c0-3.8,3.1-6.8,6.8-6.8h16.7
			c3.8,0,6.8,3.1,6.8,6.8V109.4z"/>
	</g>
	<g>
		<path class="st3" d="M388.5,109c-4.6,0-8.3-3.7-8.3-8.3s3.7-8.3,8.3-8.3c4.6,0,8.3,3.7,8.3,8.3C396.7,105.4,393,109,388.5,109z
			 M380.8,100.8c0,4.2,3.4,7.7,7.7,7.7c4.2,0,7.7-3.4,7.7-7.7s-3.4-7.7-7.7-7.7C384.2,93.1,380.8,96.6,380.8,100.8z M385.7,103.5
			c0.4,0.2,1.3,0.6,2.1,0.6c1.5,0,2-0.9,2-1.4c0-1.2-1.2-1.6-2.3-1.6h-0.8v-1.2h0.8c0.9,0,1.9-0.3,1.9-1.2c0-0.5-0.4-1.1-1.6-1.1
			c-0.7,0-1.5,0.3-1.9,0.6l-0.4-1.2c0.5-0.4,1.6-0.7,2.6-0.7c2,0,2.9,1.1,2.9,2.2c0,0.9-0.6,1.7-1.7,2.1v0c1.2,0.2,2,1.1,2,2.2
			c0,1.4-1.2,2.7-3.6,2.7c-1.2,0-2.1-0.3-2.6-0.6L385.7,103.5z"/>
	</g>
	<g>
		<defs>
			<rect id="SVGID_7_" x="0.1" y="-1.6" width="490.3" height="424.6"/>
		</defs>
		<clipPath id="SVGID_8_">
			<use xlink:href="#SVGID_7_"  style="overflow:visible;"/>
		</clipPath>
		<path class="st6" d="M440.5,219.1c0,3.8-3.1,6.8-6.8,6.8h-16.7c-3.8,0-6.8-3.1-6.8-6.8v-16.7c0-3.8,3.1-6.8,6.8-6.8h16.7
			c3.8,0,6.8,3.1,6.8,6.8V219.1z"/>
	</g>
	<g>
		<path class="st3" d="M425.4,218.7c-4.6,0-8.3-3.7-8.3-8.3s3.7-8.3,8.3-8.3c4.6,0,8.3,3.7,8.3,8.3
			C433.6,215,429.9,218.7,425.4,218.7z M417.7,210.4c0,4.2,3.4,7.7,7.7,7.7c4.2,0,7.7-3.4,7.7-7.7s-3.4-7.7-7.7-7.7
			C421.1,202.8,417.7,206.2,417.7,210.4z M425.9,215v-2.3h-4.4v-1.1l4.1-5.8h1.9v5.6h1.2v1.3h-1.2v2.3H425.9z M425.9,211.5v-2.8
			c0-0.4,0-1,0-1.4h0c-0.2,0.5-0.5,1-0.8,1.4l-2.2,2.8v0H425.9z"/>
	</g>
	<g>
		<defs>
			<rect id="SVGID_9_" x="0.1" y="-1.6" width="490.3" height="424.6"/>
		</defs>
		<clipPath id="SVGID_10_">
			<use xlink:href="#SVGID_9_"  style="overflow:visible;"/>
		</clipPath>
		<path class="st7" d="M482.4,263.8c0,3.8-3.1,6.8-6.8,6.8H459c-3.8,0-6.8-3.1-6.8-6.8v-16.7c0-3.8,3.1-6.8,6.8-6.8h16.7
			c3.8,0,6.8,3.1,6.8,6.8V263.8z"/>
	</g>
	<g>
		<path class="st3" d="M467.3,263.4c-4.6,0-8.3-3.7-8.3-8.3s3.7-8.3,8.3-8.3c4.6,0,8.3,3.7,8.3,8.3
			C475.5,259.7,471.8,263.4,467.3,263.4z M459.6,255.1c0,4.2,3.4,7.7,7.7,7.7c4.2,0,7.7-3.4,7.7-7.7s-3.4-7.7-7.7-7.7
			C463,247.5,459.6,250.9,459.6,255.1z M470.1,252.1h-3.6l-0.2,1.8c0.2,0,0.4-0.1,0.7-0.1c1.8,0,3.4,1,3.4,2.9
			c0,1.7-1.5,3.1-3.7,3.1c-1.1,0-2-0.3-2.5-0.6l0.4-1.3c0.4,0.2,1.2,0.5,2.1,0.5c1.1,0,2-0.7,2-1.6c0-1.1-0.7-1.8-2.6-1.8
			c-0.5,0-1,0.1-1.3,0.1l0.5-4.5h4.8V252.1z"/>
	</g>
	<g>
		<path class="st8" d="M262.4,394h12.1v12.4h-1.4v-0.9h-9.3v0.9h-1.4V394z M267.7,395.3h-3.9v3.7h3.9V395.3z M263.8,400.3v3.7h3.9
			v-3.7H263.8z M273.1,398.9v-3.7h-4v3.7H273.1z M269,404.1h4v-3.7h-4V404.1z"/>
		<path class="st8" d="M283,393.7v10.1h-5.2v1.1h-1.2v-11.2H283z M279.2,394.9h-1.4v3.1h1.4V394.9z M277.8,399.2v3.3h1.4v-3.3H277.8
			z M281.8,398v-3.1h-1.5v3.1H281.8z M280.3,402.5h1.5v-3.3h-1.5V402.5z M289.7,394.6v1.3h-2v8.8c0,1.6-0.7,1.7-3.6,1.7
			c-0.1-0.4-0.3-1-0.5-1.4c0.5,0,1,0,1.4,0c1.3,0,1.3,0,1.3-0.4V396h-3.1v-1.3H289.7z"/>
		<path class="st8" d="M299,399.7c0,0.9-0.8,1.7-1.7,1.7s-1.7-0.8-1.7-1.7s0.8-1.7,1.7-1.7C298.2,398,299,398.8,299,399.7z"/>
		<path class="st8" d="M305.6,406.5v-6.3h5.4v6.2h-1.4v-0.5h-2.8v0.6H305.6z M309.7,401.5h-2.8v3.1h2.8V401.5z M315.5,393.4v5.4H308
			v-5.4H315.5z M314.1,397.5v-2.7h-4.9v2.7H314.1z M312.4,400.1h5.6v6.2h-1.4v-0.5h-2.9v0.6h-1.3V400.1z M313.7,404.5h2.9v-3h-2.9
			V404.5z"/>
		<path class="st8" d="M321.1,393.7l1.7,0.1c0,0.1-0.1,0.2-0.3,0.2v4.6c0,2.8-0.2,5.7-2.1,7.9c-0.3-0.3-0.8-0.8-1.1-1
			c1.7-1.9,1.9-4.4,1.9-6.9V393.7z M325.7,394.3l1.7,0.1c0,0.1-0.1,0.2-0.3,0.2v10.5h-1.4V394.3z M330.6,393.7l1.7,0.1
			c0,0.1-0.1,0.2-0.3,0.2v12.4h-1.4V393.7z"/>
		<path class="st8" d="M347.1,396.7h-7.2c-0.1,0.7-0.1,1.4-0.2,2.2h4.7l0.3,0l0.8,0.1c0,0.1,0,0.3-0.1,0.4c-0.3,4.2-0.6,5.8-1.2,6.5
			c-0.5,0.5-1,0.6-2.3,0.6c-0.5,0-1,0-1.6,0c0-0.4-0.2-1-0.5-1.3c1,0.1,2,0.1,2.5,0.1c0.3,0,0.5,0,0.7-0.2c0.4-0.3,0.7-1.7,0.9-4.8
			h-4.5c-0.5,2.5-1.7,4.9-4.6,6.4c-0.2-0.4-0.6-0.9-1-1.1c4-1.8,4.4-5.4,4.5-8.7H334v-1.3h5.8v-2.5l1.7,0.1c0,0.1-0.1,0.2-0.3,0.2
			v2.2h5.9V396.7z"/>
		<path class="st8" d="M361.6,395.2h-6c-0.1,0.5-0.3,1.1-0.4,1.6h5.8v9.7h-1.4v-0.8h-9v0.8h-1.3v-9.7h4.5c0.1-0.5,0.2-1.1,0.3-1.6
			h-5.6v-1.3h13V395.2z M350.6,398v6.4h2V398H350.6z M356.2,399.4V398h-2.4v1.4H356.2z M356.2,401.9v-1.4h-2.4v1.4H356.2z
			 M353.8,403v1.4h2.4V403H353.8z M359.6,404.4V398h-2.2v6.4H359.6z"/>
	</g>
	<g>
		<path class="st8" d="M259.9,18.2v2.3c0,2.1-0.2,5.1-1.4,7.1c-0.2-0.2-0.9-0.6-1.2-0.7c1.2-1.9,1.3-4.5,1.3-6.4V17h4.6v-3l1.7,0.1
			c0,0.1-0.1,0.2-0.3,0.2V15h4.8v1.1h-4.8V17h5.1l0.9,0c0,0.3-0.5,1.8-0.9,2.7l-1.2-0.4c0.1-0.3,0.2-0.7,0.4-1.1h-4
			c-0.1,0-0.1,0-0.2,0.1v0.9l3.4-0.3l0.1,1l-3.5,0.3c0,0.8,0,0.9,1,0.9h2.9c0.6,0,0.7-0.1,0.8-1c0.3,0.2,0.8,0.3,1.1,0.4
			c-0.2,1.3-0.5,1.7-1.8,1.7h-3.1c-2.1,0-2.2-0.5-2.2-1.8l-2.6,0.2l-0.1-1l2.7-0.2v-1.1H259.9z M263.8,22.5c0,0.1-0.1,0.2-0.3,0.2
			c-0.2,2.4-0.6,4-3.3,4.8c-0.1-0.3-0.5-0.8-0.7-1.1c2.3-0.7,2.7-1.9,2.8-4.1L263.8,22.5z M266.7,25.6c0,0.4,0.1,0.5,0.6,0.5h1.6
			c0.4,0,0.5-0.2,0.6-1.7c0.3,0.2,0.8,0.4,1.2,0.5c-0.1,2-0.5,2.5-1.6,2.5h-1.9c-1.4,0-1.7-0.4-1.7-1.7v-3.2l1.6,0.1
			c0,0.1-0.1,0.2-0.3,0.2V25.6z"/>
		<path class="st8" d="M283.7,15.3c-0.1,0.1-0.3,0.2-0.4,0.2c-2.3,5.6-5.6,9.2-9.6,11.5c-0.2-0.3-0.8-0.8-1.2-1.1
			c3.9-2.2,7.2-5.6,9.3-11.3L283.7,15.3z"/>
		<path class="st8" d="M292.2,14.6v5.5h-4v7.4h-1.4V14.6H292.2z M290.9,15.8h-2.7v1.1h2.7V15.8z M288.2,19h2.7v-1.2h-2.7V19z
			 M299,14.6v11.1c0,1.6-0.6,1.8-3.6,1.8c-0.1-0.4-0.3-1-0.5-1.4c0.6,0,1.2,0,1.6,0c1,0,1,0,1-0.4v-5.6h-4.2v-5.5H299z M297.6,15.8
			h-2.8v1.1h2.8V15.8z M294.8,19h2.8v-1.2h-2.8V19z"/>
		<path class="st8" d="M313.9,17.7h-7.2c-0.1,0.7-0.1,1.4-0.2,2.2h4.7l0.3,0l0.8,0.1c0,0.1,0,0.3-0.1,0.4c-0.3,4.2-0.6,5.8-1.2,6.5
			c-0.5,0.5-1,0.6-2.3,0.6c-0.5,0-1,0-1.6,0c0-0.4-0.2-1-0.5-1.3c1,0.1,2.1,0.1,2.5,0.1c0.3,0,0.5,0,0.7-0.2
			c0.4-0.3,0.7-1.7,0.9-4.8h-4.5c-0.5,2.5-1.7,4.9-4.6,6.4c-0.2-0.4-0.6-0.9-1-1.1c4-1.8,4.4-5.4,4.5-8.7h-4.4v-1.3h5.8v-2.5
			l1.7,0.1c0,0.1-0.1,0.2-0.3,0.2v2.2h5.9V17.7z"/>
		<path class="st8" d="M328.3,16.2h-6c-0.1,0.5-0.3,1.1-0.4,1.6h5.8v9.7h-1.4v-0.8h-9v0.8H316v-9.7h4.5c0.1-0.5,0.2-1.1,0.3-1.6
			h-5.6v-1.3h13V16.2z M317.3,19.1v6.4h2v-6.4H317.3z M322.9,20.4v-1.4h-2.4v1.4H322.9z M322.9,22.9v-1.4h-2.4v1.4H322.9z M320.5,24
			v1.4h2.4V24H320.5z M326.3,25.5v-6.4h-2.2v6.4H326.3z"/>
	</g>
	<g>
		<path class="st8" d="M317.5,236.8l1.5-0.5c0.1,0.3,0.1,0.7,0.2,1.2c-1.5,0.6-3.1,1.2-4.1,1.6c0,0.1-0.1,0.2-0.2,0.3l-0.6-1.5
			c0.5-0.1,1.2-0.3,1.9-0.6v-4.4h-1.6v-1.3h1.6v-3.4l1.6,0.1c0,0.1-0.1,0.2-0.3,0.2v3.1h1.5v1.3h-1.5V236.8z M327,228.5
			c0,0.1-0.2,0.1-0.3,0.1c-0.2,0.4-0.6,1-1,1.5h1.8v5.1h-8.1v-5.1h1.6c-0.2-0.5-0.6-1.1-0.9-1.6l1.2-0.4c0.4,0.6,0.9,1.4,1.1,1.9
			l-0.4,0.2h2.8l-0.4-0.1c0.4-0.5,0.8-1.4,1-2L327,228.5z M320,241.5v-5.6h6.9v5.6h-1.3V241h-4.3v0.5H320z M320.6,231.1v1h2.1v-1
			H320.6z M320.6,233.1v1h2.1v-1H320.6z M325.7,237h-4.3v0.9h4.3V237z M321.3,239.9h4.3v-1h-4.3V239.9z M326.2,232.1v-1H324v1H326.2
			z M326.2,234.1v-1H324v1H326.2z"/>
		<path class="st8" d="M335.9,239.5h6.3v1.4h-13.2v-1.4h5.4v-11.2l1.8,0.1c0,0.1-0.1,0.2-0.3,0.3v4h5.3v1.4h-5.3V239.5z"/>
		<path class="st8" d="M350.7,232.7h5.9v1.3h-13.2v-1.3h5.8V231h-4.5v-1.3h4.5V228l1.8,0.1c0,0.1-0.1,0.2-0.3,0.2v1.4h4.9v1.3h-4.9
			V232.7z M353.7,234.1c0,0.1-0.1,0.2-0.3,0.2v1.3h3v1.3h-3v3c0,1.4-0.5,1.6-3.5,1.6c-0.1-0.4-0.3-1-0.5-1.4c0.9,0,1.9,0,2.2,0
			c0.3,0,0.3-0.1,0.3-0.3v-3h-8.1v-1.3h8.1V234L353.7,234.1z M347.7,240.3c-0.4-0.7-1.3-1.8-2.1-2.6l1.2-0.7
			c0.8,0.7,1.8,1.7,2.2,2.5L347.7,240.3z"/>
	</g>
	<g>
		<path class="st8" d="M137.2,190.9h-3.5c1.3,1.3,3.2,2.4,5.1,3c-0.3,0.3-0.8,0.8-1,1.2c-1.8-0.7-3.8-2.1-5.2-3.6v3.8h-1.4v-3.7
			c-1.4,1.5-3.3,2.8-5.1,3.5c-0.2-0.3-0.6-0.9-0.9-1.1c1.8-0.6,3.7-1.8,5-3.1h-3.3v-5.5h4.4v-1.1h-5.6v-1.3h5.6v-1.3l1.8,0.1
			c0,0.1-0.1,0.2-0.3,0.2v1h5.8v1.3h-5.8v1.1h4.6V190.9z M128.2,186.5v1.2h3v-1.2H128.2z M128.2,188.7v1.2h3v-1.2H128.2z
			 M135.8,186.5h-3.2v1.2h3.2V186.5z M135.8,189.9v-1.2h-3.2v1.2H135.8z"/>
		<path class="st8" d="M143.9,191.6c0,0.1-0.2,0.2-0.3,0.1c-0.6,1-1.7,2.2-2.7,3c-0.3-0.3-0.8-0.6-1.1-0.8c1-0.7,2.1-1.9,2.6-2.9
			L143.9,191.6z M152.9,183.4v1.3h-13v-1.3h5.7v-1.6l1.8,0.1c0,0.1-0.1,0.2-0.3,0.2v1.2H152.9z M151.2,190.4h-4.1v3.5
			c0,1.3-0.5,1.5-3.4,1.5c-0.1-0.4-0.3-0.9-0.4-1.3c0.5,0,1.1,0,1.5,0c0.9,0,0.9,0,0.9-0.3v-3.4h-3.9v-4.5h9.4V190.4z M143.1,187.1
			v2.1h6.6v-2.1H143.1z M151.6,194.9c-0.5-0.9-1.7-2.2-2.6-3.2l1.3-0.6c0.9,0.9,2.1,2.2,2.7,3.1L151.6,194.9z"/>
		<path class="st8" d="M165.8,184.7c0,0.1-0.1,0.2-0.2,0.2c-0.5,1.7-1.2,3.4-2.1,4.6c0.6,0.3,1.3,0.8,1.7,1.1l-0.8,1.4
			c-0.5-0.4-1.2-0.9-1.8-1.2c-1.3,1.7-3,3.1-5,4.1c-0.2-0.3-0.8-0.9-1.1-1.1c2-0.9,3.6-2.2,4.9-3.8c-0.9-0.5-1.9-1-2.8-1.4l0.8-1.1
			c0.9,0.3,1.9,0.8,2.9,1.3c0.7-1,1.2-2.1,1.5-3.3h-4.4c-0.9,1.4-2,2.8-3.2,3.8c-0.3-0.3-0.8-0.7-1.2-0.9c2-1.5,3.6-3.9,4.5-6.4
			l1.9,0.4c-0.1,0.1-0.2,0.2-0.4,0.2c-0.2,0.4-0.5,1.1-0.7,1.5h4.3l0.3-0.1L165.8,184.7z"/>
		<path class="st8" d="M180.8,183.9c0,0.1-0.1,0.2-0.2,0.2c-0.6,5.5-2.4,8.6-7.3,10.6c-0.3-0.4-0.7-0.8-1-1.1
			c4.6-1.9,6.2-4.5,6.7-8.8h-7.5v3.9H170v-5.2h9.4l0.2-0.1L180.8,183.9z"/>
		<path class="st8" d="M183.6,187.6h12.1v1.4h-11.5c-0.1,0.1-0.3,0.2-0.5,0.3L183.6,187.6z"/>
		<path class="st8" d="M200.7,187.5v4.7c1,1.6,2.9,1.6,5.4,1.6c1.7,0,3.6,0,4.9-0.1c-0.2,0.3-0.4,1-0.4,1.3c-1.1,0-2.7,0.1-4.2,0.1
			c-3.1,0-4.9,0-6.3-1.7c-0.7,0.6-1.4,1.2-2,1.7c0,0.1,0,0.2-0.2,0.3l-0.7-1.5c0.7-0.4,1.5-1,2.2-1.5v-3.5h-2v-1.3H200.7z
			 M198.6,182.1c0.9,0.6,2,1.6,2.5,2.3l-1,1c-0.5-0.7-1.5-1.7-2.5-2.4L198.6,182.1z M203.4,190.7v2.3h-1.3v-7.5h3.8
			c-0.8-0.4-1.7-0.8-2.4-1.1l0.9-0.7c0.6,0.2,1.3,0.5,1.9,0.8c0.6-0.3,1.1-0.6,1.6-1h-5.7v-1.1h7l0.2-0.1l1,0.6
			c-0.1,0.1-0.2,0.1-0.3,0.1c-0.7,0.6-1.7,1.3-2.7,1.9c0.4,0.2,0.7,0.4,1,0.5h1.8v6.3c0,1.2-0.5,1.3-2.5,1.3c0-0.3-0.2-0.8-0.4-1.1
			c0.4,0,0.7,0,1,0c0.6,0,0.6,0,0.6-0.2v-1h-2.2v2.3h-1.2v-2.3H203.4z M205.5,186.5h-2.1v1.1h2.1V186.5z M203.4,189.7h2.1v-1.1h-2.1
			V189.7z M209,187.6v-1.1h-2.2v1.1H209z M206.8,189.7h2.2v-1.1h-2.2V189.7z"/>
		<path class="st8" d="M214.8,190.4c-0.3-0.9-0.4-2.1-0.4-2.9c0-1.2,0.1-2.8,0.4-4.6l1.9,0.3c0,0.2-0.2,0.2-0.4,0.3
			c-0.3,1.1-0.5,2.9-0.5,4c0,0.2,0,0.4,0,0.5c0.3-0.7,0.8-1.6,1.1-2.1c0.2,0.3,0.5,0.7,0.7,0.9c-0.8,1.3-1.5,2.4-1.5,3
			c0,0.1,0,0.2,0,0.4L214.8,190.4z M222.8,182.5c0,0.2-0.1,0.3-0.4,0.3c0.1,1.2,0.2,3.2,0.2,5c0,2.8-1,5.4-5.4,7.2
			c-0.2-0.3-0.7-0.9-1-1.2c4-1.5,4.9-3.9,4.9-6c0-1.9-0.2-4-0.3-5.4L222.8,182.5z"/>
	</g>
	<g>
		<path class="st8" d="M42.8,235.4c-0.1,0.1-0.2,0.2-0.4,0.2c-0.9,2.2-2.3,4.4-3.7,5.9c-0.3-0.3-0.9-0.7-1.3-0.9
			c1.4-1.3,2.7-3.5,3.5-5.7L42.8,235.4z M44.8,231.5h5.8v1.4h-13v-1.4h5.7v-3.4l1.8,0.1c0,0.1-0.1,0.2-0.4,0.2V231.5z M49.1,241.4
			c-0.6-1.6-2.1-4.2-3.4-6.1l1.4-0.6c1.3,1.8,2.9,4.3,3.6,5.9L49.1,241.4z"/>
		<path class="st8" d="M65,232.4h-4.9c1.2,2.4,3.2,4.5,5.4,5.7c-0.3,0.3-0.8,0.8-1,1.2c-2.1-1.2-3.9-3.3-5.2-5.7v3.9h2.6v1.4h-2.6
			v2.6h-1.4v-2.6h-2.7v-1.4h2.7v-3.9c-1.3,2.4-3.1,4.5-5.2,5.7c-0.2-0.3-0.7-0.9-1-1.1c2.2-1.1,4.1-3.4,5.3-5.8h-4.8V231h5.6v-3
			l1.8,0.1c0,0.1-0.1,0.2-0.3,0.2v2.6H65V232.4z"/>
		<path class="st8" d="M79.4,232.9h-5.1c1.3,2.4,3.4,4.7,5.6,5.9c-0.3,0.3-0.8,0.8-1,1.2c-1.9-1.2-3.8-3.3-5.1-5.6v7.2h-1.5v-7.1
			c-1.3,2.3-3.2,4.4-5.1,5.6c-0.2-0.3-0.7-0.9-1-1.2c2.2-1.2,4.3-3.6,5.5-6h-5v-1.4h5.6V228l1.8,0.1c0,0.1-0.1,0.2-0.3,0.2v3.1h5.6
			V232.9z"/>
	</g>
	<g>
		<defs>
			<rect id="SVGID_11_" x="0.1" y="-1.6" width="490.3" height="424.6"/>
		</defs>
		<clipPath id="SVGID_12_">
			<use xlink:href="#SVGID_11_"  style="overflow:visible;"/>
		</clipPath>
		<line class="st9" x1="206" y1="198.2" x2="214.5" y2="210.7"/>
	</g>
	<g>
		<defs>
			<rect id="SVGID_13_" x="0.1" y="0" width="490.3" height="422.9"/>
		</defs>
		<clipPath id="SVGID_14_">
			<use xlink:href="#SVGID_13_"  style="overflow:visible;"/>
		</clipPath>
		<path class="st10" d="M237.6,204.6h17.3l1-10h-4.5c-1.1-7.2-1.7-14.7-2.3-23.1l-5.8,0c-0.6,8.5-1.2,16-2.2,23.1h-4.5L237.6,204.6z
			"/>
		<polygon class="st10" points="249.9,171 249.9,167.6 249.1,167.6 249.1,167 243.3,167 243.3,167.6 242.4,167.6 242.5,171 		"/>
		<rect x="242.5" y="158.6" class="st10" width="7.4" height="7.9"/>
		<polygon class="st10" points="247.9,150.3 247.4,150.3 247.4,142.8 246.6,142.8 246.5,131.8 245.8,131.8 245.8,142.8 244.9,142.8 
			244.9,150.3 244.4,150.3 244.4,157.8 247.9,157.8 		"/>
		<path class="st10" d="M253.3,207.9v-2.1H239v2.1h0c-2.7,11.6-6.2,21.8-15.3,36h7.7c2.6-4.6,5.6-9.9,11.2-11.4
			c1.1-0.3,2.2-0.5,3.5-0.5c1.3,0,2.5,0.2,3.6,0.5c5.6,1.5,8.6,6.7,11.2,11.4l7.8,0C259.6,229.7,256,219.5,253.3,207.9"/>
	</g>
</g>
</svg>
